<!--
This work is licensed under the Creative Commons Attribution NonCommercial
ShareAlike 4.0 International License. To view a copy of the license, visit
https://creativecommons.org/licenses/by-nc-sa/4.0/
-->
<svg xmlns="http://www.w3.org/2000/svg" width="145mm" height="65mm" viewBox="0 0 145 65" version="1.1">
  <defs>
    <marker id="arrow" orient="auto-start-reverse">
      <path d="M 3,-3 0,0 3,3" transform="rotate(180,0.125,0)" fill="none" stroke="context-stroke"/>
    </marker>
  </defs>
  <g font-family="'Fira Sans'" font-size="3.9px" stroke-width="0.2">
    <rect width="18" height="7" x="32" y="38" fill="#41a1c1" stroke-dasharray="0.6 0.6"/>
    <rect width="60" height="7" x="32" y="20" fill="#0e6e8e" stroke-dasharray="0.6 0.6"/>
    <rect width="132" height="7" x="8" y="20" fill="none" stroke="#000000"/>
    <path d="m 14,20 v 7" stroke="#000000"/>
    <path d="m 20,20 v 7" stroke="#000000"/>
    <path d="m 26,20 v 7" stroke="#000000"/>
    <path d="m 32,20 v 7" stroke="#000000"/>
    <path d="m 38,20 v 7" stroke="#000000"/>
    <path d="m 44,20 v 7" stroke="#000000"/>
    <path d="m 50,20 v 7" stroke="#000000"/>
    <path d="m 56,20 v 7" stroke="#000000"/>
    <path d="m 62,20 v 7" stroke="#000000"/>
    <path d="m 68,20 v 7" stroke="#000000"/>
    <path d="m 74,20 v 7" stroke="#000000"/>
    <path d="m 80,20 v 7" stroke="#000000"/>
    <path d="m 86,20 v 7" stroke="#000000"/>
    <path d="m 92,20 v 7" stroke="#000000"/>
    <path d="m 98,20 v 7" stroke="#000000"/>
    <path d="m 104,20 v 7" stroke="#000000"/>
    <path d="m 110,20 v 7" stroke="#000000"/>
    <path d="m 116,20 v 7" stroke="#000000"/>
    <path d="m 122,20 v 7" stroke="#000000"/>
    <path d="m 128,20 v 7" stroke="#000000"/>
    <path d="m 134,20 v 7" stroke="#000000"/>
    <text x="35" y="25" text-anchor="middle" fill="#ffffff">1</text>
    <text x="41" y="25" text-anchor="middle" fill="#ffffff">2</text>
    <text x="2" y="18">Before</text>
    <text x="2" y="36">After (if copy in increasing order)</text>
    <text x="47" y="25" text-anchor="middle" fill="#ffffff">3</text>
    <text x="59" y="25" text-anchor="middle" fill="#ffffff">8</text>
    <text x="65" y="25" text-anchor="middle" fill="#ffffff">13</text>
    <text x="71" y="25" text-anchor="middle" fill="#ffffff">21</text>
    <text x="77" y="25" text-anchor="middle" fill="#ffffff">34</text>
    <text x="83" y="25" text-anchor="middle" fill="#ffffff">55</text>
    <text x="89" y="25" text-anchor="middle" fill="#ffffff">89</text>
    <text x="53" y="25" text-anchor="middle" fill="#ffffff">5</text>
    <rect width="18" height="7" x="50" y="38" fill="#0e6e8e" stroke-dasharray="0.600003, 0.600003"/>
    <rect width="42" height="7" x="68" y="38" fill="#bf3959" stroke-dasharray="0.6, 0.6"/>
    <rect width="132" height="7" x="8" y="38" fill="none" stroke="#000000"/>
    <path d="m 14,38 v 7" stroke="#000000"/>
    <path d="m 20,38 v 7" stroke="#000000"/>
    <path d="m 26,38 v 7" stroke="#000000"/>
    <path d="m 32,38 v 7" stroke="#000000"/>
    <path d="m 38,38 v 7" stroke="#000000"/>
    <path d="m 44,38 v 7" stroke="#000000"/>
    <path d="m 50,38 v 7" stroke="#000000"/>
    <path d="m 56,38 v 7" stroke="#000000"/>
    <path d="m 62,38 v 7" stroke="#000000"/>
    <path d="m 68,38 v 7" stroke="#000000"/>
    <path d="m 74,38 v 7" stroke="#000000"/>
    <path d="m 80,38 v 7" stroke="#000000"/>
    <path d="m 86,38 v 7" stroke="#000000"/>
    <path d="m 92,38 v 7" stroke="#000000"/>
    <path d="m 98,38 v 7" stroke="#000000"/>
    <path d="m 104,38 v 7" stroke="#000000"/>
    <path d="m 110,38 v 7" stroke="#000000"/>
    <path d="m 116,38 v 7" stroke="#000000"/>
    <path d="m 122,38 v 7" stroke="#000000"/>
    <path d="m 128,38 v 7" stroke="#000000"/>
    <path d="m 134,38 v 7" stroke="#000000"/>
    <text x="35" y="43" text-anchor="middle">1</text>
    <text x="41" y="43" text-anchor="middle">2</text>
    <text x="47" y="43" text-anchor="middle">3</text>
    <text x="59" y="43" text-anchor="middle" fill="#ffffff">2</text>
    <text x="65" y="43" text-anchor="middle" fill="#ffffff">3</text>
    <text x="71" y="43" text-anchor="middle" fill="#ffffff">1</text>
    <text x="77" y="43" text-anchor="middle" fill="#ffffff">2</text>
    <text x="83" y="43" text-anchor="middle" fill="#ffffff">3</text>
    <text x="89" y="43" text-anchor="middle" fill="#ffffff">1</text>
    <text x="53" y="43" text-anchor="middle" fill="#ffffff">1</text>
    <text x="2" y="51">After (if copy in decreasing order)</text>
    <rect width="18" height="7" x="32" y="53" fill="#41a1c1" stroke-dasharray="0.6 0.6"/>
    <rect width="60" height="7" x="50" y="53" fill="#0e6e8e" stroke-dasharray="0.6 0.6"/>
    <rect width="132" height="7" x="8" y="53" fill="none" stroke="#000000"/>
    <path d="m 14,53 v 7" stroke="#000000"/>
    <path d="m 20,53 v 7" stroke="#000000"/>
    <path d="m 26,53 v 7" stroke="#000000"/>
    <path d="m 32,53 v 7" stroke="#000000"/>
    <path d="m 38,53 v 7" stroke="#000000"/>
    <path d="m 44,53 v 7" stroke="#000000"/>
    <path d="m 50,53 v 7" stroke="#000000"/>
    <path d="m 56,53 v 7" stroke="#000000"/>
    <path d="m 62,53 v 7" stroke="#000000"/>
    <path d="m 68,53 v 7" stroke="#000000"/>
    <path d="m 74,53 v 7" stroke="#000000"/>
    <path d="m 80,53 v 7" stroke="#000000"/>
    <path d="m 86,53 v 7" stroke="#000000"/>
    <path d="m 92,53 v 7" stroke="#000000"/>
    <path d="m 98,53 v 7" stroke="#000000"/>
    <path d="m 104,53 v 7" stroke="#000000"/>
    <path d="m 110,53 v 7" stroke="#000000"/>
    <path d="m 116,53 v 7" stroke="#000000"/>
    <path d="m 122,53 v 7" stroke="#000000"/>
    <path d="m 128,53 v 7" stroke="#000000"/>
    <path d="m 134,53 v 7" stroke="#000000"/>
    <text x="35" y="58" text-anchor="middle">1</text>
    <text x="41" y="58" text-anchor="middle">2</text>
    <text x="47" y="58" text-anchor="middle">3</text>
    <text x="143" y="25" text-anchor="middle">...</text>
    <path d="m 33,20 c 0,0 0,-7 9,-7 9,0 9,7 9,7" fill="none" stroke="#9a9a9a" stroke-dasharray="0.6 0.6" marker-end="url(#arrow)"/>
    <path d="m 52,20 c 0,0 0,-7 9,-7 9,0 9,7 9,7" fill="none" stroke="#9a9a9a" stroke-dasharray="0.6 0.6" marker-end="url(#arrow)"/>
    <path d="m 90,20 c 0,0 0,-7 9,-7 9,0 9,7 9,7" fill="none" stroke="#9a9a9a" stroke-dasharray="0.6 0.6" marker-end="url(#arrow)"/>
    <path d="m 71,20 c 0,0 0,-7 9,-7 9,0 9,7 9,7" fill="none" stroke="#9a9a9a" stroke-dasharray="0.6 0.6" marker-end="url(#arrow)"/>
    <text x="53" y="58" text-anchor="middle" fill="#ffffff">1</text>
    <text x="59" y="58" text-anchor="middle" fill="#ffffff">2</text>
    <text x="65" y="58" text-anchor="middle" fill="#ffffff">3</text>
    <text x="77" y="58" text-anchor="middle" fill="#ffffff">8</text>
    <text x="83" y="58" text-anchor="middle" fill="#ffffff">13</text>
    <text x="89" y="58" text-anchor="middle" fill="#ffffff">21</text>
    <text x="95" y="58" text-anchor="middle" fill="#ffffff">34</text>
    <text x="101" y="58" text-anchor="middle" fill="#ffffff">55</text>
    <text x="107" y="58" text-anchor="middle" fill="#ffffff">89</text>
    <path d="m 98,38 v 7" stroke="#000000"/>
    <path d="m 104,38 v 7" stroke="#000000"/>
    <text x="95" y="43" text-anchor="middle" fill="#ffffff">2</text>
    <text x="101" y="43" text-anchor="middle" fill="#ffffff">3</text>
    <text x="107" y="43" text-anchor="middle" fill="#ffffff">1</text>
    <text x="71" y="58" text-anchor="middle" fill="#ffffff">5</text>
    <text x="35" y="31" font-size="3.5px" text-anchor="middle">4</text>
    <text x="29" y="31" font-size="3.5px" text-anchor="middle">3</text>
    <text x="23" y="31" font-size="3.5px" text-anchor="middle">2</text>
    <text x="17" y="31" font-size="3.5px" text-anchor="middle">1</text>
    <text x="11" y="31" font-size="3.5px" text-anchor="middle">0</text>
    <text x="41" y="31" font-size="3.5px" text-anchor="middle">5</text>
    <text x="47" y="31" font-size="3.5px" text-anchor="middle">6</text>
    <text x="53" y="31" font-size="3.5px" text-anchor="middle">7</text>
    <text x="59" y="31" font-size="3.5px" text-anchor="middle">8</text>
    <text x="65" y="31" font-size="3.5px" text-anchor="middle">9</text>
    <text x="71" y="31" font-size="3.5px" text-anchor="middle">10</text>
    <text x="77" y="31" font-size="3.5px" text-anchor="middle">11</text>
    <text x="83" y="31" font-size="3.5px" text-anchor="middle">12</text>
    <text x="89" y="31" font-size="3.5px" text-anchor="middle">13</text>
    <text x="95" y="31" font-size="3.5px" text-anchor="middle">14</text>
    <text x="101" y="31" font-size="3.5px" text-anchor="middle">15</text>
    <text x="107" y="31" font-size="3.5px" text-anchor="middle">16</text>
    <text x="113" y="31" font-size="3.5px" text-anchor="middle">17</text>
    <text x="119" y="31" font-size="3.5px" text-anchor="middle">18</text>
    <text x="125" y="31" font-size="3.5px" text-anchor="middle">19</text>
    <text x="131" y="31" font-size="3.5px" text-anchor="middle">20</text>
    <text x="137" y="31" font-size="3.5px" text-anchor="middle">21</text>
  </g>
</svg>
