<!--
This work is licensed under the Creative Commons Attribution NonCommercial
ShareAlike 4.0 International License. To view a copy of the license, visit
https://creativecommons.org/licenses/by-nc-sa/4.0/
-->
<svg xmlns="http://www.w3.org/2000/svg" width="145mm" height="90mm" viewBox="0 0 145 90" version="1.1">
  <defs>
    <marker id="arrow" orient="auto-start-reverse">
      <path d="M 3,-3 0,0 3,3" transform="rotate(180,0.125,0)" fill="none" stroke="context-stroke"/>
    </marker>
  </defs>
  <g font-family="'Fira Sans'" font-size="3.9px" stroke-width="0.2">
    <rect width="14" height="5" x="114" y="54" fill="#062f3d" stroke-dasharray="0.8 0.2"/>
    <rect width="14" height="5" x="114" y="27" fill="#062f3d" stroke-dasharray="0.8 0.2"/>
    <text x="59" y="15" text-anchor="middle">Inactive</text>
    <text x="127" y="15" text-anchor="middle">Active</text>
    <text x="64" y="23" font-size="3.5px">a</text>
    <text x="64" y="39" font-size="3.5px">b</text>
    <text x="44" y="24" font-size="3.5px" text-anchor="end">c</text>
    <text x="34" y="31" font-size="3.9px" text-anchor="end">Normally open</text>
    <text x="34" y="58" font-size="3.9px" text-anchor="end">Normally closed</text>
    <rect width="14" height="5" x="46" y="27" fill="#062f3d" stroke-dasharray="0.8 0.2"/>
    <path d="m 43,26 4,0 2,7" fill="none" stroke="#cca752" stroke-linecap="round" stroke-linejoin="round" stroke-width="1.0"/>
    <path d="m 53,26 2,7" stroke="#cca752" stroke-linecap="round" stroke-linejoin="round" stroke-width="1.0"/>
    <path d="m 50,26 2,7" stroke="#cca752" stroke-linecap="round" stroke-linejoin="round" stroke-width="1.0"/>
    <path d="m 63,24 0,4" stroke="#cca752" stroke-linecap="round" stroke-linejoin="round" stroke-width="1.0"/>
    <path d="m 101,32 0,7" stroke="#cca752" stroke-linejoin="bevel" stroke-width="1.0"/>
    <path d="M 63,31 63,35" stroke="#cca752" stroke-linecap="round" stroke-linejoin="round" stroke-width="1.0"/>
    <path d="m 56,41 h 4" stroke="#cca752" stroke-linecap="round" stroke-linejoin="round" stroke-width="1.0"/>
    <path d="m 57,43 h 2" stroke="#cca752" stroke-linecap="round" stroke-linejoin="round" stroke-width="1.0"/>
    <path d="m 56,26 2,7 v 6" fill="none" stroke="#cca752" stroke-linecap="round" stroke-linejoin="round" stroke-width="1.0"/>
    <path d="m 101,30 v -4 h 14 l 2,7" fill="none" stroke="#ffda85" stroke-linecap="round" stroke-linejoin="round" stroke-width="1.0"/>
    <path d="m 121,26 2,7" stroke="#ffda85" stroke-linecap="round" stroke-linejoin="round" stroke-width="1.0"/>
    <path d="m 118,26 2,7" stroke="#ffda85" stroke-linecap="round" stroke-linejoin="round" stroke-width="1.0"/>
    <path d="M 97,30 H 105" stroke="#ffda85" stroke-linecap="round" stroke-linejoin="round" stroke-width="1.0"/>
    <path d="M 100,32 102,32" stroke="#cca752" stroke-linecap="round" stroke-linejoin="round" stroke-width="1.0"/>
    <path d="m 124,41 h 4" stroke="#cca752" stroke-linecap="round" stroke-linejoin="round" stroke-width="1.0"/>
    <path d="m 125,43 h 2" stroke="#cca752" stroke-linecap="round" stroke-linejoin="round" stroke-width="1.0"/>
    <path d="M 98,39 H 104" stroke="#cca752" stroke-linecap="round" stroke-linejoin="round" stroke-width="1.0"/>
    <path d="M 99,41 H 103" stroke="#cca752" stroke-linecap="round" stroke-linejoin="round" stroke-width="1.0"/>
    <path d="m 100,43 h 2" stroke="#cca752" stroke-linecap="round" stroke-linejoin="round" stroke-width="1.0"/>
    <path d="m 124,26 2,7 v 6" fill="none" stroke="#ffda85" stroke-linecap="round" stroke-linejoin="round" stroke-width="1.0"/>
    <path d="m 68,27 0,5" stroke="#062f3d" stroke-linecap="round" stroke-linejoin="round" stroke-width="1.0"/>
    <text x="70" y="50" font-size="3.5px">a</text>
    <text x="70" y="66" font-size="3.5px">b</text>
    <text x="44" y="51" font-size="3.5px" text-anchor="end">c</text>
    <rect width="14" height="5" x="46" y="54" fill="#062f3d" stroke-dasharray="0.8 0.2"/>
    <path d="m 69,51 0,4" stroke="#cca752" stroke-linecap="round" stroke-linejoin="round" stroke-width="1.0"/>
    <path d="M 69,58 69,62" stroke="#cca752" stroke-linecap="round" stroke-linejoin="round" stroke-width="1.0"/>
    <path d="m 68,54 0,5" stroke="#062f3d" stroke-linecap="round" stroke-linejoin="round" stroke-width="1.0"/>
    <path d="m 68.5,29.5 0.5,-1.5 1,3 L 71,28 72,31 72.5,29.5" fill="none" stroke="#062f3d" stroke-width="0.4" stroke-linecap="round" stroke-linejoin="round"/>
    <path d="m 68.5,56.5 0.5,-1.5 1,3 L 71,55 72,58 72.5,56.5" fill="none" stroke="#062f3d" stroke-width="0.4" stroke-linecap="round" stroke-linejoin="round"/>
    <text x="132" y="23" font-size="3.5px">a</text>
    <text x="132" y="39" font-size="3.5px">b</text>
    <text x="112" y="24" font-size="3.5px" text-anchor="end">c</text>
    <text x="96" y="29" font-size="3.5px" text-anchor="end">+5V</text>
    <path d="m 101,59 0,7" stroke="#cca752" stroke-linejoin="bevel" stroke-width="1.0"/>
    <path d="m 101,57 v -4 h 14 l 2,7" fill="none" stroke="#ffda85" stroke-linecap="round" stroke-linejoin="round" stroke-width="1.0"/>
    <path d="M 97,57 H 105" stroke="#ffda85" stroke-linecap="round" stroke-linejoin="round" stroke-width="1.0"/>
    <path d="M 100,59 102,59" stroke="#cca752" stroke-linecap="round" stroke-linejoin="round" stroke-width="1.0"/>
    <path d="m 98,66 h 6" stroke="#cca752" stroke-linecap="round" stroke-linejoin="round" stroke-width="1.0"/>
    <path d="m 99,68 h 4" stroke="#cca752" stroke-linecap="round" stroke-linejoin="round" stroke-width="1.0"/>
    <path d="m 100,70 h 2" stroke="#cca752" stroke-linecap="round" stroke-linejoin="round" stroke-width="1.0"/>
    <text x="96" y="56" font-size="3.5px" text-anchor="end">+5V</text>
    <text x="96" y="66" font-size="3.5px" text-anchor="end">ground</text>
    <text x="44" y="66" font-size="3.5px" text-anchor="end">electromagnet</text>
    <text x="74" y="23" font-size="3.5px">spring (at rest)</text>
    <path d="M 131,24 131,28" stroke="#cca752" stroke-linecap="round" stroke-linejoin="round" stroke-width="1.0"/>
    <path d="m 131,31 0,4" stroke="#cca752" stroke-linecap="round" stroke-linejoin="round" stroke-width="1.0"/>
    <path d="m 132,27 0,5" stroke="#062f3d" stroke-linecap="round" stroke-linejoin="round" stroke-width="1.0"/>
    <text x="138" y="50" font-size="3.5px">a</text>
    <text x="138" y="66" font-size="3.5px">b</text>
    <text x="112" y="51" font-size="3.5px" text-anchor="end">c</text>
    <path d="m 137,51 0,4" stroke="#cca752" stroke-linecap="round" stroke-linejoin="round" stroke-width="1.0"/>
    <path d="m 137,58 0,4" stroke="#cca752" stroke-linecap="round" stroke-linejoin="round" stroke-width="1.0"/>
    <path d="m 132.5,29.5 1,-1.5 2,3 2,-3 2,3 1,-1.5" fill="none" stroke="#062f3d" stroke-width="0.4" stroke-linecap="round" stroke-linejoin="round"/>
    <path d="m 132,54 0,5" stroke="#062f3d" stroke-linecap="round" stroke-linejoin="round" stroke-width="1.0"/>
    <path d="m 132.5,56.5 1,-1.5 2,3 2,-3 2,3 1,-1.5" fill="none" stroke="#062f3d" stroke-width="0.4" stroke-linecap="round" stroke-linejoin="round"/>
    <rect width="28" height="9" x="45" y="25" fill="none" stroke="#000000" stroke-width="0.4"/>
    <rect width="28" height="9" x="113" y="25" fill="none" stroke="#000000" stroke-width="0.4"/>
    <path d="m 121,53 2,7" stroke="#ffda85" stroke-linecap="round" stroke-linejoin="round" stroke-width="1.0"/>
    <path d="m 118,53 2,7" stroke="#ffda85" stroke-linecap="round" stroke-linejoin="round" stroke-width="1.0"/>
    <path d="m 124,68 h 4" stroke="#cca752" stroke-linecap="round" stroke-linejoin="round" stroke-width="1.0"/>
    <path d="m 125,70 h 2" stroke="#cca752" stroke-linecap="round" stroke-linejoin="round" stroke-width="1.0"/>
    <path d="m 124,53 2,7 v 6" fill="none" stroke="#ffda85" stroke-linecap="round" stroke-linejoin="round" stroke-width="1.0"/>
    <path d="m 43,53 4,0 2,7" fill="none" stroke="#cca752" stroke-linecap="round" stroke-linejoin="round" stroke-width="1.0"/>
    <path d="m 53,53 2,7" stroke="#cca752" stroke-linecap="round" stroke-linejoin="round" stroke-width="1.0"/>
    <path d="m 50,53 2,7" stroke="#cca752" stroke-linecap="round" stroke-linejoin="round" stroke-width="1.0"/>
    <path d="m 56,68 h 4" stroke="#cca752" stroke-linecap="round" stroke-linejoin="round" stroke-width="1.0"/>
    <path d="m 57,70 h 2" stroke="#cca752" stroke-linecap="round" stroke-linejoin="round" stroke-width="1.0"/>
    <path d="m 56,53 2,7 v 6" fill="none" stroke="#cca752" stroke-linecap="round" stroke-linejoin="round" stroke-width="1.0"/>
    <rect width="28" height="9" x="45" y="52" fill="none" stroke="#000000" stroke-width="0.4"/>
    <rect width="28" height="9" x="113" y="52" fill="none" stroke="#000000" stroke-width="0.4"/>
    <path d="m 55,39 h 6" stroke="#cca752" stroke-linecap="round" stroke-linejoin="round" stroke-width="1.0"/>
    <path d="m 123,39 h 6" stroke="#cca752" stroke-linecap="round" stroke-linejoin="round" stroke-width="1.0"/>
    <path d="m 123,66 h 6" stroke="#cca752" stroke-linecap="round" stroke-linejoin="round" stroke-width="1.0"/>
    <path d="m 55,66 h 6" stroke="#cca752" stroke-linecap="round" stroke-linejoin="round" stroke-width="1.0"/>
    <path d="m 45,64 2,-4" stroke="#000000" stroke-linejoin="bevel" stroke-dasharray="0.8 0.2" marker-end="url(#arrow)"/>
    <path d="m 72,28 2,-4" stroke="#000000" stroke-linejoin="bevel" stroke-dasharray="0.8 0.2" marker-start="url(#arrow)"/>
  </g>
</svg>
