<!--
This work is licensed under the Creative Commons Attribution NonCommercial
ShareAlike 4.0 International License. To view a copy of the license, visit
https://creativecommons.org/licenses/by-nc-sa/4.0/
-->
<svg xmlns="http://www.w3.org/2000/svg" width="145mm" height="55mm" viewBox="0 0 145 55" version="1.1">
  <defs>
    <marker id="arrow" orient="auto-start-reverse">
      <path d="M 3,-3 0,0 3,3" transform="rotate(180,0.125,0)" fill="none" stroke="context-stroke"/>
    </marker>
  </defs>
  <g font-family="'Fira Sans'" font-size="3.9px" stroke-width="0.2">
    <rect width="8" height="4" x="124" y="37" fill="#0e6e8e"/>
    <rect width="8" height="4" x="10" y="37" fill="#118ab2"/>
    <rect width="8" height="4" x="30" y="37" fill="#118ab2"/>
    <rect width="16" height="4" x="6" y="37" fill="none" stroke="#000000"/>
    <rect width="16" height="4" x="26" y="37" fill="none" stroke="#000000"/>
    <text x="8" y="40" font-size="3.1px" text-anchor="middle">12</text>
    <text x="12" y="40" font-size="3.1px" text-anchor="middle">0</text>
    <text x="20" y="40" font-size="3.1px" text-anchor="middle">2</text>
    <text x="40" y="40" font-size="3.1px" text-anchor="middle">2</text>
    <text x="30" y="45" font-size="3.1px">$x$</text>
    <text x="10" y="45" font-size="3.1px">$x-25$</text>
    <text x="104" y="45" font-size="3.1px">$x=y-8$</text>
    <text x="124" y="45" font-size="3.1px">$y$</text>
    <text x="84" y="45" font-size="3.1px">$x-25$</text>
    <text x="28" y="40" font-size="3.1px" text-anchor="middle">13</text>
    <text x="32" y="40" font-size="3.1px" text-anchor="middle">25</text>
    <path d="m 10,37 0,4" stroke="#000000"/>
    <path d="m 14,37 0,4" stroke="#000000"/>
    <path d="m 18,37 0,4" stroke="#000000"/>
    <path d="m 30,37 0,4" stroke="#000000"/>
    <path d="m 34,37 0,4" stroke="#000000"/>
    <path d="m 38,37 0,4" stroke="#000000"/>
    <rect width="20" height="16" x="6" y="13" fill="#ebebeb"/>
    <text x="-28" y="13" transform="rotate(-90)" font-size="3.5px">length</text>
    <text x="-28" y="17" transform="rotate(-90)" font-size="3.5px">kind=1</text>
    <text x="-28" y="21" transform="rotate(-90)" font-size="3.5px">value=$x$</text>
    <text x="-28" y="9" transform="rotate(-90)" font-size="3.5px">name</text>
    <path d="m 10,13 v 16" stroke="#000000"/>
    <path d="m 6,13 v 16" stroke="#000000"/>
    <path d="m 2,13 v 16" stroke="#000000"/>
    <path d="m 30,13 v 16" stroke="#000000"/>
    <path d="m 18,13 v 16" stroke="#000000"/>
    <text x="-28" y="25" transform="rotate(-90)" font-size="3.5px">next</text>
    <path d="m 22,13 v 16" stroke="#000000"/>
    <path d="m 26,13 v 16" stroke="#000000"/>
    <path d="m 14,13 v 16" stroke="#000000"/>
    <path d="M 1,13 H 31" stroke="#000000"/>
    <path d="M 31,29 H 1" stroke="#000000"/>
    <rect width="20" height="16" x="80" y="13" fill="#ebebeb"/>
    <text x="-28" y="87" transform="rotate(-90)" font-size="3.5px">length</text>
    <text x="-28" y="91" transform="rotate(-90)" font-size="3.5px">kind=1</text>
    <text x="-28" y="95" transform="rotate(-90)" font-size="3.5px" fill="#048966">value=$y$</text>
    <text x="-28" y="83" transform="rotate(-90)" font-size="3.5px">name</text>
    <path d="m 84,13 v 16" stroke="#000000"/>
    <path d="m 80,13 v 16" stroke="#000000"/>
    <path d="m 76,13 v 16" stroke="#000000"/>
    <path d="m 104,13 v 16" stroke="#000000"/>
    <path d="m 92,13 v 16" stroke="#000000"/>
    <text x="-28" y="99" transform="rotate(-90)" font-size="3.5px">next</text>
    <path d="m 96,13 v 16" stroke="#000000"/>
    <path d="m 100,13 v 16" stroke="#000000"/>
    <path d="m 88,13 v 16" stroke="#000000"/>
    <path d="M 75,13 H 105" stroke="#000000"/>
    <path d="M 105,29 H 75" stroke="#000000"/>
    <path d="m 124,37 0,4" stroke="#000000"/>
    <path d="m 128,37 0,4" stroke="#000000"/>
    <path d="m 20,29 v 4 l 13,0 0,4" fill="none" stroke="#000000" stroke-dasharray="0.8 0.2" marker-end="url(#arrow)"/>
    <path d="m 31,37 v -3 H 13 v 3" fill="none" stroke="#000000" stroke-dasharray="0.8 0.2" marker-end="url(#arrow)"/>
    <path d="M 94,29 94,33 127,33 v 4" fill="none" stroke="#048966" stroke-dasharray="0.8 0.2" marker-end="url(#arrow)"/>
    <path d="m 22,37 h 1.5 l -0.8,2.5 H 24 l -0.5,1.5 H 22 Z" fill="#ebebeb" stroke="#000000"/>
    <path d="M 26,37 H 24.5 L 24,38.5 h 1.3 l -0.8,2.5 H 26 l 0,-4" fill="#ebebeb" stroke="#000000"/>
    <path d="M 6,37 H 4.5 L 4,38.5 H 5.3 L 4.5,41 H 6 v -4" fill="#ebebeb" stroke="#000000"/>
    <path d="m 42,37 h 1.5 l -0.8,2.5 H 44 l -0.5,1.5 H 42 Z" fill="#ebebeb" stroke="#000000"/>
    <rect width="8" height="4" x="84" y="37" fill="#118ab2"/>
    <rect width="8" height="4" x="104" y="37" fill="#118ab2"/>
    <rect width="16" height="4" x="80" y="37" fill="none" stroke="#000000"/>
    <rect width="16" height="4" x="100" y="37" fill="none" stroke="#000000"/>
    <text x="82" y="40" font-size="3.1px" text-anchor="middle">12</text>
    <text x="86" y="40" font-size="3.1px" text-anchor="middle">0</text>
    <text x="94" y="40" font-size="3.1px" text-anchor="middle">2</text>
    <text x="114" y="40" font-size="3.1px" text-anchor="middle">2</text>
    <text x="102" y="40" font-size="3.1px" text-anchor="middle">13</text>
    <text x="122" y="40" font-size="3.1px" text-anchor="middle">18</text>
    <text x="106" y="40" font-size="3.1px" text-anchor="middle">25</text>
    <text x="126" y="40" font-size="3.1px" text-anchor="middle" fill="#ffffff">8</text>
    <path d="m 84,37 0,4" stroke="#000000"/>
    <path d="m 88,37 0,4" stroke="#000000"/>
    <path d="m 92,37 0,4" stroke="#000000"/>
    <path d="m 104,37 0,4" stroke="#000000"/>
    <path d="m 108,37 0,4" stroke="#000000"/>
    <path d="m 112,37 0,4" stroke="#000000"/>
    <path d="m 105,37 v -3 H 87 v 3" fill="none" stroke="#000000" stroke-dasharray="0.8 0.2" marker-end="url(#arrow)"/>
    <path d="m 125,37 v -3 h -18 v 3" fill="none" stroke="#000000" stroke-dasharray="0.8 0.2" marker-end="url(#arrow)"/>
    <path d="m 96,37 h 1.5 L 96.7,39.5 l 1.3,0 -0.5,1.5 h -1.5 z" fill="#ebebeb" stroke="#000000"/>
    <path d="m 100,37 h -1.5 l -0.5,1.5 h 1.3 l -0.8,2.5 H 100 v -4" fill="#ebebeb" stroke="#000000"/>
    <path d="m 80,37 h -1.5 l -0.5,1.5 h 1.3 l -0.8,2.5 h 1.5 v -4" fill="#ebebeb" stroke="#000000"/>
    <path d="m 116,37 h 1.5 l -0.8,2.5 h 1.3 l -0.5,1.5 H 116 Z" fill="#ebebeb" stroke="#000000"/>
    <path d="m 132,37 h 1.5 L 132.7,39.5 h 1.3 l -0.5,1.5 H 132 Z" fill="#ebebeb" stroke="#000000"/>
    <path d="m 120,37 h -1.5 l -0.5,1.5 h 1.3 l -0.8,2.5 h 1.5 v -4" fill="#ebebeb" stroke="#000000"/>
    <rect width="12" height="4" x="120" y="37" fill="none" stroke="#000000"/>
  </g>
</svg>
