<!--
This work is licensed under the Creative Commons Attribution NonCommercial
ShareAlike 4.0 International License. To view a copy of the license, visit
https://creativecommons.org/licenses/by-nc-sa/4.0/
-->
<svg xmlns="http://www.w3.org/2000/svg" width="145mm" height="55mm" viewBox="0 0 145 55" version="1.1">
  <defs>
    <marker id="arrow" orient="auto-start-reverse">
      <path d="M 3,-3 0,0 3,3" transform="rotate(180,0.125,0)" fill="none" stroke="context-stroke"/>
    </marker>
  </defs>
  <g font-family="'Fira Sans'" font-size="3.9px" stroke-width="0.2">
    <rect width="20" height="4" x="2" y="37" fill="none" stroke="#000000"/>
    <rect width="24" height="4" x="46" y="37" fill="none" stroke="#000000"/>
    <rect width="16" height="4" x="26" y="37" fill="none" stroke="#000000"/>
    <text x="4" y="40" font-size="3.1px" text-anchor="middle">f</text>
    <text x="8" y="40" font-size="3.1px" text-anchor="middle">n</text>
    <text x="16" y="40" font-size="3.1px" text-anchor="middle">f</text>
    <text x="28" y="40" font-size="3.1px" text-anchor="middle">:</text>
    <text x="32" y="40" font-size="3.1px" text-anchor="middle">i</text>
    <text x="36" y="40" font-size="3.1px" text-anchor="middle">n</text>
    <text x="52" y="40" font-size="3.1px" text-anchor="middle">:</text>
    <text x="56" y="40" font-size="3.1px" text-anchor="middle">o</text>
    <text x="60" y="40" font-size="3.1px" text-anchor="middle">u</text>
    <text x="64" y="40" font-size="3.1px" text-anchor="middle">t</text>
    <path d="m 6,37 0,4" stroke="#000000"/>
    <path d="m 10,37 0,4" stroke="#000000"/>
    <path d="m 14,37 0,4" stroke="#000000"/>
    <path d="m 18,37 0,4" stroke="#000000"/>
    <path d="m 30,37 0,4" stroke="#000000"/>
    <path d="m 34,37 0,4" stroke="#000000"/>
    <path d="m 38,37 0,4" stroke="#000000"/>
    <path d="m 50,37 0,4" stroke="#000000"/>
    <path d="m 54,37 0,4" stroke="#000000"/>
    <path d="m 58,37 0,4" stroke="#000000"/>
    <path d="m 62,37 0,4" stroke="#000000"/>
    <path d="m 66,37 0,4" stroke="#000000"/>
    <text x="26" y="7">$\it{symbols}$</text>
    <text x="46" y="7">$\it{heap}$</text>
    <text x="120" y="7" fill="#0e6e8e">$\it{symbols}$</text>
    <text x="145" y="7" text-anchor="end" fill="#0e6e8e">$\it{heap}$</text>
    <rect width="20" height="16" x="26" y="13" fill="#cccccc"/>
    <rect width="20" height="16" x="6" y="13" fill="#ebebeb"/>
    <path d="m 70,13 v 16" stroke="#000000"/>
    <path d="m 66,13 v 16" stroke="#000000"/>
    <text x="-28" y="13" transform="rotate(-90)" font-size="3.5px">length=1</text>
    <text x="-28" y="17" transform="rotate(-90)" font-size="3.5px">kind</text>
    <text x="-28" y="21" transform="rotate(-90)" font-size="3.5px">value</text>
    <text x="-28" y="9" transform="rotate(-90)" font-size="3.5px">name</text>
    <text x="-28" y="33" transform="rotate(-90)" font-size="3.5px">length=2</text>
    <text x="-28" y="29" transform="rotate(-90)" font-size="3.5px">name</text>
    <path d="m 10,13 v 16" stroke="#000000"/>
    <path d="m 6,13 v 16" stroke="#000000"/>
    <path d="m 2,13 v 16" stroke="#000000"/>
    <path d="m 30,13 v 16" stroke="#000000"/>
    <path d="m 18,13 v 16" stroke="#000000"/>
    <text x="-28" y="25" transform="rotate(-90)" font-size="3.5px">next=0</text>
    <path d="m 22,13 v 16" stroke="#000000"/>
    <path d="m 26,13 v 16" stroke="#000000"/>
    <path d="m 14,13 v 16" stroke="#000000"/>
    <text x="-28" y="45" transform="rotate(-90)" font-size="3.5px">next</text>
    <text x="-28" y="41" transform="rotate(-90)" font-size="3.5px">value</text>
    <text x="-28" y="37" transform="rotate(-90)" font-size="3.5px">kind</text>
    <path d="m 50,13 v 16" stroke="#000000"/>
    <path d="m 46,13 v 16" stroke="#000000"/>
    <path d="m 42,13 v 16" stroke="#000000"/>
    <path d="m 38,13 v 16" stroke="#000000"/>
    <path d="m 58,13 v 16" stroke="#000000"/>
    <path d="m 62,13 v 16" stroke="#000000"/>
    <path d="m 54,13 v 16" stroke="#000000"/>
    <path d="m 34,13 v 16" stroke="#000000"/>
    <path d="M 44,13 V 10 H 8 v 3" fill="none" stroke="#000000" stroke-dasharray="0.8 0.2" marker-end="url(#arrow)"/>
    <path d="M 1,13 H 71" stroke="#000000"/>
    <path d="M 71,29 H 1" stroke="#000000"/>
    <rect width="20" height="16" x="100" y="13" fill="#cccccc"/>
    <rect width="20" height="16" x="80" y="13" fill="#ebebeb"/>
    <rect width="20" height="16" x="120" y="13" fill="#0e6e8e"/>
    <path d="m 144,13 v 16" stroke="#000000"/>
    <path d="m 140,13 v 16" stroke="#000000"/>
    <text x="-28" y="87" transform="rotate(-90)" font-size="3.5px">length=1</text>
    <text x="-28" y="91" transform="rotate(-90)" font-size="3.5px">kind</text>
    <text x="-28" y="95" transform="rotate(-90)" font-size="3.5px">value</text>
    <text x="-28" y="83" transform="rotate(-90)" font-size="3.5px">name</text>
    <text x="-28" y="107" transform="rotate(-90)" font-size="3.5px">length=2</text>
    <text x="-28" y="103" transform="rotate(-90)" font-size="3.5px">name</text>
    <path d="m 84,13 v 16" stroke="#000000"/>
    <path d="m 80,13 v 16" stroke="#000000"/>
    <path d="m 76,13 v 16" stroke="#000000"/>
    <path d="m 104,13 v 16" stroke="#000000"/>
    <path d="m 92,13 v 16" stroke="#000000"/>
    <text x="-28" y="99" transform="rotate(-90)" font-size="3.5px">next=0</text>
    <path d="m 96,13 v 16" stroke="#000000"/>
    <path d="m 100,13 v 16" stroke="#000000"/>
    <path d="m 88,13 v 16" stroke="#000000"/>
    <text x="-28" y="127" transform="rotate(-90)" font-size="3.5px" fill="#ffffff">length=3</text>
    <text x="-28" y="131" transform="rotate(-90)" font-size="3.5px" fill="#ffffff">kind</text>
    <text x="-28" y="135" transform="rotate(-90)" font-size="3.5px" fill="#ffffff">value</text>
    <text x="-28" y="123" transform="rotate(-90)" font-size="3.5px" fill="#ffffff">name</text>
    <text x="-28" y="119" transform="rotate(-90)" font-size="3.5px">next</text>
    <text x="-28" y="115" transform="rotate(-90)" font-size="3.5px">value</text>
    <text x="-28" y="111" transform="rotate(-90)" font-size="3.5px">kind</text>
    <text x="-28" y="139" transform="rotate(-90)" font-size="3.5px" fill="#ffffff">next</text>
    <path d="m 124,13 v 16" stroke="#000000"/>
    <path d="m 120,13 v 16" stroke="#000000"/>
    <path d="m 116,13 v 16" stroke="#000000"/>
    <path d="m 112,13 v 16" stroke="#000000"/>
    <path d="m 132,13 v 16" stroke="#000000"/>
    <path d="m 136,13 v 16" stroke="#000000"/>
    <path d="m 128,13 v 16" stroke="#000000"/>
    <path d="m 108,13 v 16" stroke="#000000"/>
    <path d="M 75,13 H 145" stroke="#000000"/>
    <path d="M 145,29 H 75" stroke="#000000"/>
    <path d="M 28,8 V 13" stroke="#000000" stroke-dasharray="0.8 0.2" marker-end="url(#arrow)"/>
    <path d="M 122,8 V 13" stroke="#0e6e8e" stroke-dasharray="0.8 0.2" marker-end="url(#arrow)"/>
    <path d="M 48,8 V 13" stroke="#000000" stroke-dasharray="0.8 0.2" marker-end="url(#arrow)"/>
    <path d="M 142,8 V 13" stroke="#0e6e8e" stroke-dasharray="0.8 0.2" marker-end="url(#arrow)"/>
    <path d="M 118,13 V 10 H 82 v 3" fill="none" stroke="#000000" stroke-dasharray="0.8 0.2" marker-end="url(#arrow)"/>
    <path d="M 138,13 V 9 h -36 v 4" fill="none" stroke="#0e6e8e" stroke-dasharray="0.8 0.2" marker-end="url(#arrow)"/>
    <rect width="20" height="4" x="76" y="37" fill="none" stroke="#000000"/>
    <text x="78" y="40" font-size="3.1px" text-anchor="middle">f</text>
    <text x="82" y="40" font-size="3.1px" text-anchor="middle">n</text>
    <text x="90" y="40" font-size="3.1px" text-anchor="middle">f</text>
    <text x="102" y="40" font-size="3.1px" text-anchor="middle">:</text>
    <text x="106" y="40" font-size="3.1px" text-anchor="middle">i</text>
    <text x="110" y="40" font-size="3.1px" text-anchor="middle">n</text>
    <text x="126" y="40" font-size="3.1px" text-anchor="middle">:</text>
    <text x="130" y="40" font-size="3.1px" text-anchor="middle">o</text>
    <text x="134" y="40" font-size="3.1px" text-anchor="middle">u</text>
    <text x="138" y="40" font-size="3.1px" text-anchor="middle">t</text>
    <path d="m 80,37 0,4" stroke="#000000"/>
    <path d="m 84,37 0,4" stroke="#000000"/>
    <path d="m 88,37 0,4" stroke="#000000"/>
    <path d="m 92,37 0,4" stroke="#000000"/>
    <path d="m 104,37 0,4" stroke="#000000"/>
    <path d="m 108,37 0,4" stroke="#000000"/>
    <path d="m 112,37 0,4" stroke="#000000"/>
    <path d="m 124,37 0,4" stroke="#000000"/>
    <path d="m 128,37 0,4" stroke="#000000"/>
    <path d="m 132,37 0,4" stroke="#000000"/>
    <path d="m 136,37 0,4" stroke="#000000"/>
    <path d="m 140,37 0,4" stroke="#000000"/>
    <path d="m 8,29 0,4 h 8 l 0,4" fill="none" stroke="#000000" stroke-dasharray="0.8 0.2" marker-end="url(#arrow)"/>
    <path d="m 28,29 v 4 l 4,0 0,4" fill="none" stroke="#000000" stroke-dasharray="0.8 0.2" marker-end="url(#arrow)"/>
    <path d="m 82,29 v 4 h 8 v 4" fill="none" stroke="#000000" stroke-dasharray="0.8 0.2" marker-end="url(#arrow)"/>
    <path d="m 102,29 v 4 h 4 v 4" fill="none" stroke="#000000" stroke-dasharray="0.8 0.2" marker-end="url(#arrow)"/>
    <path d="m 122,29 v 4 l 8,0 v 4" fill="none" stroke="#0e6e8e" stroke-dasharray="0.8 0.2" marker-end="url(#arrow)"/>
    <path d="m 22,37 h 1.5 l -0.8,2.5 H 24 l -0.5,1.5 H 22 Z" fill="#ebebeb" stroke="#000000"/>
    <path d="M 26,37 H 24.5 L 24,38.5 h 1.3 l -0.8,2.5 H 26 l 0,-4" fill="#ebebeb" stroke="#000000"/>
    <path d="m 42,37 h 1.5 l -0.8,2.5 H 44 l -0.5,1.5 H 42 Z" fill="#ebebeb" stroke="#000000"/>
    <path d="M 46,37 H 44.5 L 44,38.5 h 1.3 l -0.8,2.5 H 46 v -4" fill="#ebebeb" stroke="#000000"/>
    <path d="m 96,37 h 1.5 l -0.8,2.5 H 98 l -0.5,1.5 H 96 Z" fill="#ebebeb" stroke="#000000"/>
    <path d="M 100,37 H 98.5 L 98,38.5 h 1.3 l -0.8,2.5 H 100 v -4" fill="#ebebeb" stroke="#000000"/>
    <path d="m 116,37 h 1.5 l -0.8,2.5 h 1.3 l -0.5,1.5 H 116 Z" fill="#ebebeb" stroke="#000000"/>
    <path d="m 120,37 h -1.5 l -0.5,1.5 h 1.3 l -0.8,2.5 h 1.5 v -4" fill="#ebebeb" stroke="#000000"/>
    <rect width="24" height="4" x="120" y="37" fill="none" stroke="#000000"/>
    <rect width="16" height="4" x="100" y="37" fill="none" stroke="#000000"/>
  </g>
</svg>
