<!--
This work is licensed under the Creative Commons Attribution NonCommercial
ShareAlike 4.0 International License. To view a copy of the license, visit
https://creativecommons.org/licenses/by-nc-sa/4.0/
-->
<svg xmlns="http://www.w3.org/2000/svg" width="145mm" height="60mm" viewBox="0 0 145 60" version="1.1">
  <defs>
    <marker id="arrow" orient="auto-start-reverse">
      <path d="M 3,-3 0,0 3,3" transform="rotate(180,0.125,0)" fill="none" stroke="context-stroke"/>
    </marker>
  </defs>
  <g font-family="'Fira Sans'" font-size="3.9px" stroke-width="0.2">
    <rect width="16" height="20" x="78" y="8" fill="#ebebeb"/>
    <rect width="16" height="10" x="1" y="28" fill="#cccccc"/>
    <rect width="16" height="5" x="1" y="38" fill="#9a9a9a"/>
    <rect width="16" height="15" x="1" y="13" fill="#ebebeb"/>
    <text x="22.5" y="8" text-anchor="middle">ptr 2</text>
    <text x="72.5" y="8" text-anchor="middle">get 1</text>
    <text x="2" y="4" font-size="3.5px">stack</text>
    <text x="9" y="22" text-anchor="middle">v1</text>
    <text x="9" y="27" text-anchor="middle">v0</text>
    <text x="18" y="27">$a$</text>
    <text x="18" y="22">$a-4$</text>
    <text x="18" y="17">$a-8$</text>
    <text x="9" y="17" text-anchor="middle">v2</text>
    <text x="9" y="42" text-anchor="middle">...</text>
    <path d="M 1,6 1,43" stroke="#000000"/>
    <path d="m 17,6 0,37" stroke="#000000"/>
    <path d="M 1,23 H 17" stroke="#000000"/>
    <path d="M 1,38 H 17" stroke="#000000" stroke-width="0.4"/>
    <path d="M 1,28 H 17" stroke="#000000" stroke-width="0.4"/>
    <path d="M 1,18 H 17" stroke="#000000"/>
    <path d="M 1,13 H 17" stroke="#000000"/>
    <rect width="16" height="10" x="28" y="28" fill="#cccccc"/>
    <rect width="16" height="5" x="28" y="38" fill="#9a9a9a"/>
    <rect width="16" height="20" x="28" y="8" fill="#ebebeb"/>
    <text x="36" y="22" text-anchor="middle">v1</text>
    <text x="36" y="27" text-anchor="middle">v0</text>
    <text x="36" y="17" text-anchor="middle">v2</text>
    <text x="36" y="12" text-anchor="middle" fill="#048966">$a-8$</text>
    <text x="36" y="42" text-anchor="middle">...</text>
    <path d="m 28,23 h 16" stroke="#000000"/>
    <path d="m 28,38 h 16" stroke="#000000" stroke-width="0.4"/>
    <path d="m 28,28 h 16" stroke="#000000" stroke-width="0.4"/>
    <path d="m 28,18 h 16" stroke="#000000"/>
    <path d="m 28,13 h 16" stroke="#000000"/>
    <path d="M 28,8 H 44" stroke="#000000"/>
    <path d="M 78,8 H 94" stroke="#000000"/>
    <rect width="16" height="10" x="51" y="28" fill="#cccccc"/>
    <rect width="16" height="5" x="51" y="38" fill="#9a9a9a"/>
    <rect width="16" height="15" x="51" y="13" fill="#ebebeb"/>
    <text x="59" y="22" text-anchor="middle">v1</text>
    <text x="59" y="27" text-anchor="middle">v0</text>
    <text x="59" y="17" text-anchor="middle">v2</text>
    <text x="59" y="42" text-anchor="middle">...</text>
    <path d="M 51,23 H 67" stroke="#000000"/>
    <path d="M 51,38 H 67" stroke="#000000" stroke-width="0.4"/>
    <path d="M 51,28 H 67" stroke="#000000" stroke-width="0.4"/>
    <path d="M 51,18 H 67" stroke="#000000"/>
    <path d="M 51,13 H 67" stroke="#000000"/>
    <rect width="16" height="10" x="78" y="28" fill="#cccccc"/>
    <rect width="16" height="5" x="78" y="38" fill="#9a9a9a"/>
    <text x="86" y="22" text-anchor="middle">v1</text>
    <text x="86" y="27" text-anchor="middle">v0</text>
    <text x="86" y="17" text-anchor="middle">v2</text>
    <text x="86" y="12" text-anchor="middle" fill="#048966">v1</text>
    <text x="86" y="42" text-anchor="middle">...</text>
    <path d="M 78,23 H 94" stroke="#000000"/>
    <path d="M 78,38 H 94" stroke="#000000" stroke-width="0.4"/>
    <path d="M 78,28 H 94" stroke="#000000" stroke-width="0.4"/>
    <path d="M 78,18 H 94" stroke="#000000"/>
    <path d="M 78,13 H 94" stroke="#000000"/>
    <rect width="16" height="10" x="101" y="28" fill="#cccccc"/>
    <rect width="16" height="5" x="101" y="38" fill="#9a9a9a"/>
    <rect width="16" height="20" x="101" y="8" fill="#ebebeb"/>
    <text x="109" y="22" text-anchor="middle">v1</text>
    <text x="109" y="27" text-anchor="middle">v0</text>
    <text x="109" y="17" text-anchor="middle">v2</text>
    <text x="109" y="12" text-anchor="middle">v</text>
    <text x="109" y="42" text-anchor="middle">...</text>
    <path d="m 101,23 h 16" stroke="#000000"/>
    <path d="m 101,38 h 16" stroke="#000000" stroke-width="0.4"/>
    <path d="m 101,28 h 16" stroke="#000000" stroke-width="0.4"/>
    <path d="m 101,18 h 16" stroke="#000000"/>
    <path d="m 101,13 h 16" stroke="#000000"/>
    <path d="m 101,8 h 16" stroke="#000000"/>
    <rect width="16" height="10" x="128" y="28" fill="#cccccc"/>
    <rect width="16" height="5" x="128" y="38" fill="#9a9a9a"/>
    <rect width="16" height="15" x="128" y="13" fill="#ebebeb"/>
    <text x="136" y="27" text-anchor="middle" fill="#048966">v</text>
    <text x="136" y="22" text-anchor="middle">v1</text>
    <text x="136" y="17" text-anchor="middle">v2</text>
    <text x="136" y="42" text-anchor="middle">...</text>
    <text x="9" y="36" text-anchor="middle">...</text>
    <text x="36" y="36" text-anchor="middle">...</text>
    <text x="59" y="36" text-anchor="middle">...</text>
    <text x="86" y="36" text-anchor="middle">...</text>
    <text x="109" y="36" text-anchor="middle">...</text>
    <text x="136" y="36" text-anchor="middle">...</text>
    <path d="m 128,23 h 16" stroke="#000000"/>
    <path d="m 128,38 h 16" stroke="#000000" stroke-width="0.4"/>
    <path d="m 128,28 h 16" stroke="#000000" stroke-width="0.4"/>
    <path d="m 128,18 h 16" stroke="#000000"/>
    <path d="m 128,13 h 16" stroke="#000000"/>
    <path d="M 28,6 V 43" stroke="#000000"/>
    <path d="M 44,6 V 43" stroke="#000000"/>
    <path d="m 18,10 h 9" stroke="#000000" marker-end="url(#arrow)"/>
    <path d="m 118,10 h 9" stroke="#000000" marker-end="url(#arrow)"/>
    <path d="M 51,6 V 43" stroke="#000000"/>
    <path d="M 67,6 V 43" stroke="#000000"/>
    <path d="M 78,6 V 43" stroke="#000000"/>
    <path d="M 94,6 V 43" stroke="#000000"/>
    <path d="M 101,6 V 43" stroke="#000000"/>
    <path d="M 117,6 V 43" stroke="#000000"/>
    <path d="M 128,6 V 43" stroke="#000000"/>
    <path d="M 144,6 V 43" stroke="#000000"/>
    <path d="m 68,10 h 9" stroke="#000000" marker-end="url(#arrow)"/>
    <text x="122.5" y="8" text-anchor="middle">set 0</text>
  </g>
</svg>
