<!--
This work is licensed under the Creative Commons Attribution NonCommercial
ShareAlike 4.0 International License. To view a copy of the license, visit
https://creativecommons.org/licenses/by-nc-sa/4.0/
-->
<svg xmlns="http://www.w3.org/2000/svg" width="145mm" height="60mm" viewBox="0 0 145 60" version="1.1">
  <defs>
    <marker id="arrow" orient="auto-start-reverse">
      <path d="M 3,-3 0,0 3,3" transform="rotate(180,0.125,0)" fill="none" stroke="context-stroke"/>
    </marker>
  </defs>
  <g font-family="'Fira Sans'" font-size="3.9px" stroke-width="0.2">
    <rect width="52" height="5" x="1" y="48" fill="#cccccc"/>
    <rect width="52" height="5" x="82" y="48" fill="#cccccc"/>
    <text x="34" y="39" text-anchor="middle">PUSH R2 R3 LR</text>
    <text x="86" y="39" text-anchor="middle">POP R0 R1 PC</text>
    <text x="15" y="26" text-anchor="end">1234</text>
    <text x="15" y="31" text-anchor="end">...</text>
    <text x="28" y="26">SP</text>
    <text x="17" y="26">$a$</text>
    <text x="69" y="26">$a$</text>
    <text x="69" y="16">$a-8$</text>
    <text x="69" y="21">$a-4$</text>
    <path d="M 1,2 V 32" stroke="#000000"/>
    <path d="M 16,2 V 32" stroke="#000000"/>
    <path d="m 1,27 15,0" stroke="#000000"/>
    <path d="M 1,22 H 16" stroke="#000000"/>
    <path d="M 27,25 H 21" stroke="#000000" marker-end="url(#arrow)"/>
    <text x="119" y="26" text-anchor="end">1234</text>
    <text x="119" y="31" text-anchor="end">...</text>
    <text x="132" y="26">SP</text>
    <text x="121" y="26">$a$</text>
    <path d="M 105,2 V 32" stroke="#000000"/>
    <path d="M 120,2 V 32" stroke="#000000"/>
    <path d="m 105,27 15,0" stroke="#000000"/>
    <path d="M 105,22 H 120" stroke="#000000"/>
    <path d="m 131,25 h -6" stroke="#000000" marker-end="url(#arrow)"/>
    <text x="67" y="26" text-anchor="end">1234</text>
    <text x="67" y="21" text-anchor="end" fill="#048966">19</text>
    <text x="67" y="16" text-anchor="end" fill="#048966">16</text>
    <text x="67" y="11" text-anchor="end" fill="#048966">42</text>
    <text x="67" y="31" text-anchor="end">...</text>
    <text x="89" y="11">SP</text>
    <text x="69" y="11">$a-12$</text>
    <path d="m 53,2 0,30" stroke="#000000"/>
    <path d="m 68,2 0,30" stroke="#000000"/>
    <path d="m 53,27 15,0" stroke="#000000"/>
    <path d="M 53,22 H 68" stroke="#000000"/>
    <path d="M 88,10 H 82" stroke="#000000" marker-end="url(#arrow)"/>
    <path d="M 20,35 H 49" stroke="#000000" marker-end="url(#arrow)"/>
    <path d="m 72,35 h 29" stroke="#000000" marker-end="url(#arrow)"/>
    <path d="M 53,17 H 68" stroke="#000000"/>
    <path d="M 68,12 H 53" stroke="#000000"/>
    <path d="M 53,7 H 68" stroke="#000000"/>
    <rect width="52" height="10" x="1" y="48" fill="none" stroke="#000000"/>
    <text x="4" y="52" text-anchor="middle">R0</text>
    <text x="1" y="46" font-size="3.5px">before push</text>
    <text x="134" y="46" font-size="3.5px" text-anchor="end">after pop</text>
    <text x="10" y="52" text-anchor="middle">R1</text>
    <text x="16" y="52" text-anchor="middle">R2</text>
    <text x="22" y="52" text-anchor="middle">R3</text>
    <text x="30" y="52" text-anchor="middle">...</text>
    <text x="38" y="52" text-anchor="middle">SP</text>
    <text x="38" y="57" text-anchor="middle">$a$</text>
    <text x="44" y="57" text-anchor="middle">19</text>
    <text x="22" y="57" text-anchor="middle">16</text>
    <text x="16" y="57" text-anchor="middle">42</text>
    <text x="10" y="57" text-anchor="middle">27</text>
    <text x="4" y="57" text-anchor="middle">53</text>
    <text x="50" y="57" text-anchor="middle">...</text>
    <text x="50" y="52" text-anchor="middle">PC</text>
    <text x="44" y="52" text-anchor="middle">LR</text>
    <path d="m 47,48 v 10" stroke="#000000"/>
    <path d="m 41,48 v 10" stroke="#000000"/>
    <path d="m 35,48 v 10" stroke="#000000"/>
    <path d="M 53,53 H 1" stroke="#000000"/>
    <path d="M 7,48 V 58" stroke="#000000"/>
    <path d="M 13,48 V 58" stroke="#000000"/>
    <path d="M 19,48 V 58" stroke="#000000"/>
    <path d="M 25,48 V 58" stroke="#000000"/>
    <rect width="52" height="10" x="82" y="48" fill="none" stroke="#000000"/>
    <text x="85" y="52" text-anchor="middle">R0</text>
    <text x="91" y="52" text-anchor="middle">R1</text>
    <text x="97" y="52" text-anchor="middle">R2</text>
    <text x="103" y="52" text-anchor="middle">R3</text>
    <text x="111" y="52" text-anchor="middle">...</text>
    <text x="119" y="52" text-anchor="middle">SP</text>
    <text x="119" y="57" text-anchor="middle">$a$</text>
    <text x="125" y="57" text-anchor="middle">19</text>
    <text x="103" y="57" text-anchor="middle">16</text>
    <text x="97" y="57" text-anchor="middle">42</text>
    <text x="91" y="57" text-anchor="middle" fill="#048966">16</text>
    <text x="85" y="57" text-anchor="middle" fill="#048966">42</text>
    <text x="131" y="57" text-anchor="middle" fill="#048966">18</text>
    <text x="131" y="52" text-anchor="middle">PC</text>
    <text x="125" y="52" text-anchor="middle">LR</text>
    <path d="m 128,48 v 10" stroke="#000000"/>
    <path d="m 122,48 v 10" stroke="#000000"/>
    <path d="m 116,48 v 10" stroke="#000000"/>
    <path d="M 134,53 H 82" stroke="#000000"/>
    <path d="M 88,48 V 58" stroke="#000000"/>
    <path d="M 94,48 V 58" stroke="#000000"/>
    <path d="M 100,48 V 58" stroke="#000000"/>
    <path d="M 106,48 V 58" stroke="#000000"/>
  </g>
</svg>
