<!--
This work is licensed under the Creative Commons Attribution NonCommercial
ShareAlike 4.0 International License. To view a copy of the license, visit
https://creativecommons.org/licenses/by-nc-sa/4.0/
-->
<svg xmlns="http://www.w3.org/2000/svg" width="145mm" height="65mm" viewBox="0 0 145 65" version="1.1">
  <defs>
    <marker id="arrow" orient="auto-start-reverse">
      <path d="M 3,-3 0,0 3,3" transform="rotate(180,0.125,0)" fill="none" stroke="context-stroke"/>
    </marker>
  </defs>
  <g font-family="'Fira Sans'" font-size="3.9px" stroke-width="0.2">
    <rect width="20" height="7" x="20" y="20" fill="#bf3959"/>
    <path d="m 6,20 h 7 l -1,4 H 13 L 12,27 6,27" fill="#ebebeb"/>
    <path d="m 130,20 h 7 l -1,4 H 137 l -1,3 -6,0" fill="#ebebeb"/>
    <rect width="8" height="7" x="40" y="20" fill="#ebebeb"/>
    <path d="m 20,20 h -6 l -1,3 H 14 l -1,4 7,0" fill="#ebebeb"/>
    <rect width="13" height="7" x="48" y="20" fill="#0e6e8e"/>
    <rect width="4" height="7" x="126" y="20" fill="#0e6e8e"/>
    <path d="M 61,20 93,20 92,24 h 1 l -1,3 -31,0" fill="#ebebeb"/>
    <path d="m 126,20 -32,0 -1,3 h 1 l -1,4 33,0" fill="#ebebeb"/>
    <path d="m 93,20 -79,0 -1,3 H 14 L 13,27 92,27 93,24 h -1 z" fill="none" stroke="#000000"/>
    <path d="m 34,20 v 7" stroke="#000000"/>
    <path d="m 32,20 v 7" stroke="#000000"/>
    <path d="m 126,20 v 7" stroke="#000000"/>
    <path d="m 130,20 v 7" stroke="#000000"/>
    <path d="m 20,20 v 7" stroke="#000000"/>
    <path d="m 6,20 v 7" stroke="#000000"/>
    <path d="m 40,20 v 7" stroke="#000000"/>
    <path d="m 48,20 v 7" stroke="#000000"/>
    <path d="m 61,20 v 7" stroke="#000000"/>
    <path d="m 138,20 -1,3 h 1 l -1,4 7,0 V 20 Z" fill="#ebebeb" stroke="#000000"/>
    <text x="-12.020815" y="14.849242" transform="rotate(-45)" font-size="3.5px">80000$_{16}$</text>
    <text x="8.485281" y="35.355339" transform="rotate(-45)" font-size="3.5px">\mmapb</text>
    <text x="11.313708" y="38.183765" transform="rotate(-45)" font-size="3.5px">\mmapc</text>
    <text x="0.70710647" y="27.577166" transform="rotate(-45)" font-size="3.5px">\mmapa</text>
    <text x="20.506096" y="47.376156" transform="rotate(-45)" font-size="3.5px">\mmapd</text>
    <text x="75.660423" y="102.53048" transform="rotate(-45)" font-size="3.5px">\mmape</text>
    <text x="21" y="50" font-size="3.5px" text-anchor="end">Interpreter</text>
    <text x="47" y="42" font-size="3.5px">Clock Driver</text>
    <text x="125" y="42" font-size="3.5px">Main Function</text>
    <path d="m 2,39 v -11" stroke="#000000" stroke-dasharray="0.4 0.4" marker-end="url(#arrow)"/>
    <path d="M 32,47 32,32" stroke="#000000" stroke-dasharray="0.4 0.4"/>
    <path d="m 34,43 0,-9" stroke="#000000" stroke-dasharray="0.4 0.4"/>
    <path d="M 20,47 20,36" stroke="#000000" stroke-dasharray="0.4 0.4"/>
    <path d="m 48,39 0,-5" stroke="#000000" stroke-dasharray="0.4 0.4"/>
    <path d="m 126,39 0,-3" stroke="#000000" stroke-dasharray="0.4 0.4"/>
    <text x="1" y="42" font-size="3.5px">Vector Table</text>
    <text x="31" y="50" font-size="3.5px">Reset handler</text>
    <text x="33" y="46" font-size="3.5px">Hard Fault handler</text>
    <path d="m 3,20 v 7" stroke="#cca752"/>
    <path d="m 4,20 v 7" stroke="#cca752"/>
    <path d="m 5,20 v 7" stroke="#cca752"/>
    <path d="m 33,27 0,9 H 20 v -9" fill="none" stroke="#000000" marker-end="url(#arrow)"/>
    <path d="m 127,27 v 7 l -79,0 v -7" fill="none" stroke="#0e6e8e" marker-end="url(#arrow)"/>
    <path d="m 33,36 93,0 0,-9" fill="none" stroke="#0e6e8e" marker-end="url(#arrow)"/>
    <path d="m 94,20 43,0 -1,4 h 1 l -1,3 -43,0 L 94,23 h -1 z" fill="none" stroke="#000000"/>
    <path d="m 3.5,27 v 5 l 28.5,0 V 27" fill="none" stroke="#cca752" marker-end="url(#arrow)"/>
    <path d="m 5.5,27 v 7 l 28.5,0 0,-7" fill="none" stroke="#cca752" marker-end="url(#arrow)"/>
    <path d="m 2,20 11,0 -1,4 H 13 L 12,27 2,27 Z" fill="none" stroke="#000000"/>
  </g>
</svg>
