<!--
This work is licensed under the Creative Commons Attribution NonCommercial
ShareAlike 4.0 International License. To view a copy of the license, visit
https://creativecommons.org/licenses/by-nc-sa/4.0/
-->
<svg xmlns="http://www.w3.org/2000/svg" width="145mm" height="55mm" viewBox="0 0 145 55" version="1.1">
  <defs>
    <marker id="arrow" orient="auto-start-reverse">
      <path d="M 3,-3 0,0 3,3" transform="rotate(180,0.125,0)" fill="none" stroke="context-stroke"/>
    </marker>
  </defs>
  <g font-family="'Fira Sans'" font-size="3.9px" stroke-width="0.2">
    <path d="m 46,10 h 76" fill-opacity="0.75" stroke="#000000" stroke-width="0.4"/>
    <path d="M 46,30 H 122" fill-opacity="0.75" stroke="#000000" stroke-width="0.4"/>
    <path d="m 15,32 v 2 H 9 V 47 h 4 v -8 h 10 v -7 h -8" fill="#ffd166"/>
    <text x="124" y="24" font-size="3.5px">polarizers</text>
    <text x="124" y="18" font-size="3.5px">electrodes</text>
    <path d="M 60,11 V 23 H 56 V 11 h 4" fill="none" fill-opacity="0.75" stroke="#000000" marker-end="url(#arrow)"/>
    <path d="m 55,24 h 4 V 12 h -4 z" fill="#ebebeb" fill-opacity="0.75" stroke="#000000"/>
    <path d="m 52,27 h 4 l 2,-2 V 13 h -4 l -2,2 z" fill="#41a1c1" fill-opacity="0.75" stroke="#000000"/>
    <path d="M 56,15 V 27" stroke="#000000"/>
    <path d="m 52,15 h 4 l 2,-2" fill="none" stroke="#000000"/>
    <path d="m 51,28 h 4 V 16 h -4 z" fill="#ebebeb" fill-opacity="0.75" stroke="#000000"/>
    <path d="m 53,16 v -2 h -1 v -1 h -2 v 1 h -1" fill="none" fill-opacity="0.75" stroke="#000000" stroke-width="0.4"/>
    <path d="m 54,17 h -4 v 12 h 4 V 17" fill="none" fill-opacity="0.75" stroke="#bf3959" marker-end="url(#arrow)"/>
    <path d="m 50,12 h 2" fill-opacity="0.75" stroke="#000000" stroke-width="0.4"/>
    <path d="M 51,12 V 10" fill-opacity="0.75" stroke="#000000" stroke-width="0.4"/>
    <path d="M 72,11 V 23 H 68 V 11 h 4" fill="none" fill-opacity="0.75" stroke="#000000" marker-end="url(#arrow)"/>
    <path d="m 67,24 h 4 V 12 h -4 z" fill="#ebebeb" fill-opacity="0.75" stroke="#000000"/>
    <path d="m 64,27 h 4 l 2,-2 V 13 h -4 l -2,2 z" fill="#41a1c1" fill-opacity="0.75" stroke="#000000"/>
    <path d="M 68,15 V 27" stroke="#000000"/>
    <path d="m 64,15 h 4 l 2,-2" fill="none" stroke="#000000"/>
    <path d="m 63,28 h 4 V 16 h -4 z" fill="#ebebeb" fill-opacity="0.75" stroke="#000000"/>
    <path d="m 65,16 v -2 h -1 v -1 h -2 v 1 h -1" fill="none" fill-opacity="0.75" stroke="#000000" stroke-width="0.4"/>
    <path d="m 66,17 h -4 v 12 h 4 V 17" fill="none" fill-opacity="0.75" stroke="#048966" marker-end="url(#arrow)"/>
    <path d="m 62,12 h 2" fill-opacity="0.75" stroke="#000000" stroke-width="0.4"/>
    <path d="M 63,12 V 10" fill-opacity="0.75" stroke="#000000" stroke-width="0.4"/>
    <path d="M 84,11 V 23 H 80 V 11 h 4" fill="none" fill-opacity="0.75" stroke="#000000" marker-end="url(#arrow)"/>
    <path d="m 79,24 h 4 V 12 h -4 z" fill="#ebebeb" fill-opacity="0.75" stroke="#000000"/>
    <path d="m 76,27 h 4 l 2,-2 V 13 h -4 l -2,2 z" fill="#41a1c1" fill-opacity="0.75" stroke="#000000"/>
    <path d="M 80,15 V 27" stroke="#000000"/>
    <path d="m 76,15 h 4 l 2,-2" fill="none" stroke="#000000"/>
    <path d="m 75,28 h 4 V 16 h -4 z" fill="#ebebeb" fill-opacity="0.75" stroke="#000000"/>
    <path d="m 77,16 v -2 h -1 v -1 h -2 v 1 h -1" fill="none" fill-opacity="0.75" stroke="#000000" stroke-width="0.4"/>
    <path d="m 78,17 h -4 v 12 h 4 V 17" fill="none" fill-opacity="0.75" stroke="#0e6e8e" marker-end="url(#arrow)"/>
    <path d="m 74,12 h 2" fill-opacity="0.75" stroke="#000000" stroke-width="0.4"/>
    <path d="M 75,12 V 10" fill-opacity="0.75" stroke="#000000" stroke-width="0.4"/>
    <path d="M 96,11 V 23 H 92 V 11 h 4" fill="none" fill-opacity="0.75" stroke="#000000" marker-end="url(#arrow)"/>
    <path d="m 91,24 h 4 V 12 h -4 z" fill="#ebebeb" fill-opacity="0.75" stroke="#000000"/>
    <path d="m 88,27 h 4 l 2,-2 V 13 h -4 l -2,2 z" fill="#41a1c1" fill-opacity="0.75" stroke="#000000"/>
    <path d="M 92,15 V 27" stroke="#000000"/>
    <path d="m 88,15 h 4 l 2,-2" fill="none" stroke="#000000"/>
    <path d="m 87,28 h 4 V 16 h -4 z" fill="#ebebeb" fill-opacity="0.75" stroke="#000000"/>
    <path d="m 89,16 v -2 h -1 v -1 h -2 v 1 h -1" fill="none" fill-opacity="0.75" stroke="#000000" stroke-width="0.4"/>
    <path d="m 90,17 h -4 v 12 h 4 V 17" fill="none" fill-opacity="0.75" stroke="#bf3959" marker-end="url(#arrow)"/>
    <path d="m 86,12 h 2" fill-opacity="0.75" stroke="#000000" stroke-width="0.4"/>
    <path d="M 87,12 V 10" fill-opacity="0.75" stroke="#000000" stroke-width="0.4"/>
    <path d="m 108,11 v 12 h -4 V 11 h 4" fill="none" fill-opacity="0.75" stroke="#000000" marker-end="url(#arrow)"/>
    <path d="m 103,24 h 4 V 12 h -4 z" fill="#ebebeb" fill-opacity="0.75" stroke="#000000"/>
    <path d="m 100,27 h 4 l 2,-2 V 13 h -4 l -2,2 z" fill="#41a1c1" fill-opacity="0.75" stroke="#000000"/>
    <path d="M 104,15 V 27" stroke="#000000"/>
    <path d="m 100,15 h 4 l 2,-2" fill="none" stroke="#000000"/>
    <path d="m 99,28 h 4 V 16 h -4 z" fill="#ebebeb" fill-opacity="0.75" stroke="#000000"/>
    <path d="m 101,16 v -2 h -1 v -1 h -2 v 1 h -1" fill="none" fill-opacity="0.75" stroke="#000000" stroke-width="0.4"/>
    <path d="m 102,17 h -4 v 12 h 4 V 17" fill="none" fill-opacity="0.75" stroke="#048966" marker-end="url(#arrow)"/>
    <path d="m 98,12 h 2" fill-opacity="0.75" stroke="#000000" stroke-width="0.4"/>
    <path d="M 99,12 V 10" fill-opacity="0.75" stroke="#000000" stroke-width="0.4"/>
    <path d="m 120,11 v 12 h -4 V 11 h 4" fill="none" fill-opacity="0.75" stroke="#000000" marker-end="url(#arrow)"/>
    <path d="m 115,24 h 4 V 12 h -4 z" fill="#ebebeb" fill-opacity="0.75" stroke="#000000"/>
    <path d="m 112,27 h 4 l 2,-2 V 13 h -4 l -2,2 z" fill="#41a1c1" fill-opacity="0.75" stroke="#000000"/>
    <path d="M 116,15 V 27" stroke="#000000"/>
    <path d="m 112,15 h 4 l 2,-2" fill="none" stroke="#000000"/>
    <path d="m 111,28 h 4 V 16 h -4 z" fill="#ebebeb" fill-opacity="0.75" stroke="#000000"/>
    <path d="m 113,16 v -2 h -1 v -1 h -2 v 1 h -1" fill="none" fill-opacity="0.75" stroke="#000000" stroke-width="0.4"/>
    <path d="m 114,17 h -4 v 12 h 4 V 17" fill="none" fill-opacity="0.75" stroke="#0e6e8e" marker-end="url(#arrow)"/>
    <path d="m 110,12 h 2" fill-opacity="0.75" stroke="#000000" stroke-width="0.4"/>
    <path d="M 111,12 V 10" fill-opacity="0.75" stroke="#000000" stroke-width="0.4"/>
    <path d="m 60,31 v 12 h -4 V 31 h 4" fill="none" fill-opacity="0.75" stroke="#000000" marker-end="url(#arrow)"/>
    <path d="m 55,44 h 4 V 32 h -4 z" fill="#ebebeb" fill-opacity="0.75" stroke="#000000"/>
    <path d="m 52,47 h 4 l 2,-2 V 33 H 54 l -2,2 z" fill="#41a1c1" fill-opacity="0.75" stroke="#000000"/>
    <path d="M 56,35 V 47" stroke="#000000"/>
    <path d="m 52,35 h 4 l 2,-2" fill="none" stroke="#000000"/>
    <path d="m 51,48 h 4 V 36 H 51 Z" fill="#ebebeb" fill-opacity="0.75" stroke="#000000"/>
    <path d="m 53,36 v -2 h -1 v -1 h -2 v 1 h -1" fill="none" fill-opacity="0.75" stroke="#000000" stroke-width="0.4"/>
    <path d="m 54,37 h -4 v 12 h 4 V 37" fill="none" fill-opacity="0.75" stroke="#bf3959" marker-end="url(#arrow)"/>
    <path d="m 50,32 h 2" fill-opacity="0.75" stroke="#000000" stroke-width="0.4"/>
    <path d="M 51,32 V 30" fill-opacity="0.75" stroke="#000000" stroke-width="0.4"/>
    <path d="m 72,31 v 12 h -4 V 31 h 4" fill="none" fill-opacity="0.75" stroke="#000000" marker-end="url(#arrow)"/>
    <path d="m 67,44 h 4 V 32 h -4 z" fill="#ebebeb" fill-opacity="0.75" stroke="#000000"/>
    <path d="m 64,47 h 4 l 2,-2 V 33 h -4 l -2,2 z" fill="#41a1c1" fill-opacity="0.75" stroke="#000000"/>
    <path d="M 68,35 V 47" stroke="#000000"/>
    <path d="m 64,35 h 4 l 2,-2" fill="none" stroke="#000000"/>
    <path d="m 63,48 h 4 V 36 h -4 z" fill="#ebebeb" fill-opacity="0.75" stroke="#000000"/>
    <path d="m 65,36 v -2 h -1 v -1 h -2 v 1 h -1" fill="none" fill-opacity="0.75" stroke="#000000" stroke-width="0.4"/>
    <path d="m 66,37 h -4 v 12 h 4 V 37" fill="none" fill-opacity="0.75" stroke="#048966" marker-end="url(#arrow)"/>
    <path d="m 62,32 h 2" fill-opacity="0.75" stroke="#000000" stroke-width="0.4"/>
    <path d="M 63,32 V 30" fill-opacity="0.75" stroke="#000000" stroke-width="0.4"/>
    <path d="m 84,31 v 12 h -4 V 31 h 4" fill="none" fill-opacity="0.75" stroke="#000000" marker-end="url(#arrow)"/>
    <path d="m 79,44 h 4 V 32 h -4 z" fill="#ebebeb" fill-opacity="0.75" stroke="#000000"/>
    <path d="m 76,47 h 4 l 2,-2 V 33 h -4 l -2,2 z" fill="#41a1c1" fill-opacity="0.75" stroke="#000000"/>
    <path d="M 80,35 V 47" stroke="#000000"/>
    <path d="m 76,35 h 4 l 2,-2" fill="none" stroke="#000000"/>
    <path d="m 75,48 h 4 V 36 h -4 z" fill="#ebebeb" fill-opacity="0.75" stroke="#000000"/>
    <path d="m 77,36 v -2 h -1 v -1 h -2 v 1 h -1" fill="none" fill-opacity="0.75" stroke="#000000" stroke-width="0.4"/>
    <path d="m 78,37 h -4 v 12 h 4 V 37" fill="none" fill-opacity="0.75" stroke="#0e6e8e" marker-end="url(#arrow)"/>
    <path d="m 74,32 h 2" fill-opacity="0.75" stroke="#000000" stroke-width="0.4"/>
    <path d="M 75,32 V 30" fill-opacity="0.75" stroke="#000000" stroke-width="0.4"/>
    <path d="m 96,31 v 12 h -4 V 31 h 4" fill="none" fill-opacity="0.75" stroke="#000000" marker-end="url(#arrow)"/>
    <path d="m 91,44 h 4 V 32 h -4 z" fill="#ebebeb" fill-opacity="0.75" stroke="#000000"/>
    <path d="m 88,47 h 4 l 2,-2 V 33 h -4 l -2,2 z" fill="#41a1c1" fill-opacity="0.75" stroke="#000000"/>
    <path d="M 92,35 V 47" stroke="#000000"/>
    <path d="m 88,35 h 4 l 2,-2" fill="none" stroke="#000000"/>
    <path d="m 87,48 h 4 V 36 h -4 z" fill="#ebebeb" fill-opacity="0.75" stroke="#000000"/>
    <path d="m 89,36 v -2 h -1 v -1 h -2 v 1 h -1" fill="none" fill-opacity="0.75" stroke="#000000" stroke-width="0.4"/>
    <path d="m 90,37 h -4 v 12 h 4 V 37" fill="none" fill-opacity="0.75" stroke="#bf3959" marker-end="url(#arrow)"/>
    <path d="m 86,32 h 2" fill-opacity="0.75" stroke="#000000" stroke-width="0.4"/>
    <path d="M 87,32 V 30" fill-opacity="0.75" stroke="#000000" stroke-width="0.4"/>
    <rect width="1" height="1" x="96.5" y="29.5" fill="#ffffff" stroke-width="0.4"/>
    <path d="m 108,31 v 12 h -4 V 31 h 4" fill="none" fill-opacity="0.75" stroke="#000000" marker-end="url(#arrow)"/>
    <path d="m 103,44 h 4 V 32 h -4 z" fill="#ebebeb" fill-opacity="0.75" stroke="#000000"/>
    <path d="m 100,47 h 4 l 2,-2 V 33 h -4 l -2,2 z" fill="#41a1c1" fill-opacity="0.75" stroke="#000000"/>
    <path d="M 104,35 V 47" stroke="#000000"/>
    <path d="m 100,35 h 4 l 2,-2" fill="none" stroke="#000000"/>
    <path d="M 99,48 H 103 V 36 h -4 z" fill="#ebebeb" fill-opacity="0.75" stroke="#000000"/>
    <path d="m 101,36 v -2 h -1 v -1 h -2 v 1 h -1" fill="none" fill-opacity="0.75" stroke="#000000" stroke-width="0.4"/>
    <path d="M 102,37 H 98 V 49 H 102 V 37" fill="none" fill-opacity="0.75" stroke="#048966" marker-end="url(#arrow)"/>
    <path d="M 98,32 H 100" fill-opacity="0.75" stroke="#000000" stroke-width="0.4"/>
    <rect width="1" height="1" x="108.5" y="29.5" fill="#ffffff" stroke-width="0.4"/>
    <path d="M 99,32 V 30" fill-opacity="0.75" stroke="#000000" stroke-width="0.4"/>
    <path d="m 120,31 v 12 h -4 V 31 h 4" fill="none" fill-opacity="0.75" stroke="#000000" marker-end="url(#arrow)"/>
    <path d="m 115,44 h 4 V 32 h -4 z" fill="#ebebeb" fill-opacity="0.75" stroke="#000000"/>
    <path d="m 112,47 h 4 l 2,-2 V 33 h -4 l -2,2 z" fill="#41a1c1" fill-opacity="0.75" stroke="#000000"/>
    <path d="M 116,35 V 47" stroke="#000000"/>
    <path d="m 112,35 h 4 l 2,-2" fill="none" stroke="#000000"/>
    <path d="m 111,48 h 4 V 36 h -4 z" fill="#ebebeb" fill-opacity="0.75" stroke="#000000"/>
    <path d="m 113,36 v -2 h -1 v -1 h -2 v 1 h -1" fill="none" fill-opacity="0.75" stroke="#000000" stroke-width="0.4"/>
    <path d="m 114,37 h -4 v 12 h 4 V 37" fill="none" fill-opacity="0.75" stroke="#0e6e8e" marker-end="url(#arrow)"/>
    <path d="m 110,32 h 2" fill-opacity="0.75" stroke="#000000" stroke-width="0.4"/>
    <path d="M 111,32 V 30" fill-opacity="0.75" stroke="#000000" stroke-width="0.4"/>
    <text x="124" y="43" font-size="3.5px">liquid crystal</text>
    <text x="124" y="36" font-size="3.5px">backlight</text>
    <path d="m 123,23 -9,3" fill-opacity="0.75" stroke="#9a9a9a" marker-end="url(#arrow)"/>
    <path d="m 123,17 -8,2" fill-opacity="0.75" stroke="#9a9a9a" marker-end="url(#arrow)"/>
    <path d="m 123,23 -3,-3" fill-opacity="0.75" stroke="#9a9a9a" marker-end="url(#arrow)"/>
    <path d="m 123,42 h -6" fill-opacity="0.75" stroke="#9a9a9a" marker-end="url(#arrow)"/>
    <path d="m 123,17 -4,-2" fill-opacity="0.75" stroke="#9a9a9a" marker-end="url(#arrow)"/>
    <text x="50" y="8">Column $x$</text>
    <text x="2" y="50">40-pin flat cable</text>
    <text x="86" y="8">Column $x+1$</text>
    <text x="124" y="10">Row $y$</text>
    <text x="124" y="30">Row $y+1$</text>
    <path d="m 123,35 -2,2" fill-opacity="0.75" stroke="#ffd166" marker-end="url(#arrow)"/>
    <path d="m 123,33 -2,2" fill-opacity="0.75" stroke="#ffd166" marker-end="url(#arrow)"/>
    <path d="m 123,37 -2,2" fill-opacity="0.75" stroke="#ffd166" marker-end="url(#arrow)"/>
    <rect width="35" height="19" x="49.5" y="30.5" fill="#ffffff" fill-opacity="0.501654" stroke-dasharray="0.2 0.6"/>
    <text x="66.5" y="42" text-anchor="middle">Pixel</text>
    <rect width="34" height="19" x="2" y="13" fill="#ebebeb" stroke="#000000"/>
    <rect width="32" height="17" x="3" y="14" fill="#062f3d" stroke-dasharray="0.2 0.6"/>
    <rect width="7" height="3" x="10" y="35" fill="#9a9a9a"/>
    <rect width="1" height="1" x="30" y="22" fill="none" stroke="#bf3959" stroke-dasharray="0.6 0.2"/>
    <path d="M 30,22 45,7" stroke="#bf3959" stroke-dasharray="0.6 0.2"/>
    <path d="M 30,23 45,51" stroke="#bf3959" stroke-dasharray="0.6 0.2"/>
    <text x="19" y="38">driver circuit</text>
    <text x="7" y="17.5" font-size="3.5px" text-anchor="middle" fill="#ffffff">(0,0)</text>
    <text x="18" y="17" font-size="3.5px" fill="#ffffff">$x$</text>
    <text x="7" y="27" font-size="3.5px" text-anchor="middle" fill="#ffffff">$y$</text>
    <text x="34" y="30" font-size="3.5px" text-anchor="end" fill="#ffffff">(799,479)</text>
    <path d="m 12,16 5,0" fill-opacity="0.501654" stroke="#ffffff" marker-end="url(#arrow)"/>
    <path d="m 7,19 v 5" fill-opacity="0.501654" stroke="#ffffff" marker-end="url(#arrow)"/>
    <rect width="1" height="1" x="48.5" y="9.5" fill="#ffffff" stroke-width="0.4"/>
    <rect width="1" height="1" x="60.5" y="9.5" fill="#ffffff" stroke-width="0.4"/>
    <rect width="1" height="1" x="72.5" y="9.5" fill="#ffffff" stroke-width="0.4"/>
    <rect width="1" height="1" x="84.5" y="9.5" fill="#ffffff" stroke-width="0.4"/>
    <rect width="1" height="1" x="96.5" y="9.5" fill="#ffffff" stroke-width="0.4"/>
    <rect width="1" height="1" x="108.5" y="9.5" fill="#ffffff" stroke-width="0.4"/>
    <rect width="1" height="1" x="48.5" y="29.5" fill="#ffffff" stroke-width="0.4"/>
    <rect width="1" height="1" x="60.5" y="29.5" fill="#ffffff" stroke-width="0.4"/>
    <rect width="1" height="1" x="72.5" y="29.5" fill="#ffffff" stroke-width="0.4"/>
    <rect width="1" height="1" x="84.5" y="29.5" fill="#ffffff" stroke-width="0.4"/>
    <path d="M 49,51 49,7" fill-opacity="0.75" stroke="#000000" stroke-width="0.4"/>
    <path d="M 85,51 85,7" fill-opacity="0.75" stroke="#000000" stroke-width="0.4"/>
    <path d="M 61,51 61,9" fill-opacity="0.75" stroke="#000000" stroke-width="0.4"/>
    <path d="M 73,51 73,9" fill-opacity="0.75" stroke="#000000" stroke-width="0.4"/>
    <path d="M 97,51 97,9" fill-opacity="0.75" stroke="#000000" stroke-width="0.4"/>
    <path d="M 109,51 109,9" fill-opacity="0.75" stroke="#000000" stroke-width="0.4"/>
  </g>
</svg>
