<!--
This work is licensed under the Creative Commons Attribution NonCommercial
ShareAlike 4.0 International License. To view a copy of the license, visit
https://creativecommons.org/licenses/by-nc-sa/4.0/
-->
<svg xmlns="http://www.w3.org/2000/svg" width="145mm" height="65mm" viewBox="0 0 145 65" version="1.1">
  <defs>
    <marker id="arrow" orient="auto-start-reverse">
      <path d="M 3,-3 0,0 3,3" transform="rotate(180,0.125,0)" fill="none" stroke="context-stroke"/>
    </marker>
  </defs>
  <g font-family="'Fira Sans'" font-size="3.9px" stroke-width="0.2">
    <rect width="18" height="7" x="27" y="12" fill="#cca752"/>
    <rect width="8" height="7" x="135" y="12" fill="#048966"/>
    <rect width="90" height="7" x="45" y="12" fill="#ebebeb"/>
    <rect width="26" height="7" x="1" y="12" fill="#bf3959"/>
    <path d="m 27,12 v 7" stroke="#000000"/>
    <path d="m 45,12 v 7" stroke="#000000"/>
    <path d="m 29,12 v 7" stroke="#000000"/>
    <text x="2" y="17" font-size="3.5px">program's code</text>
    <text x="0" y="27" font-size="3.5px">$\mathit{begin}$</text>
    <path d="m 135,12 v 7" stroke="#000000"/>
    <path d="m 119,12 v 7" stroke="#000000" stroke-dasharray="0.8, 0.2"/>
    <rect width="142" height="7" x="1" y="12" fill="none" stroke="#000000"/>
    <path d="M 1,24 V 20" stroke="#000000" stroke-dasharray="0.4, 0.4" marker-end="url(#arrow)"/>
    <text x="144" y="27" font-size="3.5px" text-anchor="end">$\mathit{end}$</text>
    <path d="M 143,24 V 20" stroke="#000000" stroke-dasharray="0.4, 0.4" marker-end="url(#arrow)"/>
    <text x="130" y="17" font-size="3.5px" text-anchor="end">SP</text>
    <text x="120" y="27" font-size="3.5px" text-anchor="end">$\mathit{heap\_limit}$</text>
    <path d="M 119,24 V 20" stroke="#000000" stroke-dasharray="0.4, 0.4" marker-end="url(#arrow)"/>
    <text x="26" y="27" font-size="3.5px">$\mathit{heap}$</text>
    <path d="M 27,24 V 20" stroke="#000000" stroke-dasharray="0.4, 0.4" marker-end="url(#arrow)"/>
    <path d="M 36,24 V 15.5 H 28" fill="none" stroke="#000000" stroke-dasharray="0.4, 0.4" marker-end="url(#arrow)"/>
    <path d="m 135,15.5 h -4" stroke="#000000" stroke-dasharray="0.2, 0.2" marker-end="url(#arrow)"/>
    <path d="M 49,15.5 H 45" stroke="#000000" stroke-dasharray="0.2, 0.2" marker-start="url(#arrow)"/>
    <text x="35" y="27" font-size="3.5px">process arguments</text>
  </g>
</svg>
