<!--
This work is licensed under the Creative Commons Attribution NonCommercial
ShareAlike 4.0 International License. To view a copy of the license, visit
https://creativecommons.org/licenses/by-nc-sa/4.0/
-->
<svg xmlns="http://www.w3.org/2000/svg" width="145mm" height="65mm" viewBox="0 0 145 65" version="1.1">
  <defs>
    <marker id="arrow" orient="auto-start-reverse">
      <path d="M 3,-3 0,0 3,3" transform="rotate(180,0.125,0)" fill="none" stroke="context-stroke"/>
    </marker>
  </defs>
  <g font-family="'Fira Sans'" font-size="3.9px" stroke-width="0.2">
    <rect width="13" height="7" x="117" y="12" fill="#ebebeb"/>
    <rect width="8" height="7" x="135" y="12" fill="#ebebeb"/>
    <rect width="12" height="7" x="30" y="12" fill="#ebebeb"/>
    <rect width="13" height="7" x="72" y="12" fill="#ebebeb"/>
    <rect width="12" height="7" x="105" y="12" fill="#ffda85"/>
    <rect width="15" height="7" x="90" y="12" fill="#f26c8c"/>
    <path d="m 105,12 v 7" stroke="#000000"/>
    <text x="91" y="17" font-size="3.5px">R</text>
    <rect width="10" height="7" x="62" y="12" fill="#ffd166"/>
    <rect width="12" height="7" x="50" y="12" fill="#ef476f"/>
    <path d="m 62,12 v 7" stroke="#000000"/>
    <path d="m 117,12 v 7" stroke="#000000"/>
    <text x="51" y="17" font-size="3.5px">Q</text>
    <rect width="5" height="7" x="130" y="12" fill="#06d6a0"/>
    <path d="m 130,12 v 7" stroke="#000000"/>
    <rect width="5" height="7" x="85" y="12" fill="#05ab80"/>
    <rect width="12" height="7" x="18" y="12" fill="#cca752"/>
    <rect width="8" height="7" x="42" y="12" fill="#048966"/>
    <rect width="17" height="7" x="1" y="12" fill="#bf3959"/>
    <path d="m 18,12 v 7" stroke="#000000"/>
    <path d="m 1,19 v 3" stroke="#000000" stroke-dasharray="0.2 0.2"/>
    <path d="m 90,19 v 3" stroke="#000000" stroke-dasharray="0.2, 0.2"/>
    <path d="m 135,19 v 3" stroke="#000000" stroke-dasharray="0.2, 0.2"/>
    <path d="m 50,12 v 7" stroke="#000000"/>
    <path d="m 90,12 v 7" stroke="#000000"/>
    <rect width="142" height="7" x="1" y="12" fill="none" stroke="#000000"/>
    <text x="2" y="17" font-size="3.5px">P</text>
    <path d="M 50,21 H 1" stroke="#000000" stroke-dasharray="0.4, 0.4" marker-end="url(#arrow)" marker-start="url(#arrow)"/>
    <path d="m 50,19 v 3" stroke="#000000" stroke-dasharray="0.2, 0.2"/>
    <path d="M 90,21 H 50" stroke="#000000" stroke-dasharray="0.4, 0.4" marker-end="url(#arrow)" marker-start="url(#arrow)"/>
    <path d="M 135,21 90,21" stroke="#000000" stroke-dasharray="0.4, 0.4" marker-end="url(#arrow)" marker-start="url(#arrow)"/>
    <path d="m 30,12 v 7" stroke="#000000"/>
    <path d="m 42,12 v 7" stroke="#000000"/>
    <path d="m 85,12 v 7" stroke="#000000"/>
    <path d="m 72,12 v 7" stroke="#000000"/>
    <path d="m 135,12 v 7" stroke="#000000"/>
    <path d="m 130,15.5 h -4" stroke="#000000" stroke-dasharray="0.2, 0.2" marker-end="url(#arrow)"/>
    <path d="m 121,15.5 h -4" stroke="#000000" stroke-dasharray="0.2, 0.2" marker-start="url(#arrow)"/>
  </g>
</svg>
