<!--
This work is licensed under the Creative Commons Attribution NonCommercial
ShareAlike 4.0 International License. To view a copy of the license, visit
https://creativecommons.org/licenses/by-nc-sa/4.0/
-->
<svg xmlns="http://www.w3.org/2000/svg" width="145mm" height="75mm" viewBox="0 0 145 75" version="1.1">
  <defs>
    <marker id="arrow" orient="auto-start-reverse">
      <path d="M 3,-3 0,0 3,3" transform="rotate(180,0.125,0)" fill="none" stroke="context-stroke"/>
    </marker>
  </defs>
  <g font-family="'Fira Sans'" font-size="3.9px" stroke-width="0.2">
    <path d="M 12,32 H 75 L 76,22 H 75 L 76,9 H 12" fill="#ebebeb"/>
    <path d="M 80,32 H 76 L 77,20 H 76 L 77,9 h 3" fill="#ebebeb"/>
    <text x="-31" y="131" transform="rotate(-90)" font-size="3.5px">name\_length</text>
    <text x="-31" y="127" transform="rotate(-90)" font-size="3.5px">name</text>
    <text x="-31" y="123" transform="rotate(-90)" font-size="3.5px">dst</text>
    <text x="-31" y="115" transform="rotate(-90)" font-size="3.5px">status register</text>
    <text x="-31" y="111" transform="rotate(-90)" font-size="3.5px">return address</text>
    <text x="-31" y="107" transform="rotate(-90)" font-size="3.5px">R14</text>
    <path d="M 124,9 V 32" stroke="#000000"/>
    <path d="M 120,9 V 32" stroke="#000000"/>
    <path d="M 112,9 V 32" stroke="#000000"/>
    <path d="M 108,9 V 32" stroke="#000000"/>
    <path d="M 116,9 V 32" stroke="#000000"/>
    <path d="M 128,9 V 32" stroke="#000000"/>
    <path d="M 132,9 V 32" stroke="#000000"/>
    <text x="-31" y="139" transform="rotate(-90)" font-size="3.5px">args\_length</text>
    <text x="-31" y="135" transform="rotate(-90)" font-size="3.5px">args</text>
    <path d="M 136,9 V 32" stroke="#000000"/>
    <path d="M 140,9 V 32" stroke="#000000"/>
    <path d="M 116,34 H 84.1" stroke="#000000" marker-end="url(#arrow)"/>
    <text x="85" y="39">interrupt stack frame</text>
    <path d="m 116,33 v 2" stroke="#000000"/>
    <path d="M 84,34 H 80" stroke="#000000" marker-end="url(#arrow)"/>
    <text x="83" y="39" text-anchor="end">SVC handler</text>
    <path d="m 84,33 v 2" stroke="#000000"/>
    <text x="-31" y="83" transform="rotate(-90)" font-size="3.5px">EXC\_RETURN</text>
    <path d="M 80,9 V 32" stroke="#000000"/>
    <text x="-31" y="91" transform="rotate(-90)" font-size="3.5px">R1=args</text>
    <text x="-31" y="95" transform="rotate(-90)" font-size="3.5px">R2</text>
    <text x="-31" y="99" transform="rotate(-90)" font-size="3.5px">R3</text>
    <text x="-31" y="87" transform="rotate(-90)" font-size="3.5px">R0=0</text>
    <text x="-21" y="142" transform="rotate(-90)" font-size="3.5px" text-anchor="middle">...</text>
    <text x="-21" y="118" transform="rotate(-90)" font-size="3.5px" text-anchor="middle">...</text>
    <path d="M 88,9 V 32" stroke="#000000"/>
    <path d="M 84,9 V 32" stroke="#000000"/>
    <path d="M 96,9 V 32" stroke="#000000"/>
    <text x="-31" y="103" transform="rotate(-90)" font-size="3.5px">R12</text>
    <path d="M 100,9 V 32" stroke="#000000"/>
    <path d="M 104,9 V 32" stroke="#000000"/>
    <path d="M 92,9 V 32" stroke="#000000"/>
    <path d="m 144,9 -67,0 L 76,20 h 1 l -1,12 68,0" fill="none" fill-opacity="0.802963" stroke="#000000"/>
    <path d="M 11,32 H 75 L 76,22 H 75 L 76,9 H 11" fill="none" fill-opacity="0.802963" stroke="#000000"/>
    <path d="m 82,6 v 3" stroke="#000000" marker-end="url(#arrow)"/>
    <text x="82" y="5" text-anchor="middle">SP=MSP</text>
    <circle cx="90" cy="11" r="1"/>
    <path d="M 90,11 V 6 h 32 v 3" fill="none" stroke="#000000" stroke-dasharray="0.8, 0.2" marker-end="url(#arrow)"/>
  </g>
</svg>
