<!--
This work is licensed under the Creative Commons Attribution NonCommercial
ShareAlike 4.0 International License. To view a copy of the license, visit
https://creativecommons.org/licenses/by-nc-sa/4.0/
-->
<svg xmlns="http://www.w3.org/2000/svg" width="145mm" height="75mm" viewBox="0 0 145 75" version="1.1">
  <defs>
    <marker id="arrow" orient="auto-start-reverse">
      <path d="M 3,-3 0,0 3,3" transform="rotate(180,0.125,0)" fill="none" stroke="context-stroke"/>
    </marker>
  </defs>
  <g font-family="'Fira Sans'" font-size="3.9px" stroke-width="0.2">
    <path d="m 2,32 63,0 1,-10 h -1 l 1,-13 -64,0" fill="#ebebeb"/>
    <text x="72" y="5" text-anchor="middle">PSP</text>
    <path d="M 72,6 V 9" stroke="#000000" marker-end="url(#arrow)"/>
    <path d="m 96,32 h 34 l 1,-10 h -1 L 131,9 H 96" fill="#048966"/>
    <path d="m 136,32 h -5 l 1,-12 h -1 l 1,-11 h 4" fill="#ebebeb"/>
    <path d="M 70,32 H 66 L 67,20 H 66 L 67,9 h 3" fill="#ebebeb"/>
    <text x="-31" y="117" transform="rotate(-90)" font-size="3.5px">name\_length</text>
    <rect width="32" height="23" x="70" y="9" fill="#05ab80"/>
    <text x="-31" y="113" transform="rotate(-90)" font-size="3.5px">name</text>
    <text x="-31" y="109" transform="rotate(-90)" font-size="3.5px">dst</text>
    <text x="-31" y="101" transform="rotate(-90)" font-size="3.5px">status register</text>
    <text x="-31" y="97" transform="rotate(-90)" font-size="3.5px">return address</text>
    <text x="-31" y="93" transform="rotate(-90)" font-size="3.5px">R14</text>
    <path d="M 110,9 V 32" stroke="#000000"/>
    <path d="M 106,9 V 32" stroke="#000000"/>
    <path d="M 98,9 V 32" stroke="#000000"/>
    <path d="M 94,9 V 32" stroke="#000000"/>
    <path d="M 102,9 V 32" stroke="#000000"/>
    <path d="M 114,9 V 32" stroke="#000000"/>
    <path d="M 118,9 V 32" stroke="#000000"/>
    <text x="-31" y="125" transform="rotate(-90)" font-size="3.5px">args\_length</text>
    <text x="-31" y="121" transform="rotate(-90)" font-size="3.5px">args</text>
    <path d="M 122,9 V 32" stroke="#000000"/>
    <path d="M 126,9 V 32" stroke="#000000"/>
    <path d="M 102,34 H 70.1" stroke="#000000" marker-end="url(#arrow)"/>
    <text x="102" y="39" text-anchor="end">interrupt stack frame</text>
    <path d="m 102,33 v 2" stroke="#000000"/>
    <path d="m 140,34 h -4" stroke="#000000" marker-end="url(#arrow)"/>
    <text x="140" y="39" text-anchor="end">SVC handler</text>
    <path d="m 140,33 v 2" stroke="#000000"/>
    <text x="-31" y="139" transform="rotate(-90)" font-size="3.5px">EXC\_RETURN</text>
    <path d="M 136,9 V 32" stroke="#000000"/>
    <path d="M 140,9 V 32" stroke="#000000"/>
    <text x="-31" y="77" transform="rotate(-90)" font-size="3.5px">R1=args</text>
    <text x="-31" y="81" transform="rotate(-90)" font-size="3.5px">R2</text>
    <text x="-31" y="85" transform="rotate(-90)" font-size="3.5px">R3</text>
    <text x="-31" y="73" transform="rotate(-90)" font-size="3.5px">R0=0</text>
    <text x="-21" y="143" transform="rotate(-90)" font-size="3.5px" text-anchor="middle">...</text>
    <text x="-21" y="104" transform="rotate(-90)" font-size="3.5px" text-anchor="middle">...</text>
    <text x="-21" y="128" transform="rotate(-90)" font-size="3.5px" text-anchor="middle">...</text>
    <path d="M 74,9 V 32" stroke="#000000"/>
    <path d="M 70,9 V 32" stroke="#000000"/>
    <path d="M 82,9 V 32" stroke="#000000"/>
    <text x="-31" y="89" transform="rotate(-90)" font-size="3.5px">R12</text>
    <path d="M 86,9 V 32" stroke="#000000"/>
    <path d="M 90,9 V 32" stroke="#000000"/>
    <path d="M 78,9 V 32" stroke="#000000"/>
    <path d="m 66,32 h 64 l 1,-10 h -1 L 131,9 H 67 l -1,11 h 1 z" fill="none" fill-opacity="0.802963" stroke="#000000"/>
    <path d="m 1,32 64,0 1,-10 h -1 l 1,-13 -65,0" fill="none" fill-opacity="0.802963" stroke="#000000"/>
    <path d="m 144,9 h -12 l -1,11 h 1 l -1,12 h 13" fill="none" stroke="#000000"/>
    <path d="M 138,6 V 9" stroke="#000000" marker-end="url(#arrow)"/>
    <text x="138" y="5" text-anchor="middle">SP=MSP</text>
    <circle cx="76" cy="11" r="1"/>
    <path d="M 76,11 V 6 h 32 v 3" fill="none" stroke="#000000" stroke-dasharray="0.8, 0.2" marker-end="url(#arrow)"/>
    <path d="m 62,73 h 3 l 1,-10 h -1 l 1,-13 h -4" fill="#ebebeb"/>
    <path d="m 19,73 h 6 l 1,-10 h -1 l 1,-13 H 20 l -1,11 h 1 z" fill="#ebebeb"/>
    <path d="m 15,73 h 3 l 1,-10 h -1 l 1,-13 h -4" fill="#ebebeb"/>
    <path d="m 2,73 h 9 L 12,63 H 11 L 12,50 H 2" fill="#bf3959"/>
    <path d="m 30,73 h -4 l 1,-12 h -1 l 1,-11 h 3" fill="#ebebeb"/>
    <path d="m 15,73 h -3 l 1,-12 h -1 l 1,-11 h 2" fill="#bf3959"/>
    <rect width="32" height="23" x="30" y="50" fill="#06d6a0"/>
    <text x="-72" y="61" transform="rotate(-90)" font-size="3.5px">1{&lt;}{&lt;}24</text>
    <text x="-72" y="57" transform="rotate(-90)" font-size="3.5px">main()</text>
    <text x="-72" y="53" transform="rotate(-90)" font-size="3.5px">0</text>
    <path d="M 58,50 V 73" stroke="#000000"/>
    <path d="M 54,50 V 73" stroke="#000000"/>
    <path d="M 62,50 V 73" stroke="#000000"/>
    <text x="-72" y="37" transform="rotate(-90)" font-size="3.5px">heap\_limit</text>
    <text x="-72" y="33" transform="rotate(-90)" font-size="3.5px">heap</text>
    <path d="M 34,50 V 73" stroke="#000000"/>
    <path d="M 30,50 V 73" stroke="#000000"/>
    <path d="M 42,50 V 73" stroke="#000000"/>
    <path d="M 46,50 V 73" stroke="#000000"/>
    <path d="M 50,50 V 73" stroke="#000000"/>
    <path d="M 38,50 V 73" stroke="#000000"/>
    <circle cx="32" cy="52" r="1"/>
    <circle cx="36" cy="52" r="1"/>
    <circle cx="56" cy="52" r="1"/>
    <path d="M 96,73 H 130 l 1,-10 h -1 l 1,-13 H 96" fill="#048966"/>
    <path d="m 136,73 h -5 l 1,-12 h -1 l 1,-11 h 4" fill="#ebebeb"/>
    <path d="m 70,73 h -4 l 1,-12 h -1 l 1,-11 h 3" fill="#ebebeb"/>
    <text x="-72" y="117" transform="rotate(-90)" font-size="3.5px">name\_length</text>
    <rect width="32" height="23" x="70" y="50" fill="#05ab80"/>
    <text x="-72" y="113" transform="rotate(-90)" font-size="3.5px">name</text>
    <text x="-72" y="109" transform="rotate(-90)" font-size="3.5px">dst</text>
    <text x="-72" y="101" transform="rotate(-90)" font-size="3.5px">status register</text>
    <text x="-72" y="97" transform="rotate(-90)" font-size="3.5px">return address</text>
    <text x="-72" y="93" transform="rotate(-90)" font-size="3.5px">R14</text>
    <path d="M 110,50 V 73" stroke="#000000"/>
    <path d="M 106,50 V 73" stroke="#000000"/>
    <path d="M 98,50 V 73" stroke="#000000"/>
    <path d="M 94,50 V 73" stroke="#000000"/>
    <path d="M 102,50 V 73" stroke="#000000"/>
    <path d="M 114,50 V 73" stroke="#000000"/>
    <path d="M 118,50 V 73" stroke="#000000"/>
    <text x="-72" y="125" transform="rotate(-90)" font-size="3.5px">args\_length</text>
    <text x="-72" y="121" transform="rotate(-90)" font-size="3.5px">args</text>
    <path d="M 122,50 V 73" stroke="#000000"/>
    <path d="M 126,50 V 73" stroke="#000000"/>
    <text x="-72" y="139" transform="rotate(-90)" font-size="3.5px">EXC\_RETURN</text>
    <path d="M 136,50 V 73" stroke="#000000"/>
    <path d="M 140,50 V 73" stroke="#000000"/>
    <text x="-72" y="77" transform="rotate(-90)" font-size="3.5px">R1=args</text>
    <text x="-72" y="81" transform="rotate(-90)" font-size="3.5px">R2</text>
    <text x="-72" y="85" transform="rotate(-90)" font-size="3.5px">R3</text>
    <text x="-72" y="73" transform="rotate(-90)" font-size="3.5px">R0=0</text>
    <text x="-62" y="143" transform="rotate(-90)" font-size="3.5px" text-anchor="middle">...</text>
    <text x="-62" y="104" transform="rotate(-90)" font-size="3.5px" text-anchor="middle">...</text>
    <text x="-62" y="128" transform="rotate(-90)" font-size="3.5px" text-anchor="middle">...</text>
    <path d="M 74,50 V 73" stroke="#000000"/>
    <path d="M 70,50 V 73" stroke="#000000"/>
    <path d="M 82,50 V 73" stroke="#000000"/>
    <text x="-72" y="89" transform="rotate(-90)" font-size="3.5px">R12</text>
    <path d="M 86,50 V 73" stroke="#000000"/>
    <path d="M 90,50 V 73" stroke="#000000"/>
    <path d="M 78,50 V 73" stroke="#000000"/>
    <path d="M 66,73 H 130 l 1,-10 h -1 l 1,-13 H 67 l -1,11 h 1 z" fill="none" fill-opacity="0.802963" stroke="#000000"/>
    <path d="m 26,73 h 39 l 1,-10 h -1 l 1,-13 h -39 l -1,11 h 1 z" fill="none" fill-opacity="0.802963" stroke="#000000"/>
    <path d="m 19,73 h 6 l 1,-10 h -1 l 1,-13 H 20 l -1,11 h 1 z" fill="none" fill-opacity="0.802963" stroke="#000000"/>
    <path d="m 12,73 h 6 l 1,-10 h -1 l 1,-13 h -6 l -1,11 h 1 z" fill="none" fill-opacity="0.802963" stroke="#000000"/>
    <path d="M 1,73 H 11 L 12,63 H 11 L 12,50 H 1" fill="none" fill-opacity="0.802963" stroke="#000000"/>
    <path d="m 144,50 h -12 l -1,11 h 1 l -1,12 h 13" fill="none" stroke="#000000"/>
    <path d="m 138,47 v 3" stroke="#000000" marker-end="url(#arrow)"/>
    <text x="138" y="46" text-anchor="middle">SP=MSP</text>
    <circle cx="76" cy="52" r="1"/>
    <path d="M 76,52 V 47 H 108 v 3" fill="none" stroke="#000000" stroke-dasharray="0.8, 0.2" marker-end="url(#arrow)"/>
    <path d="M 32,52 V 45 H 15 v 5" fill="none" stroke="#000000" stroke-dasharray="0.8, 0.2" marker-end="url(#arrow)"/>
    <path d="M 56,52 V 42 H 2 v 8" fill="none" stroke="#000000" stroke-dasharray="0.8, 0.2" marker-end="url(#arrow)"/>
    <path d="M 36,52 V 47 H 23 v 3" fill="none" stroke="#000000" stroke-dasharray="0.8, 0.2" marker-end="url(#arrow)"/>
    <path d="M 2,50 V 73" stroke="#000000"/>
    <path d="M 23,50 V 73" stroke="#000000" stroke-dasharray="0.8, 0.2"/>
    <path d="M 15,50 V 73" stroke="#000000"/>
    <text x="1" y="80" font-size="3.5px">$\mathit{begin}$</text>
    <path d="M 2,77 V 74" stroke="#000000" stroke-dasharray="0.4, 0.4" marker-end="url(#arrow)"/>
    <text x="63" y="80" font-size="3.5px" text-anchor="end">$\mathit{end}$</text>
    <path d="M 62,77 V 74" stroke="#000000" stroke-dasharray="0.4, 0.4" marker-end="url(#arrow)"/>
    <path d="m 39,45 h -6 v 5" fill="none" stroke="#000000" marker-end="url(#arrow)"/>
    <text x="40" y="46">PSP</text>
  </g>
</svg>
