<!--
This work is licensed under the Creative Commons Attribution NonCommercial
ShareAlike 4.0 International License. To view a copy of the license, visit
https://creativecommons.org/licenses/by-nc-sa/4.0/
-->
<svg xmlns="http://www.w3.org/2000/svg" width="145mm" height="55mm" viewBox="0 0 145 55" version="1.1">
  <defs>
    <marker id="arrow" orient="auto-start-reverse">
      <path d="M 3,-3 0,0 3,3" transform="rotate(180,0.125,0)" fill="none" stroke="context-stroke"/>
    </marker>
  </defs>
  <g font-family="'Fira Sans'" font-size="3.9px" stroke-width="0.2">
    <path d="m 124,15 c 0,0 -6,0 -12,3 -6,3 -9,9 -9,9" fill="none" stroke="#000000" marker-start="url(#arrow)"/>
    <path d="m 128,15 c 0,0 -3,6 -9,9 -6,3 -12,3 -12,3" fill="none" stroke="#000000" marker-end="url(#arrow)"/>
    <path d="m 124,39 c 0,0 -6,0 -12,-3 -6,-3 -9,-9 -9,-9" fill="none" stroke="#000000" marker-start="url(#arrow)"/>
    <path d="m 128,39 c 0,0 -3,-6 -9,-9 -6,-3 -12,-3 -12,-3" fill="none" stroke="#000000" marker-end="url(#arrow)"/>
    <path d="m 103,27 c 0,0 -10,-5 -10,0 0,5 6.4,1.8 6.4,1.8" fill="none" stroke="#000000" marker-end="url(#arrow)"/>
    <path d="m 128,39 c 0,0 5,-6 5,-12 0,-6 -2,-9 -2,-9" fill="none" stroke="#000000" marker-end="url(#arrow)"/>
    <circle cx="128" cy="15" r="4" fill="#ebebeb" stroke="#000000"/>
    <circle cx="128" cy="39" r="4" fill="#ebebeb" stroke="#000000"/>
    <rect width="8" height="4" x="87" y="23" fill="#41a1c1"/>
    <text x="91" y="26" font-size="3.5px" text-anchor="middle">other</text>
    <rect width="8" height="4" x="87" y="27" fill="#ffffff"/>
    <text x="91" y="30" font-size="3.5px" text-anchor="middle">$c(x)$</text>
    <path d="m 87,27 h 8" stroke="#000000"/>
    <circle cx="103" cy="27" r="4" fill="#ebebeb" stroke="#000000"/>
    <text x="103" y="28" text-anchor="middle">0</text>
    <text x="128" y="16" text-anchor="middle">1</text>
    <text x="128" y="40" text-anchor="middle">2</text>
    <rect width="8" height="4" x="107" y="15" fill="#41a1c1"/>
    <text x="111" y="18" font-size="3.5px" text-anchor="middle">F0</text>
    <rect width="8" height="4" x="107" y="19" fill="#ffffff"/>
    <text x="111" y="22" font-size="3.5px" text-anchor="middle">$\emptyset$</text>
    <path d="m 107,19 h 8" stroke="#000000"/>
    <rect width="8" height="4" x="129" y="23" fill="#41a1c1"/>
    <text x="133" y="26" font-size="3.5px" text-anchor="middle">F0</text>
    <rect width="8" height="4" x="129" y="27" fill="#ffffff"/>
    <text x="133" y="30" font-size="3.5px" text-anchor="middle">$\emptyset$</text>
    <path d="m 129,27 h 8" stroke="#000000"/>
    <rect width="8" height="4" x="116" y="19" fill="#41a1c1"/>
    <text x="120" y="22" font-size="3.5px" text-anchor="middle">other</text>
    <rect width="8" height="4" x="116" y="23" fill="#ffffff"/>
    <text x="120" y="26" font-size="3.5px" text-anchor="middle">$\emptyset$</text>
    <path d="m 116,23 h 8" stroke="#000000"/>
    <rect width="8" height="4" x="116" y="28" fill="#41a1c1"/>
    <text x="120" y="31" font-size="3.5px" text-anchor="middle">other</text>
    <rect width="8" height="4" x="116" y="32" fill="#ffffff"/>
    <text x="120" y="35" font-size="3.5px" text-anchor="middle">$e(x)$</text>
    <path d="m 116,32 h 8" stroke="#000000"/>
    <rect width="8" height="8" x="87" y="23" fill="none" stroke="#000000"/>
    <rect width="8" height="8" x="129" y="23" fill="none" stroke="#000000"/>
    <rect width="8" height="8" x="116" y="19" fill="none" stroke="#000000"/>
    <rect width="8" height="8" x="116" y="28" fill="none" stroke="#000000"/>
    <rect width="8" height="8" x="107" y="15" fill="none" stroke="#000000"/>
    <rect width="8" height="4" x="107" y="31" fill="#41a1c1"/>
    <text x="111" y="34" font-size="3.5px" text-anchor="middle">E0</text>
    <rect width="8" height="4" x="107" y="35" fill="#ffffff"/>
    <text x="111" y="38" font-size="3.5px" text-anchor="middle">$\emptyset$</text>
    <path d="m 107,35 h 8" stroke="#000000"/>
    <rect width="8" height="8" x="107" y="31" fill="none" stroke="#000000"/>
  </g>
</svg>
