<!--
This work is licensed under the Creative Commons Attribution NonCommercial
ShareAlike 4.0 International License. To view a copy of the license, visit
https://creativecommons.org/licenses/by-nc-sa/4.0/
-->
<svg xmlns="http://www.w3.org/2000/svg" width="145mm" height="55mm" viewBox="0 0 145 55" version="1.1">
  <defs>
    <marker id="arrow" orient="auto-start-reverse">
      <path d="M 3,-3 0,0 3,3" transform="rotate(180,0.125,0)" fill="none" stroke="context-stroke"/>
    </marker>
  </defs>
  <g font-family="'Fira Sans'" font-size="3.9px" stroke-width="0.2">
    <path d="m 86.8,31.6 c 0,0 8.2,15.4 32.2,15.4 21,0 21,-5 21,-5" fill="none" stroke="#000000" marker-start="url(#arrow)"/>
    <path d="m 40,28 c 0,0 -4,-12 0,-12 4,0 1,8 1,8" fill="none" stroke="#000000" marker-end="url(#arrow)"/>
    <path d="m 86,28 c 0,0 -15,-6 -15,0 0,6 11,1 11,1" fill="none" stroke="#000000" marker-end="url(#arrow)"/>
    <path d="m 86,28 c 0,0 -6,-16 -11,-11 -5,5 7.7,8.5 7.7,8.5" fill="none" stroke="#000000" marker-end="url(#arrow)"/>
    <path d="m 86,28 c 0,0 -6,16 -11,11 -5,-5 8,-8.7 8,-8.7" fill="none" stroke="#000000" marker-end="url(#arrow)"/>
    <rect width="6" height="4" x="37" y="14" fill="#ffffff"/>
    <path d="m 6,28 c 0,0 -4,-12 0,-12 4,0 1,8 1,8" fill="none" stroke="#000000" marker-end="url(#arrow)"/>
    <circle cx="6" cy="28" r="4" fill="#ebebeb" stroke="#000000"/>
    <rect width="6" height="4" x="3" y="14" fill="#ffffff"/>
    <path d="M 36,28 H 10" stroke="#000000" marker-start="url(#arrow)"/>
    <path d="m 137,11 c 0,0 -23,-2 -36,-2 -13,0 -15,19 -15,19" fill="none" stroke="#000000" marker-start="url(#arrow)"/>
    <path d="m 88.2,24.3 c 0,0 9.8,-5.4 30.8,-5.4 21,0 21,-5 21,-5" fill="none" stroke="#000000" marker-start="url(#arrow)"/>
    <path d="m 89.5,29.6 c 0,0 8.5,3.4 29.5,3.4 21,0 21,-5 21,-5" fill="none" stroke="#000000" marker-start="url(#arrow)"/>
    <path d="m 136.7,39.4 c 0,0 -24.8,-2.5 -35.7,-2.4 -10.9,0.1 -15,-9 -15,-9" fill="none" stroke="#000000" marker-start="url(#arrow)"/>
    <path d="m 136.7,25.4 c 0,0 -24.8,-2.3 -35.7,-2.4 -10.9,0 -15,5 -15,5" fill="none" stroke="#000000" marker-start="url(#arrow)"/>
    <path d="M 40,28 C 40,28 32.6,42 23,42 14,42 8,31.1 8,31.1" fill="none" stroke="#000000" marker-end="url(#arrow)"/>
    <circle cx="40" cy="28" r="4" fill="#ebebeb" stroke="#000000"/>
    <text x="6" y="29" text-anchor="middle">0</text>
    <circle cx="86" cy="28" r="4" fill="#ebebeb" stroke="#000000"/>
    <text x="86" y="29" text-anchor="middle">0</text>
    <text x="40" y="29" text-anchor="middle">1</text>
    <circle cx="140" cy="28" r="4" fill="#ebebeb" stroke="#000000"/>
    <text x="140" y="29" text-anchor="middle">2</text>
    <circle cx="140" cy="14" r="4" fill="#ebebeb" stroke="#000000"/>
    <text x="140" y="15" text-anchor="middle">1</text>
    <circle cx="140" cy="42" r="4" fill="#ebebeb" stroke="#000000"/>
    <text x="140" y="43" text-anchor="middle">4</text>
    <rect width="12" height="4" x="98" y="8" fill="#41a1c1"/>
    <text x="104" y="11" font-size="3.5px" text-anchor="middle">$v(${\tt cst8}$)$</text>
    <rect width="12" height="4" x="98" y="12" fill="#ffffff"/>
    <text x="104" y="15" font-size="3.5px" text-anchor="middle">02</text>
    <path d="M 98,12 110,12" stroke="#000000"/>
    <rect width="12" height="8" x="98" y="8" fill="none" stroke="#000000"/>
    <rect width="12" height="4" x="98" y="22" fill="#41a1c1"/>
    <text x="104" y="25" font-size="3.5px" text-anchor="middle">$v(${\tt iflt}$)$</text>
    <rect width="12" height="4" x="98" y="26" fill="#ffffff"/>
    <text x="104" y="29" font-size="3.5px" text-anchor="middle">0C</text>
    <path d="M 98,26 H 110" stroke="#000000"/>
    <rect width="12" height="8" x="98" y="22" fill="none" stroke="#000000"/>
    <rect width="12" height="4" x="116" y="40" fill="#41a1c1"/>
    <text x="122" y="43" font-size="3.5px" text-anchor="middle">$v$</text>
    <rect width="12" height="4" x="116" y="44" fill="#ffffff"/>
    <text x="122" y="47" font-size="3.5px" text-anchor="middle">{\tt word}$(v)$</text>
    <path d="m 116,44 h 12" stroke="#000000"/>
    <rect width="12" height="8" x="116" y="40" fill="none" stroke="#000000"/>
    <rect width="12" height="4" x="116" y="12" fill="#41a1c1"/>
    <text x="122" y="15" font-size="3.5px" text-anchor="middle">$v$</text>
    <rect width="12" height="4" x="116" y="16" fill="#ffffff"/>
    <text x="122" y="19" font-size="3.5px" text-anchor="middle">{\tt byte}$(v)$</text>
    <path d="m 116,16 h 12" stroke="#000000"/>
    <rect width="12" height="8" x="116" y="12" fill="none" stroke="#000000"/>
    <rect width="12" height="4" x="116" y="26" fill="#41a1c1"/>
    <text x="122" y="29" font-size="3.5px" text-anchor="middle">$v$</text>
    <rect width="12" height="4" x="116" y="30" fill="#ffffff"/>
    <text x="122" y="33" font-size="3.5px" text-anchor="middle">{\tt half}$(v)$</text>
    <path d="M 116,30 128,30" stroke="#000000"/>
    <rect width="12" height="8" x="116" y="26" fill="none" stroke="#000000"/>
    <rect width="6" height="4" x="3" y="10" fill="#41a1c1"/>
    <text x="6" y="13" font-size="3.5px" text-anchor="middle">\vsp</text>
    <text x="6" y="17" font-size="3.5px" text-anchor="middle">$\emptyset$</text>
    <path d="M 3,14 H 9" stroke="#000000"/>
    <rect width="6" height="8" x="3" y="10" fill="none" stroke="#000000"/>
    <rect width="14" height="4" x="16" y="38" fill="#41a1c1"/>
    <text x="23" y="41" font-size="3.5px" text-anchor="middle">\vsp</text>
    <text x="23" y="45" font-size="3.5px" text-anchor="middle">output $v$</text>
    <path d="M 16,42 H 30" stroke="#000000"/>
    <rect width="14" height="8" x="16" y="38" fill="none" stroke="#000000"/>
    <rect width="28" height="4" x="18" y="10" fill="#41a1c1"/>
    <text x="32" y="13" font-size="3.5px" text-anchor="middle">$c\ne\vsp$</text>
    <text x="32" y="17" font-size="3.5px" text-anchor="middle">$v\leftarrow 10v+c-48$</text>
    <path d="M 18,14 H 46" stroke="#000000"/>
    <rect width="28" height="8" x="18" y="10" fill="none" stroke="#000000"/>
    <rect width="18" height="4" x="14" y="24" fill="#41a1c1"/>
    <text x="23" y="27" font-size="3.5px" text-anchor="middle">$c\ne\vsp$</text>
    <text x="23" y="31" font-size="3.5px" text-anchor="middle">$v\leftarrow c-48$</text>
    <path d="M 14,28 H 32" stroke="#000000"/>
    <rect width="18" height="8" x="14" y="24" fill="none" stroke="#000000"/>
    <rect width="12" height="4" x="98" y="36" fill="#41a1c1"/>
    <text x="104" y="39" font-size="3.5px" text-anchor="middle">$v(${\tt cst}$)$</text>
    <rect width="12" height="4" x="98" y="40" fill="#ffffff"/>
    <text x="104" y="43" font-size="3.5px" text-anchor="middle">03</text>
    <path d="m 98,40 12,0" stroke="#000000"/>
    <rect width="12" height="8" x="98" y="36" fill="none" stroke="#000000"/>
    <rect width="12" height="4" x="63" y="24" fill="#41a1c1"/>
    <text x="69" y="27" font-size="3.5px" text-anchor="middle">$v(${\tt sub}$)$</text>
    <rect width="12" height="4" x="63" y="28" fill="#ffffff"/>
    <text x="69" y="31" font-size="3.5px" text-anchor="middle">05</text>
    <path d="m 63,28 12,0" stroke="#000000"/>
    <rect width="12" height="8" x="63" y="24" fill="none" stroke="#000000"/>
    <rect width="12" height="4" x="66" y="13" fill="#41a1c1"/>
    <text x="72" y="16" font-size="3.5px" text-anchor="middle">$v(${\tt add}$)$</text>
    <rect width="12" height="4" x="66" y="17" fill="#ffffff"/>
    <text x="72" y="20" font-size="3.5px" text-anchor="middle">04</text>
    <path d="m 66,17 12,0" stroke="#000000"/>
    <rect width="12" height="8" x="66" y="13" fill="none" stroke="#000000"/>
    <rect width="12" height="4" x="66" y="35" fill="#41a1c1"/>
    <text x="72" y="38" font-size="3.5px" text-anchor="middle">$v($...$)$</text>
    <rect width="12" height="4" x="66" y="39" fill="#ffffff"/>
    <text x="72" y="42" font-size="3.5px" text-anchor="middle">...</text>
    <path d="m 66,39 12,0" stroke="#000000"/>
    <rect width="12" height="8" x="66" y="35" fill="none" stroke="#000000"/>
  </g>
</svg>
