<!--
This work is licensed under the Creative Commons Attribution NonCommercial
ShareAlike 4.0 International License. To view a copy of the license, visit
https://creativecommons.org/licenses/by-nc-sa/4.0/
-->
<svg xmlns="http://www.w3.org/2000/svg" width="145mm" height="55mm" viewBox="0 0 145 55" version="1.1">
  <defs>
    <marker id="arrow" orient="auto-start-reverse">
      <path d="M 3,-3 0,0 3,3" transform="rotate(180,0.125,0)" fill="none" stroke="context-stroke"/>
    </marker>
  </defs>
  <g font-family="'Fira Sans'" font-size="3.9px" stroke-width="0.2">
    <rect width="16" height="4" x="1" y="42" fill="#cccccc"/>
    <rect width="4" height="4" x="77" y="42" fill="#ebebeb"/>
    <rect width="16" height="14" x="22" y="14" fill="none" stroke="#000000"/>
    <rect width="80" height="4" x="1" y="42" fill="none" stroke="#000000"/>
    <text x="48" y="25" font-size="3.1px" text-anchor="middle">returns</text>
    <text x="48" y="28" font-size="3.1px" text-anchor="middle">tokens</text>
    <text x="48" y="19" font-size="3.1px" text-anchor="middle">calls</text>
    <text x="88" y="20" font-size="3.1px" text-anchor="middle">calls</text>
    <path d="M 78,21 H 98" stroke="#000000" marker-end="url(#arrow)"/>
    <path d="M 38,22 H 58" stroke="#000000" marker-end="url(#arrow)"/>
    <path d="M 38,20 H 58" stroke="#000000" marker-start="url(#arrow)"/>
    <rect width="20" height="14" x="58" y="14" fill="none" stroke="#000000"/>
    <rect width="20" height="14" x="98" y="14" fill="none" stroke="#000000"/>
    <text x="30" y="22" text-anchor="middle">Scanner</text>
    <text x="19" y="45" font-size="3.1px" text-anchor="middle">f</text>
    <text x="7" y="45" font-size="3.1px" text-anchor="middle">0</text>
    <text x="11" y="45" font-size="3.1px" text-anchor="middle">0</text>
    <text x="15" y="45" font-size="3.1px" text-anchor="middle">0</text>
    <text x="3" y="45" font-size="3.1px" text-anchor="middle">15</text>
    <text x="23" y="45" font-size="3.1px" text-anchor="middle">n</text>
    <text x="31" y="45" font-size="3.1px" text-anchor="middle">0</text>
    <text x="39" y="45" font-size="3.1px" text-anchor="middle">c</text>
    <text x="43" y="45" font-size="3.1px" text-anchor="middle">s</text>
    <text x="47" y="45" font-size="3.1px" text-anchor="middle">t</text>
    <text x="51" y="45" font-size="3.1px" text-anchor="middle">\_</text>
    <text x="55" y="45" font-size="3.1px" text-anchor="middle">1</text>
    <text x="63" y="45" font-size="3.1px" text-anchor="middle">r</text>
    <text x="67" y="45" font-size="3.1px" text-anchor="middle">e</text>
    <text x="71" y="45" font-size="3.1px" text-anchor="middle">t</text>
    <text x="75" y="45" font-size="3.1px" text-anchor="middle">v</text>
    <text x="68" y="22" text-anchor="middle">Parser</text>
    <text x="108" y="22" text-anchor="middle">Backend</text>
    <path d="m 17,42 v 4" stroke="#000000"/>
    <path d="m 13,42 v 4" stroke="#000000"/>
    <path d="m 9,42 v 4" stroke="#000000"/>
    <path d="m 5,42 v 4" stroke="#000000"/>
    <path d="m 21,42 0,4" stroke="#000000"/>
    <path d="m 25,42 0,4" stroke="#000000"/>
    <path d="m 29,42 0,4" stroke="#000000"/>
    <path d="m 33,42 0,4" stroke="#000000"/>
    <path d="m 37,42 0,4" stroke="#000000"/>
    <path d="m 41,42 0,4" stroke="#000000"/>
    <path d="m 45,42 0,4" stroke="#000000"/>
    <path d="m 49,42 0,4" stroke="#000000"/>
    <path d="m 53,42 0,4" stroke="#000000"/>
    <path d="m 57,42 0,4" stroke="#000000"/>
    <path d="m 61,42 0,4" stroke="#000000"/>
    <path d="m 65,42 0,4" stroke="#000000"/>
    <path d="m 69,42 0,4" stroke="#000000"/>
    <path d="m 73,42 0,4" stroke="#000000"/>
    <path d="m 77,42 0,4" stroke="#000000"/>
    <text x="4" y="40">$\it{src\_buffer}$</text>
    <text x="78" y="40" text-anchor="end">$src\_end$</text>
    <text x="58" y="40" text-anchor="end">$src$</text>
    <rect width="16" height="4" x="98" y="42" fill="#cccccc"/>
    <rect width="36" height="4" x="98" y="42" fill="none" stroke="#000000"/>
    <text x="116" y="45" font-size="3.1px" text-anchor="middle">25</text>
    <text x="120" y="45" font-size="3.1px" text-anchor="middle">0</text>
    <text x="124" y="45" font-size="3.1px" text-anchor="middle">1</text>
    <path d="m 114,42 v 4" stroke="#000000"/>
    <path d="m 110,42 v 4" stroke="#000000"/>
    <path d="m 106,42 v 4" stroke="#000000"/>
    <path d="m 102,42 v 4" stroke="#000000"/>
    <path d="m 118,42 0,4" stroke="#000000"/>
    <path d="m 122,42 0,4" stroke="#000000"/>
    <path d="m 126,42 0,4" stroke="#000000"/>
    <path d="m 130,42 0,4" stroke="#000000"/>
    <text x="101" y="40">$\it{dst\_buffer}$</text>
    <text x="129" y="40">$dst$</text>
    <path d="m 24,28 0,5 H 3 l 0,9" fill="none" stroke="#000000" marker-end="url(#arrow)" stroke-dasharray="0.8 0.2"/>
    <path d="m 36,28 0,5 h 43 l 0,9" fill="none" stroke="#000000" marker-end="url(#arrow)" stroke-dasharray="0.8 0.2"/>
    <path d="m 100,28 0,14" stroke="#000000" stroke-dasharray="0.8 0.2" marker-end="url(#arrow)"/>
    <path d="m 116,28 0,5 12,0 v 9" fill="none" stroke="#000000" stroke-dasharray="0.8 0.2" marker-end="url(#arrow)"/>
    <path d="m 30,28 0,7 h 29 l 0,7" fill="none" stroke="#000000" marker-end="url(#arrow)" stroke-dasharray="0.8 0.2"/>
  </g>
</svg>
