<!--
This work is licensed under the Creative Commons Attribution NonCommercial
ShareAlike 4.0 International License. To view a copy of the license, visit
https://creativecommons.org/licenses/by-nc-sa/4.0/
-->
<svg xmlns="http://www.w3.org/2000/svg" width="128mm" height="118mm" viewBox="0 0 128 118" version="1.1">
  <defs>
    <marker id="arrow" orient="auto-start-reverse">
      <path d="M 3,-3 0,0 3,3" transform="rotate(180,0.125,0)" fill="none" stroke="context-stroke"/>
    </marker>
  </defs>
  <g font-family="'Fira Sans'" font-size="3.9px" stroke-width="0.2">
    <rect width="7" height="16" x="16" y="3" fill="#ebebeb" stroke="#000000"/>
    <rect width="14" height="16" x="98" y="3" fill="#ebebeb" stroke="#000000"/>
    <rect width="14" height="16" x="82" y="3" fill="#ebebeb" stroke="#000000"/>
    <rect width="14" height="16" x="66" y="3" fill="#ebebeb" stroke="#000000"/>
    <rect width="14" height="16" x="50" y="3" fill="#ebebeb" stroke="#000000"/>
    <path d="m 34,8.5 -1,1.5 v -1 h -10 v -1 h 10 l 0,-1 z" fill="#cccccc" stroke-width="0.6"/>
    <path d="M 50,13.5 49,15 V 14 H 32 v -1 h 17 l 0,-1 z" fill="#cccccc" stroke-width="0.6"/>
    <rect width="2" height="88" x="63" y="24" fill="#cccccc" stroke-width="0.0"/>
    <path d="M 72,44 V 34 h -32 v 6" fill="none" stroke="#ef476f" marker-end="url(#arrow)"/>
    <path d="M 73,52 V 33 h -34 v 7" fill="none" stroke="#ef476f" marker-end="url(#arrow)"/>
    <path d="M 107,98 V 27 H 34 v 13" fill="none" stroke="#ef476f" marker-end="url(#arrow)"/>
    <rect width="1" height="6" x="72" y="36" fill="#ffffff" stroke="#ffffff" stroke-width="0.7"/>
    <rect width="20" height="6" x="69" y="36" fill="#ffffff" stroke="#000000"/>
    <path d="m 41,104 v 2 h 30 V 42" fill="none" stroke="#048966" marker-end="url(#arrow)"/>
    <path d="m 71,36 v -1 h -30 v 5" fill="none" stroke="#ef476f" marker-end="url(#arrow)"/>
    <rect width="1" height="6" x="73" y="44" fill="#ffffff" stroke="#ffffff" stroke-width="0.7"/>
    <rect width="20" height="6" x="69" y="44" fill="#ffffff" stroke="#000000"/>
    <path d="m 40,104 v 3 h 32 V 50" fill="none" stroke="#048966" marker-end="url(#arrow)"/>
    <rect width="1" height="8" x="71" y="52" fill="#ffffff" stroke="#ffffff" stroke-width="0.7"/>
    <rect width="20" height="8" x="69" y="52" fill="#ffffff" stroke="#000000"/>
    <path d="m 39,104 v 4 h 34 V 76 60" fill="none" stroke="#048966" marker-end="url(#arrow)"/>
    <rect width="2" height="6" x="71" y="66" fill="#ffffff" stroke="#ffffff" stroke-width="0.7"/>
    <rect width="20" height="6" x="69" y="66" fill="#ffffff" stroke="#000000"/>
    <rect width="2" height="6" x="71" y="82" fill="#ffffff" stroke="#ffffff" stroke-width="0.7"/>
    <rect width="20" height="6" x="69" y="82" fill="#ffffff" stroke="#000000"/>
    <rect width="2" height="6" x="71" y="98" fill="#ffffff" stroke="#ffffff" stroke-width="0.7"/>
    <rect width="20" height="6" x="69" y="98" fill="#ffffff" stroke="#000000"/>
    <path d="M 42,98 V 77" stroke="#048966" marker-end="url(#arrow)"/>
    <rect width="20" height="6" x="25" y="82" fill="#ffffff" stroke="#000000"/>
    <rect width="20" height="6" x="25" y="90" fill="#ffffff" stroke="#000000"/>
    <path d="m 63,58 -1,1.5 v -1 h -16 v 1 l -1,-1.5 1,-1.5 v 1 h 16 v -1 z" fill="#cccccc" stroke-width="0.6"/>
    <path d="m 63,73 -1,1.5 v -1 h -16 v 1 l -1,-1.5 1,-1.5 v 1 h 16 v -1 z" fill="#cccccc" stroke-width="0.6"/>
    <path d="m 63,43 -1,1.5 v -1 h -16 v 1 l -1,-1.5 1,-1.5 v 1 h 16 v -1 z" fill="#cccccc" stroke-width="0.6"/>
    <rect width="6" height="20" x="47" y="48" fill="#ffffff" stroke="#000000"/>
    <rect width="96" height="2" x="16" y="23" fill="#cccccc" stroke-width="0.0"/>
    <path d="M 31,19 V 40" stroke="#ef476f" marker-end="url(#arrow)"/>
    <path d="m 22,19 v 8 h 8 v 13" fill="none" stroke="#ef476f" marker-end="url(#arrow)"/>
    <text x="-58" y="23" transform="rotate(-90)" text-anchor="middle">Cortex M3</text>
    <text x="64" y="25" text-anchor="middle">Bus</text>
    <text x="89" y="10" text-anchor="middle">RAM0</text>
    <text x="105" y="10" text-anchor="middle">RAM1</text>
    <text x="105" y="15" text-anchor="middle">32~KB</text>
    <text x="89" y="15" text-anchor="middle">64~KB</text>
    <text x="73" y="15" text-anchor="middle">16~KB</text>
    <text x="57" y="15" text-anchor="middle">256~KB</text>
    <rect width="14" height="1" x="34" y="13" fill="#ffffff" stroke="#ffffff" stroke-width="0.7"/>
    <rect width="14" height="16" x="34" y="3" fill="#ebebeb" stroke="#000000"/>
    <text x="41" y="15" text-anchor="middle">256~KB</text>
    <text x="73" y="10" text-anchor="middle">ROM</text>
    <rect width="7" height="2" x="25" y="8" fill="#ffffff" stroke="#ffffff" stroke-width="0.7"/>
    <rect width="7" height="16" x="25" y="3" fill="#ebebeb" stroke="#000000"/>
    <text x="41" y="10" text-anchor="middle">Flash0</text>
    <text x="-11" y="30" transform="rotate(-90)" text-anchor="middle">EEFC1</text>
    <text x="-11" y="21" transform="rotate(-90)" text-anchor="middle">EEFC0</text>
    <text x="57" y="10" text-anchor="middle">Flash1</text>
    <text x="-58" y="51.5" transform="rotate(-90)" text-anchor="middle">MPU</text>
    <text x="35" y="59" text-anchor="middle">Core</text>
    <text x="79" y="57" text-anchor="middle">SPI</text>
    <text x="79" y="40" text-anchor="middle">USART</text>
    <text x="119" y="45" font-size="2.8px">PA11</text>
    <text x="119" y="49" font-size="2.8px">PA17</text>
    <text x="119" y="43" font-size="2.8px">PA10</text>
    <text x="90" y="37" font-size="2.8px">RXD</text>
    <text x="88" y="41" font-size="2.8px" text-anchor="end">17</text>
    <text x="88" y="59" font-size="2.8px" text-anchor="end">24</text>
    <text x="90" y="53" font-size="2.8px">MISO</text>
    <text x="100" y="55" font-size="2.8px" text-anchor="end">MOSI</text>
    <text x="100" y="57" font-size="2.8px" text-anchor="end">CLK</text>
    <text x="100" y="59" font-size="2.8px" text-anchor="end">CS</text>
    <text x="100" y="41" font-size="2.8px" text-anchor="end">SCK</text>
    <text x="100" y="39" font-size="2.8px" text-anchor="end">TXD</text>
    <text x="119" y="59" font-size="2.8px">PA25</text>
    <text x="119" y="63" font-size="2.8px">PA29</text>
    <text x="119" y="37" font-size="2.8px">PA0</text>
    <text x="119" y="67" font-size="2.8px">PB0</text>
    <text x="119" y="79" font-size="2.8px">PB31</text>
    <text x="119" y="83" font-size="2.8px">PC0</text>
    <text x="119" y="95" font-size="2.8px">PC30</text>
    <text x="79" y="48" text-anchor="middle">...</text>
    <text x="-40" y="110" transform="rotate(-90)" text-anchor="middle">...</text>
    <text x="-46.5" y="110" transform="rotate(-90)" text-anchor="middle">...</text>
    <text x="-54" y="110" transform="rotate(-90)" text-anchor="middle">...</text>
    <text x="-73" y="110" transform="rotate(-90)" text-anchor="middle">...</text>
    <text x="-89" y="110" transform="rotate(-90)" text-anchor="middle">...</text>
    <text x="-105" y="110" transform="rotate(-90)" text-anchor="middle">...</text>
    <text x="35" y="44.5" text-anchor="middle">NVIC</text>
    <text x="35" y="74.5" text-anchor="middle">SysTick</text>
    <text x="35" y="94.5" text-anchor="middle">WDT</text>
    <text x="35" y="102.5" text-anchor="middle">PMC</text>
    <text x="35" y="86.5" text-anchor="middle">RSTC</text>
    <rect width="1" height="28" x="106" y="36" fill="#ffffff" stroke="#ffffff" stroke-width="0.7"/>
    <rect width="7" height="28" x="101" y="36" fill="#ffffff" stroke="#000000"/>
    <rect width="104" height="116" x="12" y="1" fill="none" stroke="#000000"/>
    <rect width="20" height="6" x="25" y="40" fill="none" stroke="#000000"/>
    <rect width="20" height="20" x="25" y="48" fill="none" stroke="#000000"/>
    <rect width="20" height="6" x="25" y="70" fill="none" stroke="#000000"/>
    <rect width="20" height="6" x="25" y="98" fill="none" stroke="#000000"/>
    <rect width="1" height="14" x="106.5" y="66" fill="#ffffff" stroke="#ffffff" stroke-width="0.7"/>
    <rect width="7" height="14" x="101" y="66" fill="#ffffff" stroke="#000000"/>
    <text x="-73" y="106" transform="rotate(-90)" text-anchor="middle">PIOB</text>
    <path d="M 89,39 H 101" stroke="#000000" marker-end="url(#arrow)"/>
    <path d="M 89,37 H 101" stroke="#000000" marker-start="url(#arrow)"/>
    <path d="M 89,41 H 101" stroke="#000000" marker-start="url(#arrow)" marker-end="url(#arrow)"/>
    <path d="m 108,37 h 10" stroke="#000000" marker-start="url(#arrow)" marker-end="url(#arrow)"/>
    <path d="m 108,43 h 10" stroke="#000000" marker-start="url(#arrow)" marker-end="url(#arrow)"/>
    <path d="m 108,44 h 10" stroke="#000000" marker-start="url(#arrow)" marker-end="url(#arrow)"/>
    <path d="m 108,49 h 10" stroke="#000000" marker-start="url(#arrow)" marker-end="url(#arrow)"/>
    <path d="m 108,62 h 10" stroke="#000000" marker-start="url(#arrow)" marker-end="url(#arrow)"/>
    <path d="m 108,63 h 10" stroke="#000000" marker-start="url(#arrow)" marker-end="url(#arrow)"/>
    <path d="m 108,67 h 10" stroke="#000000" marker-start="url(#arrow)" marker-end="url(#arrow)"/>
    <path d="m 108,79 h 10" stroke="#000000" marker-start="url(#arrow)" marker-end="url(#arrow)"/>
    <path d="m 108,83 h 10" stroke="#000000" marker-start="url(#arrow)" marker-end="url(#arrow)"/>
    <path d="m 108,95 h 10" stroke="#000000" marker-start="url(#arrow)" marker-end="url(#arrow)"/>
    <path d="M 35,90 V 88" stroke="#000000" marker-end="url(#arrow)"/>
    <path d="m 108,99 h 10" stroke="#000000" marker-start="url(#arrow)" marker-end="url(#arrow)"/>
    <path d="m 108,111 h 10" stroke="#000000" marker-start="url(#arrow)" marker-end="url(#arrow)"/>
    <path d="m 108,61 h 10" stroke="#000000" marker-start="url(#arrow)" marker-end="url(#arrow)"/>
    <path d="m 108,60 h 10" stroke="#000000" marker-start="url(#arrow)" marker-end="url(#arrow)"/>
    <path d="m 108,59 h 10" stroke="#000000" marker-start="url(#arrow)" marker-end="url(#arrow)"/>
    <path d="M 89,53 H 101" stroke="#000000" marker-start="url(#arrow)"/>
    <path d="M 89,55 H 101" stroke="#000000" marker-end="url(#arrow)"/>
    <path d="M 89,57 H 101" stroke="#000000" marker-end="url(#arrow)"/>
    <path d="M 89,59 H 101" stroke="#000000" marker-end="url(#arrow)"/>
    <text x="79" y="70" text-anchor="middle">...</text>
    <path d="m 57,19 1.5,1 h -1 v 2 h 1 l -1.5,1 -1.5,-1 h 1 v -2 h -1 z" fill="#cccccc" stroke-width="0.6"/>
    <path d="m 41,19 1.5,1 h -1 v 2 h 1 l -1.5,1 -1.5,-1 h 1 v -2 h -1 z" fill="#cccccc" stroke-width="0.6"/>
    <path d="M 28.5,19 30,20 h -1 v 2 h 1 l -1.5,1 -1.5,-1 h 1 V 20 h -1 z" fill="#cccccc" stroke-width="0.6"/>
    <path d="m 35.5,46 v 1 h 1 L 35,48 33.5,47 h 1 l 0,-1 z" fill="#ef476f" stroke-width="0.6"/>
    <path d="M 19.5,19 21,20 h -1 v 2 h 1 l -1.5,1 -1.5,-1 h 1 V 20 h -1 z" fill="#cccccc" stroke-width="0.6"/>
    <path d="m 105,19 1.5,1 h -1 v 2 h 1 l -1.5,1 -1.5,-1 h 1 v -2 h -1 z" fill="#cccccc" stroke-width="0.6"/>
    <path d="m 89,19 1.5,1 h -1 v 2 h 1 l -1.5,1 -1.5,-1 h 1 v -2 h -1 z" fill="#cccccc" stroke-width="0.6"/>
    <path d="m 69,39 -1,1.5 v -1 h -2 v 1 l -1,-1.5 1,-1.5 v 1 h 2 v -1 z" fill="#cccccc" stroke-width="0.6"/>
    <path d="m 69,47 -1,1.5 v -1 h -2 v 1 l -1,-1.5 1,-1.5 v 1 h 2 v -1 z" fill="#cccccc" stroke-width="0.6"/>
    <path d="m 69,56 -1,1.5 v -1 h -2 v 1 L 65,56 66,54.5 v 1 h 2 v -1 z" fill="#cccccc" stroke-width="0.6"/>
    <path d="m 101,62 -1,1.5 v -1 h -34 v 1 l -1,-1.5 1,-1.5 v 1 h 34 v -1 z" fill="#cccccc" stroke-width="0.6"/>
    <path d="m 101,78 -1,1.5 v -1 h -34 v 1 l -1,-1.5 1,-1.5 v 1 h 34 v -1 z" fill="#cccccc" stroke-width="0.6"/>
    <path d="m 69,69 -1,1.5 v -1 h -2 v 1 l -1,-1.5 1,-1.5 v 1 h 2 v -1 z" fill="#cccccc" stroke-width="0.6"/>
    <path d="m 73,19 1.5,1 h -1 v 2 h 1 l -1.5,1 -1.5,-1 h 1 v -2 h -1 z" fill="#cccccc" stroke-width="0.6"/>
    <rect width="1" height="14" x="106" y="82" fill="#ffffff" stroke="#ffffff" stroke-width="0.7"/>
    <rect width="7" height="14" x="101" y="82" fill="#ffffff" stroke="#000000"/>
    <text x="-89" y="106" transform="rotate(-90)" text-anchor="middle">PIOC</text>
    <text x="79" y="86" text-anchor="middle">...</text>
    <path d="m 69,85 -1,1.5 v -1 h -2 v 1 l -1,-1.5 1,-1.5 v 1 h 2 v -1 z" fill="#cccccc" stroke-width="0.6"/>
    <rect width="7" height="14" x="101" y="98" fill="#ffffff" stroke="#000000"/>
    <text x="-105" y="106" transform="rotate(-90)" text-anchor="middle">PIOD</text>
    <path d="m 34,104 v 10 h 73 v -2" fill="none" stroke="#048966" marker-end="url(#arrow)"/>
    <text x="79" y="102" text-anchor="middle">...</text>
    <text x="111" y="-43" transform="rotate(90)" text-anchor="middle" fill="#048966">...</text>
    <text x="30" y="-42" transform="rotate(90)" text-anchor="middle" fill="#ef476f">...</text>
    <path d="m 69,101 -1,1.5 v -1 h -2 v 1 l -1,-1.5 1,-1.5 v 1 h 2 v -1 z" fill="#cccccc" stroke-width="0.6"/>
    <path d="m 101,47 -1,1.5 v -1 h -10 v 1 l -1,-1.5 1,-1.5 v 1 h 10 v -1 z" fill="#cccccc" stroke-width="0.6"/>
    <path d="m 101,69 -1,1.5 v -1 h -10 v 1 l -1,-1.5 1,-1.5 v 1 h 10 v -1 z" fill="#cccccc" stroke-width="0.6"/>
    <path d="m 101,85 -1,1.5 v -1 h -10 v 1 l -1,-1.5 1,-1.5 v 1 h 10 v -1 z" fill="#cccccc" stroke-width="0.6"/>
    <path d="m 101,37 7,6" stroke="#9a9a9a" stroke-dasharray="0.2 0.4"/>
    <path d="m 101,62 7,-13" stroke="#9a9a9a" stroke-dasharray="0.2 0.4"/>
    <path d="m 101,53 7,6" stroke="#9a9a9a" stroke-dasharray="0.2 0.4"/>
    <path d="m 101,57 7,4" stroke="#9a9a9a" stroke-dasharray="0.2 0.4"/>
    <path d="m 101,59 7,3" stroke="#9a9a9a" stroke-dasharray="0.2 0.4"/>
    <path d="m 101,55 7,5" stroke="#9a9a9a" stroke-dasharray="0.2 0.4"/>
    <path d="m 101,39 7,5" stroke="#9a9a9a" stroke-dasharray="0.2 0.4"/>
    <path d="m 101,41 7,8" stroke="#9a9a9a" stroke-dasharray="0.2 0.4"/>
    <path d="m 101,47 7,2" stroke="#9a9a9a" stroke-dasharray="0.2 0.4"/>
    <text x="-50" y="106" transform="rotate(-90)" text-anchor="middle">PIOA</text>
    <path d="m 101,101 -1,1.5 v -1 h -10 v 1 l -1,-1.5 1,-1.5 v 1 h 10 v -1 z" fill="#cccccc" stroke-width="0.6"/>
    <path d="m 101,94 -1,1.5 v -1 H 66 v 1 l -1,-1.5 1,-1.5 v 1 h 34 v -1 z" fill="#cccccc" stroke-width="0.6"/>
    <path d="m 101,110 -1,1.5 v -1 H 66 v 1 l -1,-1.5 1,-1.5 v 1 h 34 v -1 z" fill="#cccccc" stroke-width="0.6"/>
    <text x="119" y="99" font-size="2.8px">PD0</text>
    <text x="119" y="111" font-size="2.8px">PD9</text>
    <rect width="36" height="38" x="18" y="39" fill="none" stroke="#000000" stroke-dasharray="0.2 0.4"/>
    <path d="m 63,85 -1,1.5 v -1 h -16 v 1 l -1,-1.5 1,-1.5 v 1 h 16 v -1 z" fill="#cccccc" stroke-width="0.6"/>
    <path d="m 63,93.5 -1,1.5 v -1 h -16 v 1 l -1,-1.5 1,-1.5 v 1 h 16 v -1 z" fill="#cccccc" stroke-width="0.6"/>
    <path d="m 63,101 -1,1.5 v -1 h -16 v 1 l -1,-1.5 1,-1.5 v 1 h 16 v -1 z" fill="#cccccc" stroke-width="0.6"/>
    <text x="9" y="99" font-size="2.8px" text-anchor="end">XIN</text>
    <text x="46" y="106" font-size="2.8px" fill="#048966">USART\_CLK</text>
    <text x="46" y="110" font-size="2.8px" fill="#048966">SPI\_CLK</text>
    <text x="46" y="114" font-size="2.8px" fill="#048966">PIOD\_CLK</text>
    <text x="46" y="37" font-size="2.8px" fill="#ef476f">USART\_INT</text>
    <text x="46" y="33" font-size="2.8px" fill="#ef476f">SPI\_INT</text>
    <text x="46" y="29" font-size="2.8px" fill="#ef476f">PIOD\_INT</text>
    <text x="9" y="85" font-size="2.8px" text-anchor="end">NRST</text>
    <text x="9" y="61" font-size="2.8px" text-anchor="end">GND</text>
    <text x="9" y="57" font-size="2.8px" text-anchor="end">VDD</text>
    <text x="43" y="80" font-size="2.8px" fill="#048966">HCK</text>
    <text x="9" y="103" font-size="2.8px" text-anchor="end">XOUT</text>
    <path d="M 10,103 H 25" stroke="#000000" marker-start="url(#arrow)"/>
    <path d="M 10,99 H 25" stroke="#000000" marker-end="url(#arrow)"/>
    <path d="M 10,85 H 25" stroke="#000000" marker-end="url(#arrow)"/>
    <path d="M 10,57 H 12" stroke="#000000" marker-end="url(#arrow)"/>
    <path d="M 10,61 H 12" stroke="#000000" marker-end="url(#arrow)"/>
  </g>
</svg>
