<!--
This work is licensed under the Creative Commons Attribution NonCommercial
ShareAlike 4.0 International License. To view a copy of the license, visit
https://creativecommons.org/licenses/by-nc-sa/4.0/
-->
<svg xmlns="http://www.w3.org/2000/svg" width="145mm" height="65mm" viewBox="0 0 145 65" version="1.1">
  <defs>
    <marker id="arrow" orient="auto-start-reverse">
      <path d="M 3,-3 0,0 3,3" transform="rotate(180,0.125,0)" fill="none" stroke="context-stroke"/>
    </marker>
  </defs>
  <g font-family="'Fira Sans'" font-size="3.9px" stroke-width="0.2">
    <rect width="5" height="7" x="140" y="20" fill="#048966"/>
    <rect width="17" height="7" x="17" y="20" fill="#cca752"/>
    <rect width="16" height="7" x="1" y="20" fill="#bf3959"/>
    <rect width="2" height="7" x="43" y="20" fill="#062f3d"/>
    <rect width="9" height="7" x="34" y="20" fill="#ebebeb"/>
    <rect width="10" height="7" x="69" y="20" fill="#ebebeb"/>
    <rect width="30" height="7" x="110" y="20" fill="#ebebeb"/>
    <rect width="12" height="7" x="45" y="20" fill="#0e6e8e"/>
    <rect width="8" height="7" x="57" y="20" fill="#118ab2"/>
    <rect width="4" height="7" x="65" y="20" fill="#41a1c1"/>
    <path d="m 17,16 v 4" stroke="#000000" stroke-dasharray="0.8, 0.2" marker-end="url(#arrow)"/>
    <path d="m 126,31 v -4" stroke="#000000" stroke-dasharray="0.8, 0.2" marker-end="url(#arrow)"/>
    <path d="m 69,16 v 4" stroke="#000000" stroke-dasharray="0.8, 0.2" marker-end="url(#arrow)"/>
    <path d="m 43,16 v 4" stroke="#000000" stroke-dasharray="0.8, 0.2" marker-end="url(#arrow)"/>
    <path d="m 34,16 v 4" stroke="#000000" stroke-dasharray="0.8, 0.2" marker-end="url(#arrow)"/>
    <text x="16" y="15" font-size="3.5px">$\it{dst\_buffer}$</text>
    <path d="M 1,31 1,27" stroke="#000000" stroke-dasharray="0.8, 0.2" marker-end="url(#arrow)"/>
    <text x="0" y="34" font-size="3.5px">$\it{begin}$</text>
    <path d="M 17,31 V 27" stroke="#000000" stroke-dasharray="0.8, 0.2" marker-end="url(#arrow)"/>
    <text x="16" y="34" font-size="3.5px">(process) $\it{heap}$</text>
    <path d="M 145,31 V 27" stroke="#000000" stroke-dasharray="0.8, 0.2" marker-end="url(#arrow)"/>
    <text x="146" y="34" font-size="3.5px" text-anchor="end">$\it{end}$</text>
    <text x="127" y="34" font-size="3.5px" text-anchor="end">(process) $\it{heap\_limit}$</text>
    <text x="78" y="15" font-size="3.5px">$\it{heap\_limit}$</text>
    <text x="68" y="15" font-size="3.5px">$\it{heap}$</text>
    <text x="135" y="25" font-size="3.5px" text-anchor="end">SP</text>
    <text x="80" y="25" font-size="3.5px">file1</text>
    <text x="91" y="25" font-size="3.5px">file2</text>
    <text x="42" y="15" font-size="3.5px">$\it{dst\_limit}$</text>
    <text x="33" y="15" font-size="3.5px">$\it{dst}$</text>
    <path d="m 140,23.5 h -4" stroke="#000000" stroke-dasharray="0.2, 0.2" marker-end="url(#arrow)"/>
    <path d="m 73,23.5 h -4" stroke="#000000" stroke-dasharray="0.2, 0.2" marker-start="url(#arrow)"/>
    <path d="M 38,23.5 H 34" stroke="#000000" stroke-dasharray="0.2, 0.2" marker-start="url(#arrow)"/>
    <path d="m 126,20 v 7" stroke="#000000" stroke-dasharray="0.2, 0.2"/>
    <path d="m 79,16 v 4" stroke="#000000" stroke-dasharray="0.8, 0.2" marker-end="url(#arrow)"/>
    <text x="109" y="15" font-size="3.5px">$\it{src}$</text>
    <path d="m 110,16 v 4" stroke="#000000" stroke-dasharray="0.8, 0.2" marker-end="url(#arrow)"/>
    <path d="m 79,20 v 7" stroke="#000000" stroke-dasharray="0.2, 0.2"/>
    <path d="m 140,20 v 7" stroke="#000000"/>
    <path d="m 34,20 v 7" stroke="#000000"/>
    <path d="m 114,23.5 h -4" stroke="#000000" stroke-dasharray="0.2, 0.2" marker-start="url(#arrow)"/>
    <path d="m 110,20 v 7" stroke="#000000"/>
    <path d="m 90,20 v 7" stroke="#000000"/>
    <path d="m 17,20 v 7" stroke="#000000"/>
    <path d="m 43,20 v 7" stroke="#000000"/>
    <path d="m 45,20 v 7" stroke="#000000"/>
    <rect width="144" height="7" x="1" y="20" fill="none" stroke="#000000"/>
  </g>
</svg>
