<!--
This work is licensed under the Creative Commons Attribution NonCommercial
ShareAlike 4.0 International License. To view a copy of the license, visit
https://creativecommons.org/licenses/by-nc-sa/4.0/
-->
<svg xmlns="http://www.w3.org/2000/svg" width="145mm" height="65mm" viewBox="0 0 145 65" version="1.1">
  <defs>
    <marker id="arrow" orient="auto-start-reverse">
      <path d="M 3,-3 0,0 3,3" transform="rotate(180,0.125,0)" fill="none" stroke="context-stroke"/>
    </marker>
  </defs>
  <g font-family="'Fira Sans'" font-size="3.9px" stroke-width="0.2">
    <rect width="52" height="7" x="89" y="25" fill="#ebebeb"/>
    <rect width="13" height="7" x="1" y="25" fill="#bf3959"/>
    <rect width="19" height="7" x="14" y="25" fill="#cca752"/>
    <rect width="10" height="7" x="33" y="25" fill="#048966"/>
    <rect width="17" height="7" x="43" y="25" fill="#0e6e8e"/>
    <rect width="17" height="7" x="43" y="35" fill="#0e6e8e"/>
    <rect width="29" height="7" x="60" y="25" fill="#062f3d"/>
    <path d="m 14,25 v 7" stroke="#000000"/>
    <path d="m 33,25 v 7" stroke="#000000"/>
    <path d="m 43,25 v 7" stroke="#000000"/>
    <path d="m 60,25 v 7" stroke="#000000"/>
    <path d="m 89,25 v 7" stroke="#000000"/>
    <rect width="140" height="7" x="1" y="25" fill="none" stroke="#000000"/>
    <text x="2" y="30" font-size="3.52777px">A</text>
    <text x="15" y="30" font-size="3.52777px">B</text>
    <text x="34" y="30" font-size="3.52777px">C</text>
    <text x="44" y="30" font-size="3.52777px" fill="#ffffff">D</text>
    <text x="61" y="30" font-size="3.52777px" fill="#ffffff">E</text>
    <rect width="36" height="7" x="105" y="35" fill="#ebebeb"/>
    <rect width="10" height="7" x="33" y="35" fill="#ebebeb"/>
    <rect width="13" height="7" x="1" y="35" fill="#bf3959"/>
    <rect width="19" height="7" x="14" y="35" fill="#cca752"/>
    <rect width="16" height="7" x="89" y="35" fill="#048966"/>
    <rect width="29" height="7" x="60" y="35" fill="#062f3d"/>
    <path d="m 14,35 v 7" stroke="#000000"/>
    <path d="m 33,35 v 7" stroke="#000000"/>
    <path d="m 43,35 v 7" stroke="#000000"/>
    <path d="m 105,35 v 7" stroke="#000000"/>
    <path d="m 60,35 v 7" stroke="#000000"/>
    <path d="m 89,35 v 7" stroke="#000000"/>
    <rect width="140" height="7" x="1" y="35" fill="none" stroke="#000000"/>
    <text x="2" y="40" font-size="3.52777px">A</text>
    <text x="15" y="40" font-size="3.52777px">B</text>
    <text x="90" y="40" font-size="3.52777px">C'</text>
    <text x="44" y="40" font-size="3.52777px" fill="#ffffff">D</text>
    <text x="61" y="40" font-size="3.52777px" fill="#ffffff">E</text>
  </g>
</svg>
