<!--
This work is licensed under the Creative Commons Attribution NonCommercial
ShareAlike 4.0 International License. To view a copy of the license, visit
https://creativecommons.org/licenses/by-nc-sa/4.0/
-->
<svg xmlns="http://www.w3.org/2000/svg" width="145mm" height="55mm" viewBox="0 0 145 55" version="1.1">
  <defs>
    <marker id="arrow" orient="auto-start-reverse">
      <path d="M 3,-3 0,0 3,3" transform="rotate(180,0.125,0)" fill="none" stroke="context-stroke"/>
    </marker>
  </defs>
  <g font-family="'Fira Sans'" font-size="3.9px" stroke-width="0.2">
    <path d="m 102,24 h 16 v 8 l -8,1 v -2 l -8,1 z" fill="#ebebeb"/>
    <path d="m 15,26 h 5 L 20,15 h 20 v 5" fill="none" stroke="#000000" stroke-dasharray="0.8, 0.2" marker-end="url(#arrow)"/>
    <path d="m 40,26 h 5 V 15 h 20 v 5" fill="none" stroke="#000000" stroke-dasharray="0.8, 0.2" marker-end="url(#arrow)"/>
    <path d="m 26,24 h 16" stroke="#000000"/>
    <path d="m 26,28 h 16" stroke="#000000"/>
    <text x="21" y="18.5" font-size="3.5px">next\_file</text>
    <text x="77" y="38" font-size="3.5px" fill="#048966">After</text>
    <text x="1" y="38" font-size="3.5px" fill="#bf3959">Before</text>
    <text x="46" y="18.5" font-size="3.5px">next\_file</text>
    <text x="41" y="31" font-size="3.5px" text-anchor="end">...</text>
    <text x="41" y="23" font-size="3.5px" text-anchor="end">...</text>
    <text x="16" y="31" font-size="3.5px" text-anchor="end">...</text>
    <text x="16" y="23" font-size="3.5px" text-anchor="end">...</text>
    <path d="M 1,24 H 17" stroke="#000000"/>
    <path d="M 1,28 H 17" stroke="#000000"/>
    <circle cx="40" cy="26" r="1"/>
    <circle cx="15" cy="26" r="1"/>
    <path d="m 26,20 h 16 v 12 l -8,1 v -2 l -8,1 z" fill="none" stroke="#000000"/>
    <path d="M 51,24 H 67" stroke="#000000"/>
    <path d="M 51,28 H 67" stroke="#000000"/>
    <text x="66" y="31" font-size="3.5px" text-anchor="end">...</text>
    <text x="66" y="23" font-size="3.5px" text-anchor="end">...</text>
    <path d="m 51,20 h 16 v 12 l -8,1 v -2 l -8,1 z" fill="none" stroke="#000000"/>
    <path d="m 1,20 h 16 v 12 l -8,1 v -2 l -8,1 z" fill="none" stroke="#000000"/>
    <path d="m 91,26 h 5 V 15 l 45,0 v 5" fill="none" stroke="#048966" stroke-dasharray="0.8, 0.2" marker-end="url(#arrow)"/>
    <path d="m 102,24 h 16" stroke="#000000"/>
    <text x="117" y="23" font-size="3.5px" text-anchor="end">...</text>
    <text x="92" y="31" font-size="3.5px" text-anchor="end">...</text>
    <text x="92" y="23" font-size="3.5px" text-anchor="end">...</text>
    <path d="M 77,24 H 93" stroke="#000000"/>
    <path d="M 77,28 H 93" stroke="#000000"/>
    <circle cx="91" cy="26" r="1" fill="#048966"/>
    <path d="m 102,20 h 16 v 12 l -8,1 v -2 l -8,1 z" fill="none" stroke="#000000"/>
    <path d="m 127,24 h 16" stroke="#000000"/>
    <path d="m 127,28 h 16" stroke="#000000"/>
    <text x="142" y="31" font-size="3.5px" text-anchor="end">...</text>
    <text x="142" y="23" font-size="3.5px" text-anchor="end">...</text>
    <text x="66" y="27" font-size="3.5px" text-anchor="end">...</text>
    <text x="142" y="27" font-size="3.5px" text-anchor="end">...</text>
    <path d="m 127,20 h 16 v 12 l -8,1 v -2 l -8,1 z" fill="none" stroke="#000000"/>
    <path d="m 77,20 h 16 v 12 l -8,1 v -2 l -8,1 z" fill="none" stroke="#000000"/>
    <path d="M 72,15 V 37" stroke="#000000" stroke-dasharray="0.6, 0.6"/>
  </g>
</svg>
