<!--
This work is licensed under the Creative Commons Attribution NonCommercial
ShareAlike 4.0 International License. To view a copy of the license, visit
https://creativecommons.org/licenses/by-nc-sa/4.0/
-->
<svg xmlns="http://www.w3.org/2000/svg" width="145mm" height="65mm" viewBox="0 0 145 65" version="1.1">
  <defs>
    <marker id="arrow" orient="auto-start-reverse">
      <path d="M 3,-3 0,0 3,3" transform="rotate(180,0.125,0)" fill="none" stroke="context-stroke"/>
    </marker>
  </defs>
  <g font-family="'Fira Sans'" font-size="3.9px" stroke-width="0.2">
    <rect width="3" height="7" x="138" y="25" fill="#ebebeb"/>
    <rect width="13" height="7" x="1" y="25" fill="#bf3959"/>
    <rect width="17" height="7" x="101" y="25" fill="#41a1c1"/>
    <rect width="19" height="7" x="14" y="25" fill="#cca752"/>
    <rect width="20" height="7" x="118" y="25" fill="#06d6a0"/>
    <rect width="10" height="7" x="33" y="25" fill="#048966"/>
    <rect width="12" height="7" x="89" y="25" fill="#396270"/>
    <rect width="29" height="7" x="60" y="25" fill="#062f3d"/>
    <rect width="17" height="7" x="43" y="25" fill="#0e6e8e"/>
    <rect width="17" height="7" x="43" y="35" fill="#0e6e8e"/>
    <rect width="17" height="7" x="33" y="45" fill="#0e6e8e"/>
    <path d="m 14,25 v 7" stroke="#000000"/>
    <path d="m 33,25 v 7" stroke="#000000"/>
    <path d="m 43,25 v 7" stroke="#000000"/>
    <path d="m 60,25 v 7" stroke="#000000"/>
    <path d="m 88.9,25 v 7" stroke="#000000"/>
    <path d="m 101,25 v 7" stroke="#000000"/>
    <path d="m 118,25 v 7" stroke="#000000"/>
    <path d="m 138,25 v 7" stroke="#000000"/>
    <rect width="140" height="7" x="1" y="25" fill="none" stroke="#000000"/>
    <text x="2" y="30" font-size="3.52777px">A</text>
    <text x="15" y="30" font-size="3.52777px">B</text>
    <text x="34" y="30" font-size="3.52777px">C</text>
    <text x="44" y="30" font-size="3.52777px" fill="#ffffff">D</text>
    <text x="61" y="30" font-size="3.52777px" fill="#ffffff">E</text>
    <text x="90" y="30" font-size="3.52777px" fill="#ffffff">F</text>
    <text x="102" y="30" font-size="3.52777px">G</text>
    <text x="119" y="30" font-size="3.52777px">H</text>
    <rect width="3" height="7" x="138" y="35" fill="#ebebeb"/>
    <rect width="10" height="7" x="33" y="35" fill="#ebebeb"/>
    <rect width="12" height="7" x="89" y="35" fill="#ebebeb"/>
    <rect width="13" height="7" x="1" y="35" fill="#bf3959"/>
    <rect width="17" height="7" x="101" y="35" fill="#41a1c1"/>
    <rect width="19" height="7" x="14" y="35" fill="#cca752"/>
    <rect width="20" height="7" x="118" y="35" fill="#06d6a0"/>
    <rect width="29" height="7" x="60" y="35" fill="#062f3d"/>
    <path d="m 14,35 v 7" stroke="#000000"/>
    <path d="m 33,35 v 7" stroke="#000000"/>
    <path d="m 43,35 v 7" stroke="#000000"/>
    <path d="m 60,35 v 7" stroke="#000000"/>
    <path d="m 88.9,35 v 7" stroke="#000000"/>
    <path d="m 101,35 v 7" stroke="#000000"/>
    <path d="m 118,35 v 7" stroke="#000000"/>
    <path d="m 138,35 v 7" stroke="#000000"/>
    <rect width="140" height="7" x="1" y="35" fill="none" stroke="#000000"/>
    <text x="2" y="40" font-size="3.52777px">A</text>
    <text x="15" y="40" font-size="3.52777px">B</text>
    <text x="44" y="40" font-size="3.52777px" fill="#ffffff">D</text>
    <text x="61" y="40" font-size="3.52777px" fill="#ffffff">E</text>
    <text x="102" y="40" font-size="3.52777px">G</text>
    <text x="119" y="40" font-size="3.52777px">H</text>
    <rect width="6" height="7" x="135" y="45" fill="#ebebeb"/>
    <rect width="19" height="7" x="116" y="45" fill="#ffda85"/>
    <rect width="13" height="7" x="1" y="45" fill="#bf3959"/>
    <rect width="17" height="7" x="79" y="45" fill="#41a1c1"/>
    <rect width="19" height="7" x="14" y="45" fill="#cca752"/>
    <rect width="20" height="7" x="96" y="45" fill="#06d6a0"/>
    <rect width="29" height="7" x="50" y="45" fill="#062f3d"/>
    <path d="m 14,45 v 7" stroke="#000000"/>
    <path d="m 33,45 v 7" stroke="#000000"/>
    <path d="m 50,45 v 7" stroke="#000000"/>
    <path d="m 79,45 v 7" stroke="#000000"/>
    <path d="m 96,45 v 7" stroke="#000000"/>
    <path d="m 116,45 v 7" stroke="#000000"/>
    <path d="m 135,45 v 7" stroke="#000000"/>
    <rect width="140" height="7" x="1" y="45" fill="none" stroke="#000000"/>
    <text x="2" y="50" font-size="3.52777px">A</text>
    <text x="15" y="50" font-size="3.52777px">B</text>
    <text x="34" y="50" font-size="3.52777px" fill="#ffffff">D</text>
    <text x="51" y="50" font-size="3.52777px" fill="#ffffff">E</text>
    <text x="80" y="50" font-size="3.52777px">G</text>
    <text x="97" y="50" font-size="3.52777px">H</text>
    <text x="117" y="50" font-size="3.52777px">I</text>
    <path d="M 43,42 33,45" stroke="#000000" stroke-dasharray="0.8, 0.2" marker-end="url(#arrow)"/>
    <path d="m 60,42 -10,3" stroke="#000000" stroke-dasharray="0.8, 0.2" marker-end="url(#arrow)"/>
    <path d="m 89,42 -10,3" stroke="#000000" stroke-dasharray="0.8, 0.2" marker-end="url(#arrow)"/>
    <path d="m 101,42 -22,3" stroke="#000000" stroke-dasharray="0.8, 0.2" marker-end="url(#arrow)"/>
    <path d="m 118,42 -22,3" stroke="#000000" stroke-dasharray="0.8, 0.2" marker-end="url(#arrow)"/>
    <path d="m 138,42 -22,3" stroke="#000000" stroke-dasharray="0.8, 0.2" marker-end="url(#arrow)"/>
  </g>
</svg>
