<!--
This work is licensed under the Creative Commons Attribution NonCommercial
ShareAlike 4.0 International License. To view a copy of the license, visit
https://creativecommons.org/licenses/by-nc-sa/4.0/
-->
<svg xmlns="http://www.w3.org/2000/svg" width="145mm" height="65mm" viewBox="0 0 145 65" version="1.1">
  <defs>
    <marker id="arrow" orient="auto-start-reverse">
      <path d="M 3,-3 0,0 3,3" transform="rotate(180,0.125,0)" fill="none" stroke="context-stroke"/>
    </marker>
  </defs>
  <g font-family="'Fira Sans'" font-size="3.9px" stroke-width="0.2">
    <rect width="24" height="7" x="32" y="35" fill="#0e6e8e" stroke-dasharray="0.6 0.6"/>
    <rect width="42" height="7" x="86" y="35" fill="#0e6e8e" stroke-dasharray="0.6 0.6"/>
    <rect width="30" height="7" x="32" y="52" fill="#0e6e8e" stroke-dasharray="0.6 0.6"/>
    <rect width="42" height="7" x="86" y="52" fill="#0e6e8e" stroke-dasharray="0.6 0.6"/>
    <path d="m 62,35 v 7" stroke="#cccccc"/>
    <path d="m 68,52 v 7" stroke="#cccccc"/>
    <path d="m 74,52 v 7" stroke="#cccccc"/>
    <path d="m 80,52 v 7" stroke="#cccccc"/>
    <path d="m 68,35 v 7" stroke="#cccccc"/>
    <path d="m 74,35 v 7" stroke="#cccccc"/>
    <path d="m 80,35 v 7" stroke="#cccccc"/>
    <path d="m 68,15 v 7" stroke="#cccccc"/>
    <path d="m 74,15 v 7" stroke="#cccccc"/>
    <path d="m 80,15 v 7" stroke="#cccccc"/>
    <rect width="30" height="7" x="32" y="15" fill="#0e6e8e" stroke-dasharray="0.6 0.6"/>
    <rect width="42" height="7" x="86" y="15" fill="#0e6e8e" stroke-dasharray="0.6 0.6"/>
    <path d="m 14,15 v 7" stroke="#000000"/>
    <path d="m 20,15 v 7" stroke="#000000"/>
    <path d="m 26,15 v 7" stroke="#000000"/>
    <path d="m 32,15 v 7" stroke="#000000"/>
    <path d="m 38,15 v 7" stroke="#000000"/>
    <path d="m 44,15 v 7" stroke="#000000"/>
    <path d="m 50,15 v 7" stroke="#000000"/>
    <path d="m 56,15 v 7" stroke="#000000"/>
    <path d="m 86,15 v 7" stroke="#000000"/>
    <path d="m 92,15 v 7" stroke="#000000"/>
    <path d="m 98,15 v 7" stroke="#000000"/>
    <path d="m 104,15 v 7" stroke="#000000"/>
    <path d="m 110,15 v 7" stroke="#000000"/>
    <path d="m 116,15 v 7" stroke="#000000"/>
    <path d="m 122,15 v 7" stroke="#000000"/>
    <path d="m 128,15 v 7" stroke="#000000"/>
    <path d="m 134,15 v 7" stroke="#000000"/>
    <text x="35" y="20" text-anchor="middle" fill="#ffffff">H</text>
    <text x="41" y="20" text-anchor="middle" fill="#ffffff">e</text>
    <text x="1" y="31">Delete character</text>
    <text x="1" y="11">Initial text</text>
    <text x="32" y="11">$begin=4$</text>
    <text x="62" y="11" fill="#bf3959">$cursor=9$</text>
    <text x="74" y="20" text-anchor="middle">$gap=4$</text>
    <text x="128" y="11">$end=20$</text>
    <text x="47" y="20" text-anchor="middle" fill="#ffffff">l</text>
    <text x="59" y="20" text-anchor="middle" fill="#ffffff">a</text>
    <text x="89" y="20" text-anchor="middle" fill="#ffffff">,</text>
    <text x="95" y="20" text-anchor="middle" fill="#ffffff">W</text>
    <text x="101" y="20" text-anchor="middle" fill="#ffffff">o</text>
    <text x="107" y="20" text-anchor="middle" fill="#ffffff">r</text>
    <text x="113" y="20" text-anchor="middle" fill="#ffffff">l</text>
    <text x="119" y="20" text-anchor="middle" fill="#ffffff">d</text>
    <text x="125" y="20" text-anchor="middle" fill="#ffffff">!</text>
    <text x="35" y="26" font-size="3.5px" text-anchor="middle">4</text>
    <text x="29" y="26" font-size="3.5px" text-anchor="middle">3</text>
    <text x="23" y="26" font-size="3.5px" text-anchor="middle">2</text>
    <text x="17" y="26" font-size="3.5px" text-anchor="middle">1</text>
    <text x="11" y="26" font-size="3.5px" text-anchor="middle">0</text>
    <text x="41" y="26" font-size="3.5px" text-anchor="middle">5</text>
    <text x="47" y="26" font-size="3.5px" text-anchor="middle">6</text>
    <text x="53" y="26" font-size="3.5px" text-anchor="middle">7</text>
    <text x="59" y="26" font-size="3.5px" text-anchor="middle">8</text>
    <text x="65" y="26" font-size="3.5px" text-anchor="middle">9</text>
    <text x="71" y="26" font-size="3.5px" text-anchor="middle">10</text>
    <text x="77" y="26" font-size="3.5px" text-anchor="middle">11</text>
    <text x="83" y="26" font-size="3.5px" text-anchor="middle">12</text>
    <text x="89" y="26" font-size="3.5px" text-anchor="middle">13</text>
    <text x="95" y="26" font-size="3.5px" text-anchor="middle">14</text>
    <text x="101" y="26" font-size="3.5px" text-anchor="middle">15</text>
    <text x="107" y="26" font-size="3.5px" text-anchor="middle">16</text>
    <text x="113" y="26" font-size="3.5px" text-anchor="middle">17</text>
    <text x="119" y="26" font-size="3.5px" text-anchor="middle">18</text>
    <text x="125" y="26" font-size="3.5px" text-anchor="middle">19</text>
    <text x="131" y="26" font-size="3.5px" text-anchor="middle">20</text>
    <text x="137" y="26" font-size="3.5px" text-anchor="middle">21</text>
    <text x="53" y="20" text-anchor="middle" fill="#ffffff">l</text>
    <text x="1" y="48">Insert character</text>
    <path d="m 35,12 v 3" stroke="#000000" marker-end="url(#arrow)"/>
    <path d="m 65,12 v 3" stroke="#bf3959" marker-end="url(#arrow)"/>
    <path d="m 131,12 v 3" stroke="#000000" marker-end="url(#arrow)"/>
    <path d="m 14,35 v 7" stroke="#000000"/>
    <path d="m 20,35 v 7" stroke="#000000"/>
    <path d="m 26,35 v 7" stroke="#000000"/>
    <path d="m 32,35 v 7" stroke="#000000"/>
    <path d="m 38,35 v 7" stroke="#000000"/>
    <path d="m 44,35 v 7" stroke="#000000"/>
    <path d="m 50,35 v 7" stroke="#000000"/>
    <path d="m 86,35 v 7" stroke="#000000"/>
    <path d="m 92,35 v 7" stroke="#000000"/>
    <path d="m 98,35 v 7" stroke="#000000"/>
    <path d="m 104,35 v 7" stroke="#000000"/>
    <path d="m 110,35 v 7" stroke="#000000"/>
    <path d="m 116,35 v 7" stroke="#000000"/>
    <path d="m 122,35 v 7" stroke="#000000"/>
    <path d="m 128,35 v 7" stroke="#000000"/>
    <path d="m 134,35 v 7" stroke="#000000"/>
    <text x="35" y="40" text-anchor="middle" fill="#ffffff">H</text>
    <text x="41" y="40" text-anchor="middle" fill="#ffffff">e</text>
    <text x="32" y="31">$begin=4$</text>
    <text x="56" y="31" fill="#bf3959">$cursor=8$</text>
    <text x="71" y="40" text-anchor="middle">$gap=5$</text>
    <text x="128" y="31">$end=20$</text>
    <text x="47" y="40" text-anchor="middle" fill="#ffffff">l</text>
    <text x="89" y="40" text-anchor="middle" fill="#ffffff">,</text>
    <text x="95" y="40" text-anchor="middle" fill="#ffffff">W</text>
    <text x="101" y="40" text-anchor="middle" fill="#ffffff">o</text>
    <text x="107" y="40" text-anchor="middle" fill="#ffffff">r</text>
    <text x="113" y="40" text-anchor="middle" fill="#ffffff">l</text>
    <text x="119" y="40" text-anchor="middle" fill="#ffffff">d</text>
    <text x="125" y="40" text-anchor="middle" fill="#ffffff">!</text>
    <text x="53" y="40" text-anchor="middle" fill="#ffffff">l</text>
    <path d="m 35,32 v 3" stroke="#000000" marker-end="url(#arrow)"/>
    <path d="m 59,32 v 3" stroke="#bf3959" marker-end="url(#arrow)"/>
    <path d="m 131,32 v 3" stroke="#000000" marker-end="url(#arrow)"/>
    <path d="m 14,52 v 7" stroke="#000000"/>
    <path d="m 20,52 v 7" stroke="#000000"/>
    <path d="m 26,52 v 7" stroke="#000000"/>
    <path d="m 32,52 v 7" stroke="#000000"/>
    <path d="m 38,52 v 7" stroke="#000000"/>
    <path d="m 44,52 v 7" stroke="#000000"/>
    <path d="m 50,52 v 7" stroke="#000000"/>
    <path d="m 56,52 v 7" stroke="#000000"/>
    <path d="m 86,52 v 7" stroke="#000000"/>
    <path d="m 92,52 v 7" stroke="#000000"/>
    <path d="m 98,52 v 7" stroke="#000000"/>
    <path d="m 104,52 v 7" stroke="#000000"/>
    <path d="m 110,52 v 7" stroke="#000000"/>
    <path d="m 116,52 v 7" stroke="#000000"/>
    <path d="m 122,52 v 7" stroke="#000000"/>
    <path d="m 128,52 v 7" stroke="#000000"/>
    <path d="m 134,52 v 7" stroke="#000000"/>
    <text x="35" y="57" text-anchor="middle" fill="#ffffff">H</text>
    <text x="41" y="57" text-anchor="middle" fill="#ffffff">e</text>
    <text x="32" y="48">$begin=4$</text>
    <text x="62" y="48" fill="#bf3959">$cursor=9$</text>
    <text x="74" y="57" text-anchor="middle">$gap=4$</text>
    <text x="128" y="48">$end=20$</text>
    <text x="47" y="57" text-anchor="middle" fill="#ffffff">l</text>
    <text x="59" y="57" text-anchor="middle" fill="#ffffff">o</text>
    <text x="89" y="57" text-anchor="middle" fill="#ffffff">,</text>
    <text x="95" y="57" text-anchor="middle" fill="#ffffff">W</text>
    <text x="101" y="57" text-anchor="middle" fill="#ffffff">o</text>
    <text x="107" y="57" text-anchor="middle" fill="#ffffff">r</text>
    <text x="113" y="57" text-anchor="middle" fill="#ffffff">l</text>
    <text x="119" y="57" text-anchor="middle" fill="#ffffff">d</text>
    <text x="125" y="57" text-anchor="middle" fill="#ffffff">!</text>
    <text x="53" y="57" text-anchor="middle" fill="#ffffff">l</text>
    <path d="m 35,49 v 3" stroke="#000000" marker-end="url(#arrow)"/>
    <path d="m 65,49 v 3" stroke="#bf3959" marker-end="url(#arrow)"/>
    <path d="m 131,49 v 3" stroke="#000000" marker-end="url(#arrow)"/>
    <rect width="1" height="7" x="62" y="15" fill="#bf3959"/>
    <rect width="1" height="7" x="56" y="35" fill="#bf3959"/>
    <rect width="1" height="7" x="62" y="52" fill="#bf3959"/>
    <rect width="132" height="7" x="8" y="15" fill="none" stroke="#000000"/>
    <rect width="132" height="7" x="8" y="35" fill="none" stroke="#000000"/>
    <rect width="132" height="7" x="8" y="52" fill="none" stroke="#000000"/>
    <path d="m 62,15 v 7" stroke="#000000"/>
    <path d="m 56,35 v 7" stroke="#000000"/>
    <path d="m 62,52 v 7" stroke="#000000"/>
  </g>
</svg>
