<!--
This work is licensed under the Creative Commons Attribution NonCommercial
ShareAlike 4.0 International License. To view a copy of the license, visit
https://creativecommons.org/licenses/by-nc-sa/4.0/
-->
<svg xmlns="http://www.w3.org/2000/svg" width="145mm" height="65mm" viewBox="0 0 145 65" version="1.1">
  <defs>
    <marker id="arrow" orient="auto-start-reverse">
      <path d="M 3,-3 0,0 3,3" transform="rotate(180,0.125,0)" fill="none" stroke="context-stroke"/>
    </marker>
  </defs>
  <g font-family="'Fira Sans'" font-size="3.9px" stroke-width="0.2">
    <text x="72" y="27" font-size="3.5px" text-anchor="middle">Memory</text>
    <text x="72" y="31" font-size="3.5px" text-anchor="middle">Editor</text>
    <path d="m 72,24 v -4" stroke="#000000" stroke-dasharray="0.4 0.4" marker-end="url(#arrow)"/>
    <text x="91" y="27" font-size="3.5px" text-anchor="end">Flash</text>
    <text x="91" y="31" font-size="3.5px" text-anchor="end">Driver</text>
    <path d="m 90,24 v -4" stroke="#000000" stroke-dasharray="0.4 0.4" marker-end="url(#arrow)"/>
    <path d="M 2,12 H 7 L 6,16 H 7 L 6,19 H 2" fill="#ebebeb"/>
    <path d="m 139,12 h 5 L 143,16 h 1 L 143,19 l -4,0" fill="#ebebeb"/>
    <rect width="6" height="7" x="26" y="12" fill="#ebebeb"/>
    <rect width="14" height="7" x="12" y="12" fill="#bf3959"/>
    <rect width="1" height="7" x="1" y="12" fill="#cca752"/>
    <rect width="5" height="7" x="85" y="12" fill="#ebebeb"/>
    <rect width="1" height="7" x="98" y="12" fill="#ebebeb"/>
    <rect width="4" height="7" x="116" y="12" fill="#ebebeb"/>
    <rect width="4" height="7" x="131" y="12" fill="#ebebeb"/>
    <path d="M 12,12 H 8 L 7,15 H 8 L 7,19 h 5" fill="#ebebeb"/>
    <rect width="53" height="7" x="32" y="12" fill="#0e6e8e"/>
    <rect width="4" height="7" x="135" y="12" fill="#0e6e8e"/>
    <rect width="11" height="7" x="120" y="12" fill="#0e6e8e"/>
    <rect width="8" height="7" x="90" y="12" fill="#0e6e8e"/>
    <rect width="17" height="7" x="99" y="12" fill="#0e6e8e"/>
    <path d="M 1,12 H 7 L 6,16 H 7 L 6,19 H 1 Z" fill="none" stroke="#000000"/>
    <path d="M 144,12 H 8 L 7,15 H 8 L 7,19 H 143 L 144,16 h -1 z" fill="none" stroke="#000000"/>
    <path d="m 12,12 v 7" stroke="#000000"/>
    <path d="m 26,12 v 7" stroke="#000000"/>
    <path d="m 2,12 v 7" stroke="#000000"/>
    <path d="m 32,12 v 7" stroke="#000000"/>
    <path d="m 46,12 v 7" stroke="#000000"/>
    <path d="m 56,12 v 7" stroke="#000000"/>
    <path d="m 72,12 v 7" stroke="#000000"/>
    <path d="m 99,12 v 7" stroke="#000000"/>
    <path d="m 85,12 v 7" stroke="#000000"/>
    <text x="-7.0710683" y="8.485281" transform="rotate(-45)" font-size="3.5px">80000$_{16}$</text>
    <text x="0.70710647" y="16.263456" transform="rotate(-45)" font-size="3.5px">\mmapa</text>
    <text x="14.849241" y="30.405592" transform="rotate(-45)" font-size="3.5px">\mmapb</text>
    <text x="24.748737" y="40.305088" transform="rotate(-45)" font-size="3.5px">\mmapc</text>
    <text x="31.819805" y="47.376156" transform="rotate(-45)" font-size="3.5px">\mmapd</text>
    <text x="43.133514" y="58.689861" transform="rotate(-45)" font-size="3.5px">\mmape</text>
    <text x="55.861435" y="71.417786" transform="rotate(-45)" font-size="3.5px">\mmapf</text>
    <text x="62.225395" y="77.781746" transform="rotate(-45)" font-size="3.5px">\mmapg</text>
    <text x="77.074638" y="92.630989" transform="rotate(-45)" font-size="3.5px">\mmaph</text>
    <text x="87.681244" y="103.23759" transform="rotate(-45)" font-size="3.5px">\mmapi</text>
    <text x="11" y="27" font-size="3.5px">Interpreter</text>
    <text x="11" y="31" font-size="3.5px">\&amp; handlers</text>
    <text x="31" y="27" font-size="3.5px">Clock, Graphics Card,</text>
    <text x="31" y="31" font-size="3.5px">\&amp; Keyboard drivers</text>
    <path d="M 1,24 V 20" stroke="#000000" stroke-dasharray="0.4 0.4" marker-end="url(#arrow)"/>
    <path d="m 32,24 v -4" stroke="#000000" stroke-dasharray="0.4 0.4" marker-end="url(#arrow)"/>
    <path d="m 12,24 v -4" stroke="#000000" stroke-dasharray="0.4 0.4" marker-end="url(#arrow)"/>
    <text x="5" y="62" font-size="3.5px">Types</text>
    <text x="5" y="66" font-size="3.5px">Compiler v2</text>
    <path d="m 6,59 v -4" stroke="#000000" stroke-dasharray="0.4 0.4" marker-end="url(#arrow)"/>
    <text x="116" y="62" font-size="3.5px">Native</text>
    <text x="116" y="66" font-size="3.5px">Compiler v2</text>
    <path d="m 117,59 v -4" stroke="#000000" stroke-dasharray="0.4 0.4" marker-end="url(#arrow)"/>
    <text x="0" y="27" font-size="3.5px">Vector</text>
    <text x="0" y="31" font-size="3.5px">Table</text>
    <path d="m 139,12 v 7" stroke="#000000"/>
    <rect width="22" height="7" x="6" y="47" fill="#0e6e8e"/>
    <rect width="22" height="7" x="117" y="47" fill="#bf3959"/>
    <rect width="1" height="7" x="46" y="47" fill="#ebebeb"/>
    <path d="m 107,47 5,0 -1,4 h 1 l -1,3 h -4" fill="#ebebeb"/>
    <path d="m 28,47 h 5 l -1,4 h 1 l -1,3 H 28" fill="#ebebeb"/>
    <path d="m 6,47 h -4 l -1,3 H 2 L 1,54 h 5" fill="#ebebeb"/>
    <path d="M 33,47 2,47 1,50 H 2 L 1,54 H 32 l 1,-3 h -1 z" fill="none" stroke="#000000"/>
    <path d="m 107,47 v 7" stroke="#000000"/>
    <path d="m 6,47 v 7" stroke="#000000"/>
    <text x="-28.284271" y="36.769554" transform="rotate(-45)" font-size="3.5px">\mmapj</text>
    <text x="43" y="66" font-size="3.5px">Editor</text>
    <text x="43" y="62" font-size="3.5px">Command</text>
    <path d="m 38,47 h -4 l -1,3 h 1 l -1,4 5,0" fill="#ebebeb"/>
    <path d="M 112,47 H 34 l -1,3 h 1 l -1,4 78,0 1,-3 h -1 z" fill="none" stroke="#000000"/>
    <path d="m 47,47 v 7" stroke="#000000"/>
    <path d="m 44,47 v 7" stroke="#000000"/>
    <path d="m 46,47 v 7" stroke="#000000"/>
    <path d="m 38,47 v 7" stroke="#000000"/>
    <text x="0.70710599" y="65.760933" transform="rotate(-45)" font-size="3.5px">\mmapl</text>
    <text x="-5.6568551" y="59.396969" transform="rotate(-45)" font-size="3.5px">\mmapk</text>
    <text x="50.204582" y="115.25841" transform="rotate(-45)" font-size="3.5px">\mmapm</text>
    <text x="49" y="52" font-size="3.5px">Native Compiler v2</text>
    <path d="M 44,59 V 55" stroke="#000000" stroke-dasharray="0.4 0.4" marker-end="url(#arrow)"/>
    <path d="m 38,59 v -4" stroke="#000000" stroke-dasharray="0.4 0.4" marker-end="url(#arrow)"/>
    <text x="39" y="62" font-size="3.5px" text-anchor="end">commands</text>
    <path d="m 139,47 h 5 l -1,4 H 144 l -1,3 H 139" fill="#ebebeb"/>
    <path d="m 117,47 h -4 l -1,3 h 1 l -1,4 h 5" fill="#ebebeb"/>
    <path d="m 144,47 h -31 l -1,3 h 1 l -1,4 31,0 1,-3 h -1 z" fill="none" stroke="#000000"/>
    <path d="m 139,47 v 7" stroke="#000000"/>
    <path d="m 28,47 v 7" stroke="#000000"/>
    <path d="m 117,47 v 7" stroke="#000000"/>
    <text x="99" y="27" font-size="3.5px" text-anchor="middle">Text</text>
    <text x="99" y="31" font-size="3.5px" text-anchor="middle">Editor</text>
    <path d="m 99,24 v -4" stroke="#000000" stroke-dasharray="0.4 0.4" marker-end="url(#arrow)"/>
    <text x="121" y="27" font-size="3.5px" text-anchor="end">Opcodes</text>
    <text x="121" y="31" font-size="3.5px" text-anchor="end">Compiler</text>
    <path d="m 120,24 v -4" stroke="#000000" stroke-dasharray="0.4 0.4" marker-end="url(#arrow)"/>
    <text x="135" y="27" font-size="3.5px" text-anchor="middle">Command</text>
    <text x="135" y="31" font-size="3.5px" text-anchor="middle">Editor</text>
    <path d="M 135,24 V 20" stroke="#000000" stroke-dasharray="0.4 0.4" marker-end="url(#arrow)"/>
    <path d="m 90,12 v 7" stroke="#000000"/>
    <path d="m 98,12 v 7" stroke="#000000"/>
    <path d="m 116,12 v 7" stroke="#000000"/>
    <path d="m 120,12 v 7" stroke="#000000"/>
    <path d="m 131,12 v 7" stroke="#000000"/>
    <path d="m 135,12 v 7" stroke="#000000"/>
  </g>
</svg>
