<!--
This work is licensed under the Creative Commons Attribution NonCommercial
ShareAlike 4.0 International License. To view a copy of the license, visit
https://creativecommons.org/licenses/by-nc-sa/4.0/
-->
<svg xmlns="http://www.w3.org/2000/svg" width="145mm" height="55mm" viewBox="0 0 145 55" version="1.1">
  <defs>
    <marker id="arrow" orient="auto-start-reverse">
      <path d="M 3,-3 0,0 3,3" transform="rotate(180,0.125,0)" fill="none" stroke="context-stroke"/>
    </marker>
  </defs>
  <g font-family="'Fira Sans'" font-size="3.9px" stroke-width="0.2">
    <text x="9" y="35" font-size="3.5px" text-anchor="middle">...</text>
    <path d="M 17,36 V 20" stroke="#000000"/>
    <path d="m 1,36 v -16" stroke="#000000"/>
    <path d="M 1,32 H 17" stroke="#000000"/>
    <rect width="16" height="4" x="1" y="38" fill="#cccccc"/>
    <rect width="16" height="8" x="1" y="38" fill="none" stroke="#000000"/>
    <text x="3" y="41" font-size="3.5px" text-anchor="middle">R0</text>
    <text x="3" y="45" font-size="3.5px" text-anchor="middle">1</text>
    <text x="7" y="45" font-size="3.5px" text-anchor="middle">2</text>
    <text x="7" y="41" font-size="3.5px" text-anchor="middle">R1</text>
    <text x="11" y="41" font-size="3.5px" text-anchor="middle">R2</text>
    <text x="15" y="41" font-size="3.5px" text-anchor="middle">R3</text>
    <path d="M 17,42 H 1" stroke="#000000"/>
    <path d="m 5,38 v 8" stroke="#000000"/>
    <path d="m 9,38 v 8" stroke="#000000"/>
    <path d="m 13,38 v 8" stroke="#000000"/>
    <rect width="16" height="4" x="26" y="38" fill="#cccccc"/>
    <rect width="16" height="8" x="26" y="38" fill="none" stroke="#000000"/>
    <text x="28" y="41" font-size="3.5px" text-anchor="middle">R0</text>
    <text x="32" y="41" font-size="3.5px" text-anchor="middle">R1</text>
    <text x="36" y="41" font-size="3.5px" text-anchor="middle">R2</text>
    <text x="40" y="41" font-size="3.5px" text-anchor="middle">R3</text>
    <path d="M 42,42 H 26" stroke="#000000"/>
    <path d="m 30,38 v 8" stroke="#000000"/>
    <path d="m 34,38 v 8" stroke="#000000"/>
    <path d="m 38,38 v 8" stroke="#000000"/>
    <rect width="16" height="4" x="51" y="38" fill="#cccccc"/>
    <rect width="16" height="8" x="51" y="38" fill="none" stroke="#000000"/>
    <text x="53" y="41" font-size="3.5px" text-anchor="middle">R0</text>
    <text x="57" y="41" font-size="3.5px" text-anchor="middle">R1</text>
    <text x="61" y="41" font-size="3.5px" text-anchor="middle">R2</text>
    <text x="65" y="41" font-size="3.5px" text-anchor="middle">R3</text>
    <path d="m 67,42 h -16" stroke="#000000"/>
    <path d="m 55,38 v 8" stroke="#000000"/>
    <path d="m 59,38 v 8" stroke="#000000"/>
    <path d="m 63,38 v 8" stroke="#000000"/>
    <rect width="16" height="4" x="76" y="38" fill="#cccccc"/>
    <rect width="16" height="8" x="76" y="38" fill="none" stroke="#000000"/>
    <text x="78" y="41" font-size="3.5px" text-anchor="middle">R0</text>
    <text x="82" y="41" font-size="3.5px" text-anchor="middle">R1</text>
    <text x="86" y="41" font-size="3.5px" text-anchor="middle">R2</text>
    <text x="90" y="41" font-size="3.5px" text-anchor="middle">R3</text>
    <path d="m 92,42 h -16" stroke="#000000"/>
    <path d="m 80,38 v 8" stroke="#000000"/>
    <path d="m 84,38 v 8" stroke="#000000"/>
    <path d="m 88,38 v 8" stroke="#000000"/>
    <rect width="16" height="4" x="101" y="38" fill="#cccccc"/>
    <rect width="16" height="8" x="101" y="38" fill="none" stroke="#000000"/>
    <text x="103" y="41" font-size="3.5px" text-anchor="middle">R0</text>
    <text x="107" y="41" font-size="3.5px" text-anchor="middle">R1</text>
    <text x="111" y="41" font-size="3.5px" text-anchor="middle">R2</text>
    <text x="115" y="41" font-size="3.5px" text-anchor="middle">R3</text>
    <path d="M 117,42 H 101" stroke="#000000"/>
    <path d="M 105,38 V 46" stroke="#000000"/>
    <path d="M 109,38 V 46" stroke="#000000"/>
    <path d="M 113,38 V 46" stroke="#000000"/>
    <rect width="16" height="4" x="126" y="38" fill="#cccccc"/>
    <rect width="16" height="8" x="126" y="38" fill="none" stroke="#000000"/>
    <text x="128" y="41" font-size="3.5px" text-anchor="middle">R0</text>
    <text x="132" y="41" font-size="3.5px" text-anchor="middle">R1</text>
    <text x="136" y="41" font-size="3.5px" text-anchor="middle">R2</text>
    <text x="140" y="41" font-size="3.5px" text-anchor="middle">R3</text>
    <path d="m 142,42 h -16" stroke="#000000"/>
    <path d="m 130,38 v 8" stroke="#000000"/>
    <path d="m 134,38 v 8" stroke="#000000"/>
    <path d="m 138,38 v 8" stroke="#000000"/>
    <path d="M 26,28 H 42" stroke="#000000"/>
    <path d="m 26,24 h 16" stroke="#000000"/>
    <text x="34" y="31" font-size="3.5px" text-anchor="middle">2</text>
    <text x="34" y="27" font-size="3.5px" text-anchor="middle">1</text>
    <text x="34" y="35" font-size="3.5px" text-anchor="middle">...</text>
    <path d="M 42,36 V 20" stroke="#000000"/>
    <path d="m 26,36 v -16" stroke="#000000"/>
    <path d="m 26,32 h 16" stroke="#000000"/>
    <path d="M 51,28 H 67" stroke="#000000"/>
    <path d="m 51,24 h 16" stroke="#000000"/>
    <text x="59" y="31" font-size="3.5px" text-anchor="middle">2</text>
    <text x="59" y="27" font-size="3.5px" text-anchor="middle">1</text>
    <text x="59" y="35" font-size="3.5px" text-anchor="middle">...</text>
    <path d="M 67,36 V 20" stroke="#000000"/>
    <path d="m 51,36 v -16" stroke="#000000"/>
    <path d="m 51,32 h 16" stroke="#000000"/>
    <path d="M 76,28 H 92" stroke="#000000"/>
    <path d="M 76,24 H 92" stroke="#000000"/>
    <text x="84" y="31" font-size="3.5px" text-anchor="middle">2</text>
    <text x="84" y="27" font-size="3.5px" text-anchor="middle">1</text>
    <text x="84" y="35" font-size="3.5px" text-anchor="middle">...</text>
    <path d="M 92,36 V 20" stroke="#000000"/>
    <path d="m 76,36 v -16" stroke="#000000"/>
    <path d="M 76,32 H 92" stroke="#000000"/>
    <path d="m 101,28 h 16" stroke="#000000"/>
    <path d="M 101,24 H 117" stroke="#000000"/>
    <text x="109" y="31" font-size="3.5px" text-anchor="middle">2</text>
    <text x="109" y="27" font-size="3.5px" text-anchor="middle">1</text>
    <text x="109" y="35" font-size="3.5px" text-anchor="middle">...</text>
    <path d="M 117,36 V 20" stroke="#000000"/>
    <path d="m 101,36 v -16" stroke="#000000"/>
    <path d="m 101,32 h 16" stroke="#000000"/>
    <text x="134" y="35" font-size="3.5px" text-anchor="middle">...</text>
    <path d="M 142,36 V 20" stroke="#000000"/>
    <path d="m 126,36 v -16" stroke="#000000"/>
    <path d="m 126,32 h 16" stroke="#000000"/>
    <text x="53" y="45" font-size="3.5px" text-anchor="middle">3</text>
    <text x="57" y="45" font-size="3.5px" text-anchor="middle">4</text>
    <text x="78" y="45" font-size="3.5px" text-anchor="middle">7</text>
    <text x="103" y="45" font-size="3.5px" text-anchor="middle">7</text>
    <text x="111" y="45" font-size="3.5px" text-anchor="middle">7</text>
    <text x="128" y="45" font-size="3.5px" text-anchor="middle">1</text>
    <text x="132" y="45" font-size="3.5px" text-anchor="middle">2</text>
    <text x="136" y="45" font-size="3.5px" text-anchor="middle">7</text>
    <text x="-36" y="22" transform="rotate(-90)" font-size="3.5px">step 2</text>
    <text x="-36" y="47" transform="rotate(-90)" font-size="3.5px">step 3</text>
    <text x="-36" y="72" transform="rotate(-90)" font-size="3.5px">step 4</text>
    <text x="-36" y="98" transform="rotate(-90)" font-size="3.5px">step 5</text>
    <text x="-36" y="122" transform="rotate(-90)" font-size="3.5px">step 6</text>
    <path d="m 18,37 h 7" stroke="#000000" marker-end="url(#arrow)" stroke-dasharray="0.8 0.2"/>
    <path d="m 43,37 h 7" stroke="#000000" stroke-dasharray="0.8 0.2" marker-end="url(#arrow)"/>
    <path d="m 68,37 h 7" stroke="#000000" stroke-dasharray="0.8 0.2" marker-end="url(#arrow)"/>
    <path d="m 93,37 h 7" stroke="#000000" stroke-dasharray="0.8 0.2" marker-end="url(#arrow)"/>
    <path d="m 118,37 h 7" stroke="#000000" stroke-dasharray="0.8 0.2" marker-end="url(#arrow)"/>
  </g>
</svg>
