<!--
This work is licensed under the Creative Commons Attribution NonCommercial
ShareAlike 4.0 International License. To view a copy of the license, visit
https://creativecommons.org/licenses/by-nc-sa/4.0/
-->
<svg xmlns="http://www.w3.org/2000/svg" width="145mm" height="55mm" viewBox="0 0 145 55" version="1.1">
  <defs>
    <marker id="arrow" orient="auto-start-reverse">
      <path d="M 3,-3 0,0 3,3" transform="rotate(180,0.125,0)" fill="none" stroke="context-stroke"/>
    </marker>
  </defs>
  <g font-family="'Fira Sans'" font-size="3.9px" stroke-width="0.2">
    <rect width="16" height="4" x="74" y="44" fill="#0e6e8e"/>
    <rect width="16" height="12" x="74" y="32" fill="#cccccc"/>
    <rect width="16" height="8" x="74" y="24" fill="#ebebeb"/>
    <text x="18" y="23" font-size="3.5px" text-anchor="end">slot index $s$</text>
    <text x="18" y="47" font-size="3.5px" text-anchor="end">0</text>
    <text x="18" y="43" font-size="3.5px" text-anchor="end">1</text>
    <text x="18" y="39" font-size="3.5px" text-anchor="end">2</text>
    <text x="18" y="35" font-size="3.5px" text-anchor="end">3</text>
    <text x="18" y="31" font-size="3.5px" text-anchor="end">4</text>
    <text x="18" y="27" font-size="3.5px" text-anchor="end">5</text>
    <text x="40" y="23" font-size="3.5px" text-anchor="end">address</text>
    <text x="40" y="47" font-size="3.5px" text-anchor="end">FP-4*0</text>
    <text x="40" y="43" font-size="3.5px" text-anchor="end">FP-4*1</text>
    <text x="40" y="39" font-size="3.5px" text-anchor="end">FP-4*2</text>
    <text x="40" y="35" font-size="3.5px" text-anchor="end">FP-4*3</text>
    <text x="40" y="31" font-size="3.5px" text-anchor="end">FP-4*4</text>
    <text x="40" y="27" font-size="3.5px" text-anchor="end">FP-4*5</text>
    <text x="62" y="23" font-size="3.5px" text-anchor="end">address</text>
    <text x="62" y="47" font-size="3.5px" text-anchor="end">SP+4*(5-0)</text>
    <text x="62" y="43" font-size="3.5px" text-anchor="end">SP+4*(5-1)</text>
    <text x="62" y="39" font-size="3.5px" text-anchor="end">SP+4*(5-2)</text>
    <text x="62" y="35" font-size="3.5px" text-anchor="end">SP+4*(5-3)</text>
    <text x="62" y="31" font-size="3.5px" text-anchor="end">SP+4*(5-4)</text>
    <text x="62" y="27" font-size="3.5px" text-anchor="end">SP+4*(5-5)</text>
    <path d="M 74,44 H 90" stroke="#000000"/>
    <path d="m 74,40 h 16" stroke="#000000"/>
    <path d="m 74,36 h 16" stroke="#000000"/>
    <path d="m 74,32 h 16" stroke="#000000"/>
    <path d="m 74,28 h 16" stroke="#000000"/>
    <path d="m 74,24 h 16" stroke="#000000"/>
    <text x="82" y="47" font-size="3.5px" text-anchor="middle" fill="#ffffff">LR</text>
    <text x="82" y="43" font-size="3.5px" text-anchor="middle">arg2</text>
    <text x="82" y="39" font-size="3.5px" text-anchor="middle">arg1</text>
    <text x="82" y="35" font-size="3.5px" text-anchor="middle">arg0</text>
    <text x="82" y="31" font-size="3.5px" text-anchor="middle">x0</text>
    <text x="82" y="27" font-size="3.5px" text-anchor="middle">x1</text>
    <text x="97" y="47" font-size="3.5px">FP</text>
    <text x="82" y="51" font-size="3.5px" text-anchor="middle">...</text>
    <path d="M 90,52 V 17" stroke="#000000"/>
    <path d="M 74,52 V 17" stroke="#000000"/>
    <path d="m 74,48 h 16" stroke="#000000"/>
    <path d="M 96,46 H 90" stroke="#000000" stroke-dasharray="0.8 0.2" marker-end="url(#arrow)"/>
    <text x="97" y="27" font-size="3.5px">SP</text>
    <text x="96" y="39" font-size="3.5px">arity $a=3$</text>
    <path d="M 96,26 H 90" stroke="#000000" stroke-dasharray="0.8 0.2" marker-end="url(#arrow)"/>
    <path d="m 82,23 v -3" stroke="#000000" stroke-dasharray="0.8 0.2" marker-end="url(#arrow)"/>
    <path d="m 93,32 1,1 v 4 l 1,1 -1,1 v 4 l -1,1" fill="none" stroke="#000000"/>
    <text x="115" y="35" font-size="3.5px">$\it{frame\_size}=5$</text>
    <path d="m 112,24 1,1 v 8 l 1,1 -1,1 v 8 l -1,1" fill="none" stroke="#000000"/>
  </g>
</svg>
