<!--
This work is licensed under the Creative Commons Attribution NonCommercial
ShareAlike 4.0 International License. To view a copy of the license, visit
https://creativecommons.org/licenses/by-nc-sa/4.0/
-->
<svg xmlns="http://www.w3.org/2000/svg" width="145mm" height="65mm" viewBox="0 0 145 65" version="1.1">
  <defs>
    <marker id="arrow" orient="auto-start-reverse">
      <path d="M 3,-3 0,0 3,3" transform="rotate(180,0.125,0)" fill="none" stroke="context-stroke"/>
    </marker>
    </defs>
  <g font-family="'Fira Sans'" font-size="3.9px" stroke-width="0.2">
    <rect width="5" height="7" x="1" y="12" fill="#cca752"/>
    <rect width="100" height="7" x="24" y="12" fill="#ebebeb"/>
    <rect width="13" height="7" x="6" y="12" fill="#bf3959"/>
    <path d="m 6,12 v 7" stroke="#000000"/>
    <path d="m 19,12 v 7" stroke="#000000"/>
    <path d="m 24,12 v 7" stroke="#000000"/>
    <text x="-7.0710683" y="8.485281" transform="rotate(-45)" font-size="3.5px">20070000$_{16}$</text>
    <text x="-3.5355341" y="12.020816" transform="rotate(-45)" font-size="3.5px">20070100$_{16}$</text>
    <text x="84.145706" y="99.702057" transform="rotate(-45)" font-size="3.5px">20088000$_{16}$</text>
    <text x="7" y="17" font-size="3.5px">Kernel</text>
    <text x="5" y="27" font-size="3.5px">$\mathit{code}$</text>
    <path d="m 124,12 v 7" stroke="#000000"/>
    <rect width="129" height="7" x="1" y="12" fill="none" stroke="#000000"/>
    <path d="M 6,24 V 20" stroke="#000000" stroke-dasharray="0.4, 0.4" marker-end="url(#arrow)"/>
    <text x="129" y="27" font-size="3.5px">$\mathit{stack}$</text>
    <path d="M 130,24 V 20" stroke="#000000" stroke-dasharray="0.4, 0.4" marker-end="url(#arrow)"/>
    <text x="18" y="27" font-size="3.5px">$\mathit{heap}$</text>
    <path d="M 19,24 V 20" stroke="#000000" stroke-dasharray="0.4, 0.4" marker-end="url(#arrow)"/>
    <path d="m 124,15.5 h -4" stroke="#000000" stroke-dasharray="0.2, 0.2" marker-end="url(#arrow)"/>
    <path d="M 28,15.5 H 24" stroke="#000000" stroke-dasharray="0.2, 0.2" marker-start="url(#arrow)"/>
  </g>
</svg>
