<!--
This work is licensed under the Creative Commons Attribution NonCommercial
ShareAlike 4.0 International License. To view a copy of the license, visit
https://creativecommons.org/licenses/by-nc-sa/4.0/
-->
<svg xmlns="http://www.w3.org/2000/svg" width="145mm" height="65mm" viewBox="0 0 145 65" version="1.1">
  <defs>
    <marker id="arrow" orient="auto-start-reverse">
      <path d="M 3,-3 0,0 3,3" transform="rotate(180,0.125,0)" fill="none" stroke="context-stroke"/>
    </marker>
  </defs>
  <g font-family="'Fira Sans'" font-size="3.9px" stroke-width="0.2">
    <rect width="2" height="7" x="60" y="20" fill="#bf3959"/>
    <rect width="33" height="7" x="27" y="20" fill="#ebebeb"/>
    <rect width="19" height="7" x="62" y="20" fill="#0e6e8e"/>
    <rect width="12" height="7" x="81" y="20" fill="#118ab2"/>
    <rect width="6" height="7" x="93" y="20" fill="#41a1c1"/>
    <path d="m 99,20 h 28 l -1,4 h 1 l -1,3 -27,0" fill="#ebebeb"/>
    <path d="m 134,20 h -6 l -1,3 h 1 l -1,4 7,0" fill="#ebebeb"/>
    <path d="m 0,20 127,0 -1,4 h 1 l -1,3 -126,0 z" fill="none" stroke="#000000"/>
    <path d="m 145,20 -17,0 -1,3 h 1 l -1,4 18,0 z" fill="none" stroke="#000000"/>
    <path d="m 0,16 v 4" stroke="#000000" stroke-dasharray="0.8 0.2" marker-end="url(#arrow)"/>
    <path d="m 134,16 v 4" stroke="#000000" stroke-dasharray="0.8 0.2" marker-end="url(#arrow)"/>
    <path d="m 120,16 v 4" stroke="#000000" stroke-dasharray="0.8 0.2" marker-end="url(#arrow)"/>
    <path d="m 99,16 v 4" stroke="#000000" stroke-dasharray="0.8 0.2" marker-end="url(#arrow)"/>
    <path d="m 60,16 v 4" stroke="#000000" stroke-dasharray="0.8 0.2" marker-end="url(#arrow)"/>
    <path d="m 27,16 v 4" stroke="#000000" stroke-dasharray="0.8 0.2" marker-end="url(#arrow)"/>
    <text x="0" y="15" font-size="3.5px">$\it{dst\_buffer}$</text>
    <text x="120" y="15" font-size="3.5px" text-anchor="end">$\it{heap\_limit}$</text>
    <text x="100" y="15" font-size="3.5px" text-anchor="end">$\it{heap}$</text>
    <text x="134" y="15" font-size="3.5px">SP</text>
    <text x="60" y="15" font-size="3.5px" text-anchor="end">$\it{dst\_limit}$</text>
    <text x="27" y="15" font-size="3.5px">$\it{dst}$</text>
    <path d="m 134,23.5 h -4" stroke="#000000" stroke-dasharray="0.2 0.2" marker-end="url(#arrow)"/>
    <path d="M 103,23.5 H 99" stroke="#000000" stroke-dasharray="0.2 0.2" marker-start="url(#arrow)"/>
    <path d="M 31,23.5 H 27" stroke="#000000" stroke-dasharray="0.2 0.2" marker-start="url(#arrow)"/>
    <path d="m 120,20 v 7" stroke="#000000" stroke-dasharray="0.2 0.2"/>
    <path d="m 134,20 v 7" stroke="#000000"/>
    <path d="m 27,20 0,7" stroke="#000000"/>
    <path d="m 60,20 v 7" stroke="#000000"/>
    <path d="m 62,20 v 7" stroke="#000000"/>
  </g>
</svg>
